<svg width="44" height="35" viewBox="0 0 44 35" fill="none" xmlns="http://www.w3.org/2000/svg">
<path d="M39.9295 34.9777C39.9735 33.7964 39.4895 32.7488 39.0496 31.7236C37.5098 28.2242 35.134 25.3936 31.9004 23.3653C30.6686 22.6075 29.3267 22.028 28.0069 21.337C30.0967 19.175 30.8446 16.4781 30.2506 13.4468C29.8327 11.3517 28.7548 9.61314 27.039 8.36498C23.5634 5.82406 18.966 6.24755 16.1503 9.03364C13.0267 12.1095 12.2788 17.1913 15.9304 21.4039C14.9185 21.8942 13.9066 22.34 12.9167 22.8749C10.497 24.2123 8.49528 26.0622 6.84548 28.3357C5.76761 29.829 4.9757 31.4561 4.33778 33.1723C4.11781 33.7518 4.07381 34.3759 3.94183 34.9777C3.43589 34.153 2.88596 33.3729 2.44601 32.526C1.65411 30.9212 1.01618 29.2718 0.620233 27.511C0.158289 25.4827 -0.0836815 23.4322 0.0263051 21.3593C0.246278 17.3028 1.41214 13.536 3.58987 10.1258C5.54763 7.07223 8.12132 4.64276 11.2669 2.85966C13.6646 1.50005 16.1943 0.608502 18.922 0.229593C22.1996 -0.23847 25.4332 0.00670646 28.6228 0.98741C31.3285 1.83438 33.7702 3.14942 35.9479 4.9548C39.4895 7.89691 41.9092 11.6191 43.1631 16.1215C43.801 18.4395 44.087 20.8021 43.977 23.2093C43.845 25.8393 43.339 28.3802 42.2832 30.7874C41.6892 32.1248 40.9413 33.3729 40.2374 34.6657C40.1714 34.7994 39.9954 34.8886 39.8635 35L39.9295 34.9777Z" fill="#EDE4E8"/>
</svg>
