<svg width="25" height="24" viewBox="0 0 25 24" fill="none" xmlns="http://www.w3.org/2000/svg">
<path d="M4.42121 18.5828C4.46494 17.0205 3.39648 15.7429 2.00936 15.3824C1.68445 15.3001 1.3408 15.2685 1.03463 15.1484C0.447291 14.908 0.147373 14.402 0.103635 13.7822C0.0411516 12.9599 -0.0150829 12.125 0.00366198 11.3028C0.0224069 10.664 0.116131 10.0125 0.272339 9.39265C0.403553 8.88666 0.884671 8.46289 1.45951 8.39331C2.9716 8.20989 4.14003 7.2485 4.46494 5.68624C4.58991 5.09169 4.53367 4.47817 4.28999 3.88995C3.97133 3.13096 4.21501 2.36564 4.97105 1.85964C5.68961 1.37895 6.42691 0.923553 7.1892 0.512431C7.65782 0.259434 8.15144 -0.00621417 8.70129 0.00011077C9.24489 0.00643571 9.67602 0.246784 10.0197 0.695855C10.4258 1.22715 10.9944 1.55605 11.6255 1.73315C12.644 2.01777 13.5875 1.80904 14.431 1.18288C14.6872 0.993127 14.8996 0.727479 15.1245 0.493457C15.5432 0.0570354 16.193 -0.139038 16.899 0.132935C17.9925 0.550381 19.0047 1.11963 19.942 1.80904C20.2231 2.01777 20.5168 2.23914 20.7292 2.51111C21.0792 2.95386 21.0729 3.4725 20.9417 4.01013C20.8417 4.40227 20.7105 4.81339 20.7168 5.21186C20.7168 6.00881 20.9917 6.72985 21.5165 7.3497C22.0789 8.00749 22.7912 8.36169 23.6285 8.50716C24.2033 8.60836 24.7032 9.03213 24.8219 9.77847C24.9156 10.373 24.9406 10.9802 24.9843 11.5811C25.0406 12.3464 24.9343 13.1054 24.8406 13.8644C24.7594 14.5475 24.4595 15.0219 23.8534 15.3001C23.6659 15.3824 23.4535 15.433 23.2473 15.4646C21.9539 15.6733 21.0042 16.7296 20.7043 17.9377C20.5168 18.6966 20.6855 19.405 20.9167 20.1198C21.1104 20.7143 20.8605 21.41 20.3856 21.7895C19.4858 22.4979 18.5299 23.1051 17.4926 23.5922C16.999 23.8262 16.4929 24.0159 15.9618 23.7566C15.7306 23.6428 15.4869 23.491 15.337 23.2949C14.8059 22.5991 14.1248 22.1437 13.275 21.9856C12.2566 21.7895 11.3193 22.0046 10.5383 22.7383C10.2384 23.0229 9.98843 23.3581 9.68852 23.6364C9.1949 24.0855 8.62006 24.0728 8.03897 23.8451C6.93302 23.4151 5.91455 22.8205 4.97105 22.1058C4.55242 21.7895 4.14003 21.4417 4.04006 20.8661C3.98382 20.5499 4.03381 20.2526 4.15253 19.9616C4.33998 19.5126 4.46494 19.0572 4.4337 18.5954L4.42121 18.5828ZM8.33264 11.9796C8.25766 14.187 10.1946 16.3438 12.7002 16.2046C14.4685 16.1097 16.924 14.5728 16.6179 11.4419C16.4304 9.52548 14.8121 7.75449 12.419 7.76714C10.1509 7.77347 8.31389 9.61403 8.32639 11.9796H8.33264Z" fill="#222222"/>
</svg>
