<svg width="36" height="38" viewBox="0 0 36 38" fill="none" xmlns="http://www.w3.org/2000/svg">
<path d="M35.9531 28.3966C35.557 28.9776 35.227 29.6034 34.7869 30.1398C32.6966 32.6206 30.1883 34.565 27.2619 35.9284C25.3036 36.8447 23.2793 37.5375 21.145 37.761C19.5388 37.9175 17.9105 38.0739 16.3263 37.9622C13.7079 37.7834 11.1776 37.0905 8.77924 35.9284C7.063 35.1014 5.45677 34.118 4.00457 32.8888C2.48635 31.5702 1.05615 30.1622 0 28.3742C0.132019 27.7708 0.176024 27.145 0.396056 26.5639C1.03415 24.843 1.82626 23.1891 2.90441 21.714C4.53264 19.4344 6.53492 17.5794 8.97727 16.2384C9.94541 15.702 10.9796 15.255 11.9917 14.7633C8.33918 10.5392 9.08729 5.44354 12.2117 2.35929C15.0281 -0.434404 19.6268 -0.859046 23.1033 1.68881C24.8195 2.94038 25.9197 4.68365 26.3157 6.78451C26.9098 9.8464 26.1617 12.5507 24.0714 14.6963C25.3916 15.3667 26.7338 15.9478 27.966 16.7301C31.2004 18.7415 33.5547 21.5799 35.117 25.1112C35.579 26.1392 36.0411 27.1897 35.9971 28.3742L35.9531 28.3966Z" fill="#F0380F"/>
</svg>
