<svg width="13" height="7" viewBox="0 0 13 7" fill="none" xmlns="http://www.w3.org/2000/svg">
<g clip-path="url(#clip0_250_1164)">
<path d="M6.51254 5.52663C6.57667 5.4446 6.61307 5.38401 6.6629 5.33619C8.36504 3.71542 10.0672 2.09423 11.7749 0.478814C11.8798 0.379474 12.0237 0.296209 12.1654 0.257462C12.3859 0.197281 12.6282 0.321766 12.7465 0.510966C12.8661 0.702639 12.8535 0.944189 12.7096 1.12144C12.6624 1.17956 12.6048 1.23067 12.5497 1.28302C10.7029 3.04023 8.85557 4.79703 7.00784 6.55383C6.6421 6.90173 6.3561 6.90297 5.99427 6.55878C4.1383 4.79332 2.28234 3.02828 0.426804 1.26323C0.384337 1.22284 0.340137 1.18409 0.302437 1.13998C0.111771 0.920282 0.125637 0.610306 0.332771 0.40874C0.544671 0.203052 0.878771 0.1878 1.1145 0.375352C1.16477 0.415335 1.20984 0.461502 1.25664 0.506019C2.9514 2.11773 4.6466 3.72943 6.34094 5.34155C6.38687 5.38607 6.42804 5.43553 6.51254 5.52663Z" fill="black"/>
</g>
<defs>
<clipPath id="clip0_250_1164">
<rect width="13" height="7" fill="white"/>
</clipPath>
</defs>
</svg>
