<svg width="24" height="23" viewBox="0 0 24 23" fill="none" xmlns="http://www.w3.org/2000/svg">
<path d="M0.885186 7.88477H23.6301V8.13117C23.6301 12.0927 23.6385 16.0559 23.62 20.0175C23.6167 20.6317 23.5864 21.2581 23.2321 21.8203C22.8174 22.4797 22.2313 22.8216 21.5093 22.9361C21.1466 22.9934 20.7721 22.9934 20.4027 22.9934C14.6917 22.9968 8.98234 23.0072 3.27134 22.9864C2.07239 22.9829 1.05143 21.9661 0.940599 20.8087C0.901977 20.4113 0.886864 20.0122 0.886864 19.6131C0.883506 15.8078 0.885186 12.0042 0.885186 8.19884C0.885186 8.1034 0.885186 8.00797 0.885186 7.8865V7.88477ZM8.20655 13.7568C7.84552 13.7568 7.56845 13.9667 7.41732 14.3155C7.25779 14.6851 7.38373 14.9836 7.62722 15.2386C8.38454 16.0316 9.16202 16.8056 9.91095 17.6072C10.4013 18.1313 10.8681 18.0046 11.2795 17.635C11.6456 17.307 12.01 16.9773 12.3794 16.6529C12.9184 16.1774 13.4642 15.7089 14.0032 15.23C14.4297 14.8517 14.8445 14.4613 15.271 14.0847C15.7848 13.6301 16.3104 13.1911 16.8209 12.733C17.0761 12.5057 17.1752 12.2176 17.0896 11.8602C16.9569 11.3032 16.2836 11.0342 15.8486 11.3864C15.585 11.5999 15.3398 11.8359 15.0846 12.0597C14.3088 12.7434 13.5313 13.4236 12.7555 14.1073C12.146 14.6469 11.5398 15.1901 10.9285 15.7297C10.6616 15.964 10.6565 15.964 10.4164 15.7089C9.9227 15.1883 9.43909 14.6573 8.93533 14.1455C8.73214 13.939 8.51888 13.7116 8.20319 13.755L8.20655 13.7568Z" fill="#222222"/>
<path d="M6.53172 1.68477C6.56355 1.25169 6.56355 0.893635 6.62219 0.544101C6.68418 0.175812 7.02092 0.0018972 7.50007 0.034293C7.83011 0.0564586 8.1032 0.330971 8.13335 0.668569C8.16016 0.980592 8.18361 1.29261 8.20874 1.61828H16.2906C16.2906 1.3557 16.2873 1.09312 16.2906 0.828843C16.2957 0.494654 16.5252 0.124661 16.7782 0.0394086C17.1183 -0.0765343 17.6041 0.0700989 17.7683 0.390647C17.8638 0.576497 17.8805 0.810088 17.9057 1.02492C17.9274 1.21759 17.9107 1.41538 17.9107 1.63192C18.8723 1.63192 19.8156 1.61146 20.7588 1.64044C21.2815 1.65579 21.826 1.67625 22.2951 1.95758C22.9233 2.33269 23.3975 2.86637 23.4729 3.62341C23.5683 4.59699 23.5817 5.57739 23.632 6.57143H0.889142C0.889142 5.77688 0.875739 4.98062 0.895844 4.18437C0.90422 3.87916 0.957831 3.56544 1.04495 3.27387C1.2862 2.4725 2.16911 1.68477 3.0738 1.68477C4.22476 1.68477 5.3774 1.68477 6.53004 1.68477H6.53172Z" fill="#222222"/>
</svg>
