<svg width="19" height="19" viewBox="0 0 19 19" fill="none" xmlns="http://www.w3.org/2000/svg">
<g clip-path="url(#clip0_250_1145)">
<path d="M15.5843 18.7245C11.5353 18.7245 7.48897 18.7245 3.43996 18.7245C3.40538 18.7139 3.37345 18.698 3.33887 18.6927C1.8012 18.4994 0.582777 17.4057 0.234275 15.9096C0.202351 15.7692 0.175748 15.6262 0.146484 15.4859C0.146484 11.9057 0.146484 8.32545 0.146484 4.74524C0.157126 4.71081 0.175748 4.67904 0.178408 4.64461C0.407196 2.95778 1.79588 1.65228 3.49583 1.53841C3.80974 1.51722 4.12632 1.53576 4.46152 1.53576C4.46152 1.28949 4.46152 1.08029 4.46152 0.868443C4.46418 0.420917 4.7648 0.0952031 5.17981 0.0899069C5.6028 0.0846107 5.91938 0.412973 5.92204 0.865795C5.9247 1.07764 5.92204 1.28684 5.92204 1.50663C8.31899 1.50663 10.7 1.50663 13.0943 1.50663C13.0943 1.28949 13.0943 1.08559 13.0943 0.881684C13.0969 0.423565 13.4002 0.092555 13.8205 0.0899069C14.2435 0.0872588 14.5521 0.415621 14.5548 0.871092C14.5574 1.08029 14.5548 1.29214 14.5548 1.51722C14.7782 1.51722 14.9778 1.51722 15.1773 1.51722C17.3215 1.50398 18.8592 3.19081 18.8672 5.06566C18.8778 8.43931 18.8778 11.813 18.8672 15.184C18.8618 16.8152 17.6913 18.2452 16.0924 18.6185C15.9302 18.6609 15.7572 18.69 15.5843 18.7245ZM1.60966 7.27151C1.60966 7.3483 1.60966 7.40656 1.60966 7.46747C1.60966 10.0043 1.60966 12.5385 1.60966 15.0754C1.60966 16.3227 2.54875 17.2654 3.80442 17.268C7.60868 17.2733 11.4129 17.2733 15.2172 17.268C16.4729 17.2654 17.412 16.3227 17.412 15.0754C17.4146 12.5385 17.412 10.0043 17.412 7.46747C17.412 7.40391 17.4066 7.34036 17.404 7.27151C12.1365 7.27151 6.88773 7.27151 1.60966 7.27151ZM4.46418 2.98956C2.24814 2.74858 1.38619 4.26329 1.64158 5.80182C6.89305 5.80182 12.1472 5.80182 17.3987 5.80182C17.6487 3.72573 16.2521 2.75388 14.5628 3.0028C14.5628 3.46621 14.5681 3.93492 14.5628 4.40099C14.5574 4.80879 14.2435 5.11597 13.8445 5.12127C13.4348 5.12656 13.1129 4.81674 13.1049 4.40363C13.0969 4.02761 13.1022 3.65158 13.1022 3.27555C13.1022 3.18022 13.1022 3.08754 13.1022 2.99221C10.6973 2.99221 8.31899 2.99221 5.93002 2.99221C5.93002 3.46886 5.93534 3.92963 5.93002 4.39039C5.9247 4.79555 5.6294 5.10538 5.241 5.12127C4.81269 5.1398 4.47482 4.82998 4.47216 4.39834C4.45886 3.92963 4.46418 3.46357 4.46418 2.98956Z" fill="black"/>
<path d="M5.20116 13.7007C5.43793 13.7007 5.6747 13.698 5.91413 13.7007C6.32914 13.7086 6.64838 14.029 6.64572 14.4289C6.64306 14.8208 6.3318 15.1465 5.92743 15.1518C5.44059 15.1597 4.95376 15.1597 4.46692 15.1518C4.05723 15.1439 3.73533 14.8076 3.74331 14.413C3.75129 14.0184 4.06521 13.7086 4.47224 13.698C4.71433 13.6954 4.95641 13.7007 5.20116 13.7007Z" fill="black"/>
<path d="M13.8414 13.7016C14.0782 13.7016 14.3149 13.6963 14.5544 13.7016C14.9667 13.7095 15.2886 14.0352 15.2833 14.4324C15.278 14.8244 14.964 15.1448 14.5597 15.1527C14.0728 15.1607 13.586 15.1607 13.0992 15.1527C12.6948 15.1448 12.3835 14.8217 12.3809 14.4298C12.3782 14.0299 12.6975 13.7095 13.1125 13.7016C13.3546 13.6963 13.5993 13.7016 13.8414 13.7016Z" fill="black"/>
<path d="M13.8362 9.40547C14.073 9.40547 14.3097 9.40283 14.5492 9.40547C14.9615 9.41342 15.2834 9.73384 15.2834 10.1337C15.2834 10.5309 14.9615 10.854 14.5465 10.8593C14.073 10.8646 13.5968 10.8646 13.1232 10.8593C12.7002 10.854 12.373 10.5256 12.381 10.1231C12.389 9.7206 12.7082 9.41342 13.1259 9.40547C13.3627 9.40283 13.5994 9.40547 13.8362 9.40547Z" fill="black"/>
<path d="M5.1848 10.8621C4.94804 10.8621 4.70861 10.8674 4.47184 10.8621C4.05949 10.8515 3.73759 10.5284 3.74025 10.1312C3.74291 9.73398 4.06481 9.41357 4.47982 9.40827C4.95336 9.40297 5.42955 9.40297 5.90309 9.40827C6.3181 9.41357 6.63734 9.72869 6.64266 10.1285C6.64532 10.5284 6.32874 10.8515 5.91373 10.8594C5.67164 10.8647 5.42689 10.8621 5.1848 10.8621Z" fill="black"/>
<path d="M9.51912 9.40665C9.75589 9.40665 9.99266 9.40135 10.2321 9.40665C10.6391 9.41459 10.9504 9.72442 10.9584 10.1216C10.9663 10.5215 10.6498 10.8525 10.2374 10.8578C9.75057 10.8657 9.26374 10.8657 8.7769 10.8578C8.37253 10.8499 8.05861 10.5268 8.05861 10.1349C8.05595 9.73501 8.37785 9.41459 8.7902 9.40665C9.03229 9.404 9.27704 9.40665 9.51912 9.40665Z" fill="black"/>
<path d="M9.50822 15.155C9.27145 15.155 9.03468 15.1603 8.79525 15.155C8.3829 15.1471 8.061 14.8293 8.05568 14.4321C8.05302 14.027 8.37758 13.7039 8.80323 13.7012C9.27145 13.6959 9.73966 13.6959 10.2079 13.7012C10.6362 13.7039 10.9581 14.0217 10.9554 14.4295C10.9528 14.8293 10.6362 15.1444 10.2185 15.155C9.98441 15.1603 9.74498 15.155 9.50822 15.155Z" fill="black"/>
</g>
<defs>
<clipPath id="clip0_250_1145">
<rect width="19" height="19" fill="white"/>
</clipPath>
</defs>
</svg>
