<svg width="53" height="54" viewBox="0 0 53 54" fill="none" xmlns="http://www.w3.org/2000/svg">
<path d="M34.7728 0.382238C35.2918 0.566284 35.8414 0.688982 36.3299 0.903702C38.5893 1.85461 40.0243 3.5417 40.4517 6.02633C40.8181 8.08151 40.2685 9.86062 39.0778 11.517C39.0167 11.6091 38.8946 11.7011 38.8335 11.7624C35.1392 15.474 31.4143 19.2163 27.7199 22.9279C26.8345 23.8175 26.0712 23.8175 25.1858 22.9279C21.5525 19.2777 17.9192 15.6274 14.2859 11.9772C13.2478 10.9342 12.6371 9.6459 12.3929 8.17353C11.9044 5.22879 13.6447 2.2227 16.1483 1.05707C16.7284 0.781004 17.3696 0.596958 18.0108 0.382238C18.6519 0.382238 19.3236 0.382238 19.9648 0.382238C20.0259 0.412912 20.0564 0.47426 20.1175 0.47426C21.7051 0.750329 23.018 1.45584 24.1171 2.62147C24.7583 3.2963 25.4605 3.97114 26.1323 4.64598C26.3765 4.89137 26.5292 4.89137 26.7429 4.64598C27.5062 3.84844 28.239 3.05091 29.0633 2.3454C29.674 1.82394 30.3762 1.39449 31.109 0.995725C31.6585 0.688981 32.2997 0.566283 32.9103 0.351562C33.521 0.351562 34.1621 0.351562 34.7728 0.351562V0.382238Z" fill="#BC2D0D"/>
<path d="M52.9997 52.5915C52.9997 52.5915 52.8471 52.7141 52.786 52.8062C52.4196 53.3276 51.9616 53.6651 51.2594 53.6651C47.3819 53.6651 43.5348 53.6651 39.6573 53.6651H39.2604C39.5962 50.4136 39.4436 47.1621 39.3825 43.9413C39.3214 41.702 38.3749 39.7696 36.6652 38.2972C35.9629 37.7144 35.1386 37.2849 34.3447 36.7941C34.5279 36.4261 34.65 35.9046 34.9554 35.5672C35.2912 35.1991 35.8103 34.9844 36.2682 34.7696C36.7873 34.4936 37.2147 34.4629 37.7643 34.923C38.9245 35.9353 40.3595 36.5487 41.8861 36.7021C43.3822 36.8555 44.8782 36.7941 46.2522 36.1193C47.1987 35.6592 48.1146 35.1071 49.2443 34.4629C49.7939 34.8003 50.5877 35.2298 51.3205 35.7512C52.0838 36.3034 52.4807 37.1622 52.7555 38.0518C52.8165 38.2358 52.8776 38.4199 52.9692 38.6039V52.6528L52.9997 52.5915Z" fill="#672001"/>
<path d="M3.53818 0.382238C4.72893 0.965051 5.91967 1.57854 7.11042 2.16135C7.78212 2.49877 8.20956 3.26563 8.0569 3.84844C7.84318 4.67665 7.20201 5.16744 6.34712 5.13677C6.19446 5.13677 6.01127 5.07542 5.85861 5.01407C4.78999 4.49261 3.75191 3.94047 2.68329 3.419C2.10318 3.14293 1.70627 2.74417 1.67574 2.03865C1.6452 1.27179 1.98106 0.75033 2.68329 0.443586C2.68329 0.443586 2.68329 0.382237 2.71382 0.351562C2.98861 0.351562 3.2634 0.351562 3.53818 0.351562V0.382238Z" fill="#BC2D0D"/>
<path d="M50.0994 0.382238C50.0994 0.382238 50.1605 0.47426 50.191 0.47426C50.7406 0.658306 51.1375 0.995725 51.2291 1.57854C51.3207 2.31472 51.168 2.92821 50.4352 3.2963C49.275 3.87912 48.1148 4.46193 46.9546 5.04474C46.2829 5.38216 45.2754 4.95272 45.0311 4.24721C44.6952 3.32698 45.0006 2.59079 45.8555 2.13068C47.0157 1.54786 48.2064 0.96505 49.3666 0.351562C49.6109 0.351562 49.8551 0.351562 50.0994 0.351562V0.382238Z" fill="#BC2D0D"/>
<path d="M13.736 53.6341C9.61416 53.6341 5.49235 53.6341 1.37054 53.6341C0.698842 53.6341 0.0271395 52.8979 0.0271395 52.2844C0.0271395 47.7753 -0.0339243 43.2355 0.0271395 38.7264C0.0576714 37.0086 1.30948 35.4749 3.08033 34.708C3.66044 34.4626 4.05735 34.5546 4.57639 34.9534C6.37778 36.3644 8.48448 36.9166 10.7438 36.6712C12.4842 36.4871 14.0413 35.7816 15.4152 34.6773C15.5679 34.5546 15.9037 34.4933 16.1175 34.5853C16.6976 34.8307 17.3387 35.0761 17.8272 35.5056C18.1936 35.8123 18.3463 36.3338 18.5905 36.7632C17.9494 37.1313 17.3693 37.4687 16.8197 37.8368C15.0794 39.0331 14.0718 40.7202 13.6749 42.7754C13.5833 43.2969 13.5528 43.849 13.5222 44.4011C13.5222 47.1618 13.5222 49.9532 13.5222 52.7139C13.5222 53.0206 13.6138 53.3274 13.6749 53.6341H13.736Z" fill="#672001"/>
<path d="M26.4069 53.6344C23.6896 53.6344 20.9723 53.6344 18.2244 53.6344C17.2779 53.6344 16.6367 53.0515 16.6367 52.1006C16.6367 49.2479 16.6367 46.3952 16.6673 43.5425C16.6673 42.7143 17.0947 41.9474 17.6137 41.3032C18.2854 40.4444 19.2014 39.8615 20.209 39.5241C20.3921 39.4628 20.6669 39.5855 20.8196 39.7082C22.1935 40.7818 23.7201 41.4566 25.4604 41.6713C27.5977 41.9474 29.5212 41.3339 31.3226 40.199C31.5058 40.1069 31.6889 40.0149 31.8111 39.8616C32.1775 39.4014 32.5133 39.4935 33.0018 39.6775C35.1391 40.475 36.2687 42.1621 36.3298 44.432C36.3603 46.9473 36.3298 49.4626 36.3298 51.9779C36.3298 52.8675 35.5054 53.665 34.6505 53.6344C31.9027 53.6344 29.1243 53.6344 26.3764 53.6344H26.4069Z" fill="#BC2D0D"/>
<path d="M48.7565 27.8363C48.8786 31.0571 46.1002 33.3884 43.4744 33.5724C39.9327 33.7871 37.2765 30.8731 37.3986 27.6523C37.5207 24.7075 39.7495 22.1615 43.047 22.1309C46.2223 22.1309 48.8786 24.6155 48.787 27.8363H48.7565Z" fill="#672001"/>
<path d="M9.76665 33.5724C6.80506 33.7258 3.874 30.8731 4.14878 27.4375C4.36251 24.6155 6.62187 22.1309 9.82772 22.1309C12.942 22.1309 15.6593 24.6155 15.5372 28.143C15.4456 31.0571 12.7588 33.6951 9.76665 33.5724Z" fill="#672001"/>
<path d="M26.437 27.2228C29.826 27.1001 32.177 29.7994 32.177 32.8362C32.177 36.057 29.6429 38.3576 26.8645 38.5416C22.9869 38.8177 20.7275 35.6276 20.7275 32.8975C20.7275 29.8914 23.0174 27.0694 26.4065 27.2228H26.437Z" fill="#BC2D0D"/>
<path d="M51.2294 15.3527C51.3515 16.5797 50.0081 17.1625 49.0311 16.7024C47.9014 16.1809 46.8023 15.5981 45.7031 15.046C45.0009 14.7085 44.6956 13.7883 45.0009 13.0828C45.3367 12.2853 46.1306 11.8865 46.8939 12.2239C48.2067 12.8067 49.5196 13.4816 50.7714 14.1871C51.0767 14.3711 51.1683 14.8926 51.3515 15.2914L51.2294 15.3527Z" fill="#BC2D0D"/>
<path d="M3.17178 16.8549C2.46954 16.8243 1.8589 16.3642 1.67571 15.7507C1.49252 15.0758 1.82837 14.2476 2.46954 13.9102C3.53816 13.3581 4.60678 12.7752 5.70592 12.2845C6.59135 11.8857 7.75156 12.1004 8.02635 13.3887C8.14848 13.9409 7.87369 14.6771 7.35465 14.9531C6.1639 15.5666 4.97316 16.1494 3.75188 16.7322C3.56869 16.8243 3.35497 16.8243 3.17178 16.8549Z" fill="#BC2D0D"/>
</svg>
