<svg width="39" height="41" viewBox="0 0 39 41" fill="none" xmlns="http://www.w3.org/2000/svg">
<path d="M20.1801 19.7176C19.9936 19.7823 19.8776 19.8081 19.7698 19.8642C18.5141 20.502 17.2667 21.1658 15.9985 21.7692C14.5066 22.4804 12.9856 23.1312 11.4812 23.8122C10.4286 24.2863 9.39249 24.7949 8.33154 25.2388C6.20137 26.1267 4.19967 25.894 2.34302 24.4415C1.12459 23.4889 0.415917 22.2045 0.225279 20.6744C0.0346406 19.1401 0.420061 17.7048 1.33181 16.4463C2.20211 15.2437 3.32522 14.3904 4.71356 13.9938C5.49269 13.7697 6.30498 13.7352 7.1297 13.8516C8.20307 14.0024 9.17284 14.3516 10.0349 15.0239C10.843 15.6532 11.4854 16.4204 11.8418 17.416C11.8915 17.5583 11.9702 17.6919 12.0531 17.8643C12.8364 17.4893 13.6072 17.1316 14.3698 16.7566C15.0205 16.4376 15.294 16.5497 15.5302 17.2738C16.2596 16.9376 16.9849 16.6014 17.7101 16.2652C17.9505 16.1532 18.1826 16.0239 18.4271 15.9334C18.9948 15.7222 19.3513 15.317 19.6787 14.7869C22.0409 10.9768 24.4405 7.19252 26.8317 3.39965C27.2876 2.67556 27.7145 1.92991 28.2242 1.25323C28.6594 0.675678 29.2852 0.317942 29.998 0.25329C30.7688 0.184329 31.5438 0.22312 32.2774 0.554996C32.7084 0.74895 32.7871 0.912733 32.584 1.37391C32.0328 2.6109 31.4816 3.85221 30.9387 5.09351C30.2508 6.66669 29.5753 8.24849 28.8956 9.82598C28.7008 10.2785 28.5019 10.7268 28.274 11.2569C28.6718 11.0759 29.0241 10.9164 29.3763 10.7526C30.9595 10.0156 32.5384 9.28291 34.1174 8.54157C35.025 8.11488 35.9285 7.67525 36.8361 7.23993C37.1759 7.07615 37.5241 6.92529 37.8597 6.75289C38.1789 6.59342 38.4565 6.68824 38.5643 6.99426C38.8668 7.83041 39.0367 8.70105 38.8544 9.59324C38.6472 10.6147 38.0214 11.3086 37.1884 11.869C34.8095 13.4637 32.4556 15.1015 30.085 16.7092C28.2615 17.9462 26.4339 19.1875 24.5855 20.3814C24.2747 20.5839 24.1089 20.8081 23.9722 21.127C23.4956 22.2433 23.0024 23.351 22.5217 24.4501C22.5507 24.4932 22.5631 24.5277 22.5838 24.5363C23.4748 24.9759 23.2759 25.0837 22.9609 25.8078C22.6294 26.5793 22.2771 27.3421 21.929 28.1137C22.3807 28.3636 22.8656 28.5791 23.2925 28.8808C24.6187 29.8204 25.4102 31.1221 25.7211 32.7685C26.0567 34.5357 25.7418 36.152 24.7803 37.626C23.8105 39.113 22.5051 40.1043 20.7645 40.4103C19.0404 40.712 17.5609 40.1905 16.2679 39.0095C15.2401 38.0742 14.6475 36.8674 14.4071 35.4968C14.1999 34.3331 14.3284 33.1608 14.7801 32.066C15.8493 29.4886 16.931 26.9154 18.0417 24.3553C18.684 22.8726 19.3886 21.4244 20.0682 19.959C20.0931 19.9073 20.1138 19.8512 20.176 19.7176H20.1801ZM37.8514 7.89075C37.752 7.91661 37.6401 7.92954 37.5448 7.97695C35.4478 8.95103 33.3466 9.92942 31.2496 10.9121C29.8571 11.5629 28.4729 12.231 27.0845 12.8861C24.8549 13.9421 22.6253 14.9938 20.3956 16.0454C19.1523 16.6316 17.9173 17.235 16.6699 17.8126C15.9115 18.1617 15.899 18.1487 16.1809 18.9375C16.3508 19.4116 16.5373 19.8771 16.7238 20.3598C17.9463 19.7262 19.115 19.1228 20.2796 18.5108C20.5863 18.3513 20.8639 18.3427 21.1706 18.5323C21.7301 18.8815 22.3061 19.2004 22.8781 19.5237C23.3671 19.7995 23.8644 19.778 24.3203 19.4719C26.1977 18.2134 28.0667 16.9376 29.9358 15.6618C32.2152 14.1059 34.4697 12.5155 36.7739 10.9983C37.7064 10.3863 38.3073 9.26567 37.8514 7.89075ZM19.1316 24.1915C18.9824 24.5363 18.8457 24.8509 18.713 25.1656C17.7598 27.4154 16.8149 29.6696 15.8452 31.9108C15.5012 32.7039 15.2525 33.5271 15.265 34.3891C15.2815 35.8761 15.7872 37.1777 16.844 38.2251C17.8717 39.2466 19.1067 39.7164 20.4909 39.5009C21.9207 39.2768 23.106 38.5268 23.9514 37.251C25.0455 35.5959 25.232 33.8245 24.5565 31.9798C23.9929 30.4411 22.8988 29.4282 21.3364 29.036C20.8681 28.9196 20.7106 28.6696 20.9012 28.2085C21.0919 27.7473 21.3074 27.2904 21.5104 26.8336C21.7177 26.3681 21.9207 25.8983 22.1362 25.4069C21.1292 25.0018 20.1511 24.6052 19.1358 24.1958L19.1316 24.1915ZM15.87 20.7779C15.5426 19.9073 15.2235 19.0582 14.9003 18.2091C14.7621 17.8413 14.5176 17.7407 14.1667 17.9074C13.4415 18.2565 12.7162 18.6099 11.9868 18.9547C11.5807 19.1487 11.2989 19.0194 11.216 18.5798C11.0336 17.6229 10.5819 16.8299 9.89395 16.1704C8.53876 14.8731 6.92248 14.5455 5.18187 14.886C3.87641 15.1403 2.86106 15.9377 2.08193 17.0497C1.33595 18.1143 0.987831 19.3125 1.14946 20.6141C1.3028 21.8554 1.91201 22.8855 2.84863 23.6743C3.73551 24.4199 4.78402 24.8121 5.90712 24.8251C6.86446 24.8337 7.77206 24.4889 8.64651 24.0794C9.86494 23.5105 11.0917 22.9717 12.3101 22.4157C13.4954 21.8727 14.6765 21.3253 15.8659 20.7779H15.87ZM20.752 14.8084C21.2203 14.5929 21.585 14.4335 21.9415 14.2654C23.5536 13.5068 25.1657 12.7525 26.7696 11.981C26.9105 11.9121 27.0348 11.7483 27.1094 11.5974C27.3373 11.119 27.5321 10.6233 27.7435 10.1363C28.7588 7.81317 29.7742 5.48573 30.7895 3.16259C31.0548 2.55918 31.3117 1.95577 31.606 1.27478C31.1211 1.24892 30.715 1.21875 30.313 1.21444C29.6664 1.20151 29.1733 1.52476 28.8086 2.0549C28.3776 2.68418 27.9756 3.33931 27.5694 3.98582C25.862 6.70117 24.1587 9.41652 22.4512 12.1276C21.9083 12.9896 21.3612 13.8473 20.7479 14.8084H20.752ZM23.1226 20.752C22.588 20.446 22.0782 20.1745 21.585 19.8728C21.3447 19.7262 21.2121 19.7392 21.0836 20.0193C20.578 21.1141 20.0516 22.1959 19.5253 23.2993C20.2381 23.5881 20.9344 23.8682 21.6472 24.157C22.1611 22.976 22.6501 21.8382 23.1226 20.752Z" fill="#010101"/>
<path d="M37.8558 7.89062C38.3117 9.26554 37.7107 10.3819 36.7783 10.9982C34.474 12.5153 32.2195 14.1058 29.9402 15.6617C28.0711 16.9375 26.202 18.209 24.3246 19.4718C23.8688 19.7778 23.3673 19.7994 22.8824 19.5235C22.3105 19.2003 21.7344 18.8813 21.175 18.5322C20.8683 18.3426 20.5906 18.3512 20.2839 18.5107C19.1194 19.1227 17.9507 19.7218 16.7281 20.3597C16.5416 19.877 16.3551 19.4115 16.1852 18.9374C15.9034 18.1486 15.9158 18.1659 16.6742 17.8124C17.9217 17.2349 19.1567 16.6358 20.4 16.0453C22.6296 14.9893 24.8592 13.9377 27.0889 12.886C28.4772 12.2309 29.8614 11.5628 31.2539 10.912C33.3509 9.92929 35.448 8.95091 37.5491 7.97683C37.6444 7.93373 37.7563 7.91649 37.8558 7.89062ZM25.9533 16.7134C25.9533 15.7608 25.4146 15.166 24.5526 15.166C23.6698 15.166 23.1103 15.7393 23.073 16.597C23.0357 17.4676 23.7237 18.1917 24.4987 18.2219C25.1949 18.2477 26.1067 17.4547 25.9492 16.7134H25.9533Z" fill="#E2E2E2"/>
<path d="M23.1266 20.7529C22.6582 21.8391 22.1651 22.9769 21.6512 24.1579C20.9384 23.8691 20.238 23.589 19.5293 23.3002C20.0556 22.1968 20.582 21.115 21.0876 20.0202C21.216 19.7401 21.3486 19.7271 21.589 19.8737C22.0822 20.1754 22.5919 20.4512 23.1266 20.7529Z" fill="#D2D2D2"/>
<path d="M25.9533 16.7133C26.1066 17.4547 25.199 18.2477 24.5028 18.2219C23.7237 18.1917 23.0398 17.4676 23.0771 16.597C23.1144 15.7393 23.6739 15.166 24.5567 15.166C25.4187 15.166 25.9574 15.7651 25.9574 16.7133H25.9533ZM24.5069 16.1315C24.1754 16.1315 24.0179 16.3168 24.0138 16.653C24.0096 16.9375 24.2748 17.2607 24.5152 17.265C24.739 17.265 25.0996 16.903 25.0996 16.6702C25.0996 16.3728 24.8385 16.1358 24.5111 16.1315H24.5069Z" fill="#010101"/>
<path d="M16.9476 34.3812C16.9766 32.9114 17.5983 31.7822 18.8208 31.0581C20.433 30.1013 22.3684 30.8986 23.048 32.6399C23.765 34.4803 22.8408 36.7086 21.2535 37.4456C20.0185 38.0189 18.8996 37.8723 17.9257 36.9241C17.2418 36.256 16.9144 35.3811 16.9476 34.3812ZM19.9315 36.7819C20.5573 36.7819 21.3406 36.3983 21.6638 35.95C22.186 35.2259 22.4512 34.4458 22.3186 33.5105C22.099 31.9848 20.491 31.0926 19.1814 31.9373C18.2489 32.5408 17.8303 33.4502 17.8842 34.6096C17.9422 35.769 18.8084 36.8465 19.9315 36.7776V36.7819Z" fill="#010101"/>
<path d="M2.83227 19.9685C2.74524 18.2919 4.22476 16.7575 5.77059 16.5247C6.75693 16.3782 7.64796 16.542 8.46853 17.1626C9.56263 17.9858 9.95219 19.4987 9.40514 20.8046C8.79179 22.2744 7.19623 23.2614 5.6504 23.0502C4.25377 22.8605 3.28815 22.1149 2.86543 20.6064C2.80741 20.4081 2.84056 20.1797 2.83227 19.9642V19.9685ZM6.23475 22.102C6.99316 22.0847 7.85932 21.6451 8.39393 20.6969C8.60944 20.3133 8.77106 19.7831 8.70476 19.3608C8.47682 17.9169 7.49876 17.4773 6.41295 17.4298C5.70428 17.3997 5.04533 17.6583 4.51901 18.1539C3.99682 18.6453 3.67357 19.3047 3.71501 20.0288C3.78132 21.227 4.77595 22.0977 6.23475 22.0977V22.102Z" fill="#010101"/>
<path d="M24.5066 16.127C24.834 16.127 25.0951 16.364 25.0951 16.6657C25.0951 16.8985 24.7387 17.2648 24.5108 17.2605C24.2746 17.2605 24.0052 16.9329 24.0093 16.6485C24.0135 16.3123 24.171 16.1313 24.5025 16.127H24.5066Z" fill="#AFAFAF"/>
<path d="M19.9358 36.7855C18.8127 36.8544 17.9466 35.7769 17.8885 34.6175C17.8305 33.4581 18.2532 32.5486 19.1857 31.9452C20.4953 31.0962 22.1033 31.9926 22.323 33.5184C22.4556 34.4537 22.1903 35.2295 21.6682 35.9579C21.3449 36.4062 20.5616 36.7898 19.9358 36.7898V36.7855Z" fill="#FEFEFE"/>
<path d="M6.23469 22.1005C4.77589 22.1005 3.78126 21.2299 3.71495 20.0317C3.67351 19.3076 4.00091 18.6481 4.51895 18.1568C5.04527 17.6611 5.70422 17.3982 6.41289 17.4327C7.4987 17.4801 8.47676 17.9197 8.7047 19.3636C8.77101 19.786 8.60938 20.3161 8.39387 20.6997C7.85511 21.6523 6.98895 22.0919 6.23469 22.1048V22.1005Z" fill="white"/>
<path d="M20.7563 14.809C21.3656 13.8479 21.9168 12.9902 22.4597 12.1281C24.1671 9.41279 25.8704 6.69744 27.5779 3.9864C27.984 3.33988 28.386 2.68475 28.817 2.05548C29.1776 1.52534 29.6708 1.20639 30.3214 1.21501C30.7276 1.22363 31.1295 1.2538 31.6144 1.27536C31.3202 1.95635 31.0591 2.55976 30.798 3.16317C29.7827 5.4863 28.7673 7.81375 27.7519 10.1369C27.5406 10.6239 27.3417 11.1196 27.1179 11.598C27.0474 11.7488 26.9189 11.9126 26.778 11.9816C25.1742 12.7531 23.562 13.5074 21.9499 14.2659C21.5894 14.434 21.2288 14.5935 20.7605 14.809H20.7563Z" fill="#D2D2D2"/>
</svg>
