<svg width="23" height="24" viewBox="0 0 23 24" fill="none" xmlns="http://www.w3.org/2000/svg">
<path d="M22.9908 14.7457C22.9908 16.095 22.9969 17.4464 22.9908 18.7956C22.9827 20.1385 22.6247 21.3503 21.7467 22.3697C21.0265 23.205 20.1708 23.8078 19.0865 23.9051C18.1357 23.9896 17.1748 23.977 16.218 23.9812C15.9125 23.9812 15.5889 23.9579 15.3056 23.8522C14.4196 23.5223 13.8269 22.7356 13.7824 21.7818C13.7217 20.4875 13.8026 19.1869 13.7965 17.8884C13.7925 17.2433 13.663 16.6279 13.2948 16.0759C12.6091 15.0503 11.1546 14.7267 10.1674 15.5409C9.5099 16.0844 9.20039 16.7908 9.19634 17.6557C9.19027 19.0156 9.21253 20.3754 9.17409 21.7331C9.13768 22.947 8.16666 23.9474 7.02572 23.9748C6.01223 24.0002 4.99468 24.0214 3.98321 23.96C3.24079 23.9156 2.5631 23.5794 1.96431 23.1078C0.983183 22.3358 0.366184 21.3123 0.0930866 20.0709C0.0141917 19.7135 0.00812281 19.3349 0.00609987 18.9669C3.10312e-05 16.1732 0.010146 13.3774 3.1278e-05 10.5837C-0.00401461 9.30637 0.38439 8.18551 1.19964 7.25076C1.61232 6.77915 2.10592 6.38368 2.5712 5.96494C3.01827 5.56101 3.47545 5.16976 3.93264 4.77641C4.50311 4.28577 5.07965 3.79936 5.65012 3.3066C6.11944 2.90055 6.58067 2.48393 7.05404 2.08211C7.6852 1.54706 8.27388 0.948562 9.02439 0.584811C9.58677 0.311998 10.1694 0.128008 10.7924 0.047644C12.1943 -0.132117 13.4728 0.197797 14.6259 1.02047C15.1539 1.39691 15.6334 1.85159 16.131 2.27456C16.7197 2.77366 17.3043 3.27488 17.8889 3.78032C18.338 4.16734 18.7831 4.56069 19.2322 4.94771C19.831 5.46373 20.4298 5.97551 21.0306 6.4873C21.9874 7.30151 22.6631 8.30183 22.8694 9.59399C22.9443 10.0656 22.9847 10.5499 22.9908 11.03C23.007 12.2671 22.9969 13.5043 22.9969 14.7436L22.9908 14.7457Z" fill="#222222"/>
</svg>
