<svg width="26" height="32" viewBox="0 0 26 32" fill="none" xmlns="http://www.w3.org/2000/svg">
<path d="M5.79208 10.5986C5.79208 9.66424 5.74703 8.67224 5.80495 7.69304C5.84357 7.05304 5.97872 6.40664 6.15891 5.78584C6.51287 4.58904 7.18218 3.56504 8.09604 2.71384C9.14505 1.73464 10.3871 1.11384 11.8158 0.877036C13.3475 0.621036 14.8084 0.825836 16.2114 1.45304C16.9257 1.77304 17.5564 2.22744 18.1292 2.77784C18.8243 3.44984 19.3649 4.21144 19.7703 5.08184C20.0599 5.71544 19.8153 6.24664 19.3713 6.50904C18.7921 6.84824 18.1356 6.67544 17.8074 5.98424C17.0545 4.38424 15.851 3.36024 14.0876 3.03384C12.4916 2.73944 11.0693 3.06584 9.80149 4.10904C8.82971 4.90904 8.30842 5.95864 8.02525 7.14264C7.98664 7.31544 8.01238 7.50104 8.01238 7.68024C8.01238 8.67224 8.01238 9.67064 8.01238 10.7074H8.37278C12.4658 10.7074 16.5589 10.701 20.652 10.7074C21.7653 10.7074 22.7693 11.0402 23.6317 11.7954C24.346 12.429 24.7965 13.197 25.0153 14.1058C25.099 14.445 25.1119 14.8098 25.1119 15.1554C25.1183 18.893 25.1183 22.6242 25.1119 26.3618C25.1119 27.6994 24.6485 28.8578 23.6317 29.7474C23.0074 30.285 22.2866 30.6754 21.4371 30.7522C21.1153 30.7778 20.8 30.8162 20.4782 30.8162C15.304 30.8162 10.1297 30.829 4.96188 30.8162C4.12525 30.8162 3.38515 30.445 2.72228 29.9458C1.95644 29.3698 1.42872 28.6146 1.19703 27.6866C1.1005 27.3026 1.05545 26.9058 1.05545 26.509C1.04901 22.6498 1.06832 18.7906 1.04258 14.9314C1.02971 13.1714 2.30396 11.4434 3.93862 10.957C4.54357 10.7778 5.1807 10.7202 5.80495 10.605L5.79208 10.5986ZM13.0064 28.6658C15.5936 28.6658 18.1807 28.6722 20.7678 28.6658C21.0317 28.6658 21.3149 28.6082 21.5658 28.5058C22.5312 28.109 22.9495 27.3538 22.9559 26.3426C22.9559 22.6178 22.9559 18.893 22.9495 15.1682C22.9495 14.8482 22.9045 14.4962 22.7757 14.2082C22.3703 13.2802 21.6173 12.845 20.6005 12.845C16.5396 12.845 12.4787 12.845 8.42426 12.845C7.41386 12.845 6.39703 12.8514 5.38664 12.845C4.12525 12.8322 3.19208 13.8626 3.19852 15.0274C3.22426 18.765 3.20495 22.4962 3.20495 26.2338C3.20495 26.4706 3.20495 26.701 3.2307 26.9378C3.32723 27.789 4.29258 28.6786 5.21931 28.6786C7.81931 28.6786 10.4129 28.6786 13.0129 28.6786L13.0064 28.6658Z" fill="white"/>
<path d="M11.9959 23.5782C11.9959 23.399 11.9895 23.2198 11.9959 23.0406C12.0216 22.503 11.9573 22.0614 11.5261 21.607C10.9791 21.0374 10.9597 20.263 11.3459 19.5398C11.732 18.823 12.3563 18.4838 13.1607 18.5414C13.9652 18.599 14.6023 19.0022 14.8662 19.7702C15.1172 20.4998 15.0399 21.2294 14.4157 21.7926C14.2162 21.9718 14.139 22.1574 14.1518 22.4262C14.1711 23.1174 14.1711 23.815 14.1518 24.5062C14.1454 24.8838 14.0682 25.2358 13.7399 25.4982C13.4117 25.767 12.9934 25.8822 12.6137 25.6838C12.2533 25.4918 11.9895 25.2038 11.9959 24.7494C12.0023 24.359 11.9959 23.9686 11.9959 23.5782Z" fill="white"/>
</svg>
