<svg width="238" height="149" viewBox="0 0 238 149" fill="none" xmlns="http://www.w3.org/2000/svg">
<path d="M213.133 60.6586V17.9976C213.133 17.417 213.133 16.8365 213.133 16.2559C213.133 15.4431 213.504 15.1876 214.316 15.2805C217.169 15.6521 219.929 17.9512 220.556 20.8076C220.881 22.2242 220.95 23.7337 220.95 25.1968C220.95 49.1864 220.881 73.1991 220.881 97.1887C220.881 98.7447 220.927 100.324 221.112 101.88C221.669 106.85 226.193 110.565 231.11 110.194C231.969 110.124 232.757 109.915 232.108 108.824C230.762 106.617 230.6 104.202 230.6 101.694C230.623 78.3779 230.623 55.0386 230.6 31.7225C230.6 29.8879 230.438 28.0533 230.136 26.2418C229.115 19.9019 223.293 13.6781 216.96 12.8653C212.274 12.2615 207.496 12.4705 202.741 12.3776C201.72 12.3544 201.418 12.9582 201.998 13.9336C203.297 16.1165 203.506 18.4853 203.506 20.9237C203.506 46.8873 203.506 72.874 203.506 98.8376C203.506 100.417 203.622 101.996 203.39 103.529C203.135 105.224 202.648 106.919 202.068 108.522C201.627 109.752 201.604 110.124 202.949 110.147C206.591 110.24 210.233 110.194 213.875 110.17C214.78 110.17 215.128 109.52 214.641 108.8C212.994 106.269 213.133 103.413 213.133 100.603C213.11 87.2724 213.133 73.9655 213.133 60.6354V60.6586Z" fill="#121212"/>
<path d="M20.2743 64.6529H20.2511C20.2511 51.6944 20.2511 38.7126 20.2511 25.7541C20.2511 24.1981 20.3903 22.619 20.6686 21.0862C21.179 18.2762 23.661 15.9539 26.4447 15.4198C28.0221 15.1179 28.1148 15.1875 28.1148 16.8364C28.1612 22.7119 28.2076 28.5873 28.1844 34.4628C28.1844 37.505 28.3004 40.5705 26.5606 43.334C26.1431 43.9843 26.5143 44.5417 27.2334 44.5184C28.4164 44.5184 29.669 44.5649 30.7825 44.1933C34.8419 42.7999 37.44 40.0364 37.6024 35.5775C37.7879 30.9096 37.6256 26.265 37.7184 21.5971C37.7647 18.9033 37.8807 16.2094 39.3653 13.8174C39.8525 13.0278 39.5277 12.3543 38.5302 12.3775C33.7981 12.4937 28.9963 12.2846 24.3106 12.9117C17.6762 13.7942 11.9698 19.9251 11.1115 26.6366C10.7172 29.7717 10.6708 32.9765 10.6708 36.1581C10.6476 58.4523 10.6708 80.7466 10.6244 103.041C10.6244 104.759 10.0445 106.548 9.41816 108.173C8.79184 109.776 8.88463 110.286 10.6012 110.263C14.6375 110.217 18.6969 110.24 22.71 109.938C30.1562 109.381 36.8137 102.809 37.4864 95.3075C37.7879 92.0563 37.5328 88.7586 37.7879 85.5074C37.9503 83.5798 38.507 81.6523 39.1566 79.8409C39.6437 78.4475 39.5277 77.8902 38.0199 77.9134C35.7002 77.9598 33.5893 78.6797 31.7568 80.1892C29.1123 82.349 28.1612 85.2055 28.1148 88.5032C28.0684 92.3582 28.138 96.2132 28.0221 100.068C27.9061 103.412 25.7024 106.153 22.5708 107.105C20.6918 107.686 20.2279 107.36 20.2279 105.433C20.2279 91.8473 20.2279 78.2617 20.2279 64.6529H20.2743Z" fill="#121212"/>
<path d="M55.4407 71.8071V70.344C55.4407 53.6465 55.4407 36.9723 55.4407 20.2748C55.4407 18.0454 55.8351 15.9088 56.9253 13.9349C57.5516 12.7969 57.2733 12.3789 56.0206 12.3325C54.0025 12.2628 52.1468 12.7737 50.4302 13.8187C47.1362 15.8624 45.7908 18.9511 45.814 22.7829C45.8372 32.0257 45.814 41.2686 45.814 50.5114C45.814 67.9984 45.8372 85.5087 45.7444 102.996C45.7444 104.714 45.2109 106.526 44.5382 108.151C43.8191 109.87 43.8423 110.218 45.7676 110.265C48.8296 110.334 51.8916 110.358 54.9536 110.358C55.4407 110.358 55.951 110.311 56.415 110.195C57.1341 110.009 57.5516 109.591 57.0413 108.825C55.6959 106.688 55.3943 104.32 55.3943 101.858C55.3943 94.2871 55.3943 86.6931 55.3943 79.1224C55.3943 78.6811 55.4407 78.2167 55.4871 77.7522L55.8583 77.6128C56.6933 80.1674 58.7579 81.5144 60.7296 82.9542C62.3534 84.1386 62.9101 85.8571 63.0957 87.7149C63.2349 89.2709 63.2349 90.8501 63.2581 92.4292C63.2813 95.0767 63.2117 97.7241 63.2581 100.372C63.3509 103.971 64.9746 106.804 67.8974 108.848C68.547 109.312 69.1733 109.591 69.7996 108.639C71.9182 105.419 72.9776 101.842 72.9776 97.9099C72.9776 97.0042 72.9776 96.1217 72.908 95.216C72.7688 92.3828 72.4208 89.596 71.0058 87.0415C69.2893 83.9296 66.5056 82.0485 63.5596 80.33C61.7967 79.3081 60.0337 78.2399 58.3635 77.0787C57.7372 76.6375 57.3661 75.8479 56.8325 75.1744C59.013 74.3152 59.6162 73.572 59.245 72.5037C58.7811 71.2265 57.6676 70.9478 55.4407 71.7838V71.8071Z" fill="#121212"/>
<path d="M25.2845 80.0736C25.8412 79.4698 26.2123 79.0982 26.5371 78.7035C29.9934 74.5001 34.3776 72.5261 39.8057 73.2692C40.9655 73.4318 41.0351 72.8048 41.0351 71.9455C41.0351 62.4937 41.0351 53.0186 41.0351 43.5668C41.0351 43.1952 40.9424 42.8469 40.8728 42.4753L40.5248 42.3359C40.4088 42.5217 40.316 42.7307 40.1769 42.9165C36.8829 47.7469 32.3131 49.837 26.5603 49.3261C25.47 49.2332 25.0757 49.5816 25.0757 50.7427C25.1221 60.0088 25.0989 69.2981 25.1221 78.5641C25.1221 78.9357 25.1917 79.3305 25.2613 80.0504L25.2845 80.0736Z" fill="#121212"/>
<path d="M115.891 100.557C116.889 100.023 117.817 99.7208 118.466 99.117C119.997 97.7236 121.76 97.2127 123.732 97.3055C125.008 97.3752 125.356 96.8411 125.333 95.6567C125.263 92.777 125.17 89.9206 125.263 87.0409C125.333 84.8115 125.495 82.5588 126.724 80.5616C127.513 79.2843 127.095 78.6805 125.611 78.7038C120.02 78.8199 115.868 82.9304 115.752 88.5969C115.683 92.0571 115.729 95.4941 115.729 98.9544C115.729 99.3724 115.799 99.8137 115.868 100.534L115.891 100.557Z" fill="#121212"/>
<path d="M175.044 106.78L175.438 106.92C176.737 105.805 177.549 104.342 177.642 102.693C177.85 99.3024 177.804 95.8886 177.874 92.498C177.943 88.3179 177.317 84.0448 179.567 80.1665C179.938 79.5395 179.729 78.866 178.825 78.8893C177.711 78.9125 176.574 78.8893 175.531 79.1679C170.938 80.422 168.34 84.2306 168.27 89.5023C168.27 90.7331 168.548 91.5459 169.871 91.8013C170.497 91.9175 171.123 92.2426 171.68 92.6142C174.974 94.681 176.83 99.7437 175.809 103.761C175.554 104.783 175.275 105.782 174.997 106.804L175.044 106.78Z" fill="#121212"/>
<path d="M165.486 25.8945C165.324 26.2197 165.231 26.3358 165.231 26.4519C165.231 30.5856 165.208 34.6961 165.208 38.8298C165.208 39.6659 165.718 39.8749 166.437 39.8981C171.958 40.1303 176.458 38.226 179.428 33.3492C180.054 32.3506 180.356 31.143 180.796 30.0515L180.402 29.6567C177.781 30.7714 175.136 31.2591 172.376 30.5159C169.592 29.7728 167.389 28.1704 165.51 25.8945H165.486Z" fill="#121212"/>
<path d="M60.5437 26.033C60.4045 26.3117 60.2885 26.4278 60.2885 26.5207C60.2653 30.7241 60.2421 34.9507 60.2885 39.1541C60.2885 39.4095 60.8916 39.874 61.2396 39.874C62.1675 39.8972 63.0953 39.7114 64.0232 39.6882C69.1961 39.5024 72.5365 36.5763 74.9025 32.2336C75.2969 31.5137 75.4361 30.6544 75.8072 29.4468C69.6137 32.0246 64.6263 30.9099 60.5669 26.0098L60.5437 26.033Z" fill="#121212"/>
<path d="M112.992 25.9629C112.83 26.2183 112.714 26.3345 112.714 26.4274C112.691 30.5843 112.644 34.7645 112.667 38.9214C112.667 39.2466 113.294 39.8039 113.665 39.8271C119.116 40.1523 123.64 38.4105 126.609 33.5569C127.281 32.4654 127.653 31.1881 128.14 30.0037L127.908 29.6089C121.993 32.1635 117.028 30.863 112.969 25.9629H112.992Z" fill="#121212"/>
<path d="M104.757 100.091C104.827 99.4175 104.873 98.8602 104.989 98.326C106.195 93.124 104.177 89.3387 99.1668 87.5969C98.1693 87.2486 98.1693 86.5983 98.1693 85.832C98.1693 78.8882 98.1693 71.9213 98.1229 64.9775C98.0997 60.3561 98.0997 55.7347 97.8909 51.1365C97.7982 49.0929 96.6615 47.4673 94.7826 46.5151C93.4603 48.0711 92.0453 48.4891 90.4911 47.7459V49.5341C90.4911 61.9121 90.4447 74.29 90.4911 86.668C90.4911 87.9917 90.004 88.5723 88.8674 89.1993C86.6868 90.3837 84.6687 91.8468 82.581 93.2169C82.1403 93.4956 81.7459 93.8207 81.3284 94.0994L80.8876 93.9833V87.4576C79.6814 87.4576 78.7999 87.5505 77.9416 87.4111C77.6169 87.3647 77.2689 86.8306 77.1065 86.459C76.6426 85.3675 77.1529 84.6708 79.1479 83.6257C78.8231 82.1395 77.6865 81.3499 76.5498 80.63C74.8564 79.5849 73.0471 78.6792 71.3073 77.6806C65.9256 74.6152 63.4436 69.8544 63.3276 63.7467C63.258 59.404 63.3276 55.038 63.1652 50.6953C63.1188 49.4412 62.7013 48.1407 62.1677 46.9796C61.2863 45.0288 61.3558 44.7966 63.5132 44.7269C69.6835 44.5179 74.4853 41.8008 77.988 36.7149C79.4726 34.5784 80.4005 32.1864 80.5397 29.5854C80.6789 26.8683 80.7252 24.1279 80.5397 21.4108C80.4005 19.4601 79.1479 17.9506 77.6633 16.743C77.3617 16.4875 76.921 16.4411 76.2946 16.1856C76.4106 16.8126 76.457 17.161 76.5266 17.4861C77.4777 21.1554 75.5755 24.5692 71.9336 25.7071C68.6629 26.7289 64.8818 24.8711 63.7683 21.6663C62.5157 18.0667 64.0931 13.9794 67.619 12.9576C69.9387 12.2841 72.5599 12.2144 74.9724 12.5163C81.8387 13.3756 86.7332 17.1842 89.2153 23.7099C90.0968 26.0787 90.3056 28.7958 90.3983 31.3504C90.5607 35.4376 90.3983 39.5017 90.3751 43.589C90.3751 44.1928 90.4679 44.8198 90.5375 45.6094C92.4629 44.2857 94.4578 44.7966 96.3599 44.8198C97.6358 44.8198 98.2389 44.4482 98.2389 43.0781C98.2157 35.4609 98.2621 27.8204 98.1925 20.2032C98.1925 18.0202 97.775 15.8373 96.6151 13.8865C96.0584 12.9344 96.3367 12.4467 97.427 12.377C101.974 12.0983 106.868 15.396 107.448 20.18C107.68 22.0379 107.796 23.9189 107.796 25.8C107.842 31.5361 107.819 37.2723 107.773 43.0316C107.773 44.3321 108.121 44.8662 109.489 44.843C113.27 44.7966 117.052 44.9591 120.74 43.9373C127.467 42.1027 132.524 36.0182 133.011 28.9816C133.173 26.5664 133.15 24.1279 133.011 21.736C132.872 19.553 131.573 17.9274 129.903 16.6269C129.647 16.4411 129.3 16.3946 128.859 16.2321C128.998 17.4164 129.207 18.415 129.207 19.4136C129.207 22.1307 127.351 24.7317 124.892 25.591C121.853 26.6128 119.023 25.7536 117.168 23.2687C115.451 20.9696 115.358 17.9738 116.843 15.5818C118.026 13.7007 119.719 12.6325 121.877 12.4467C129.137 11.7732 135.331 13.6775 139.785 19.9013C141.826 22.7578 142.777 26.0322 142.87 29.4693C143.009 34.3461 142.939 39.2462 142.939 44.1231C142.939 60.8438 142.939 77.5645 142.962 94.2852C142.962 94.6568 142.939 95.0051 142.962 95.3535C142.986 96.3521 142.545 96.654 141.64 96.3056C139.181 95.3535 136.723 95.2141 134.264 96.3288C133.429 96.7236 133.266 96.1431 133.266 95.4696C133.266 93.2169 133.266 90.9875 133.266 88.7349C133.266 87.5273 133.266 86.3196 133.197 85.112C132.895 80.9551 129.926 78.0754 125.774 77.9825C122.433 77.9361 119.116 77.9825 115.776 77.9825C113.966 77.9825 113.92 77.7038 114.523 76.0085C115.149 74.2668 115.776 72.409 115.822 70.5975C115.938 64.1415 115.822 57.6854 115.776 51.2294C115.776 50.2076 115.497 49.1625 115.312 47.9085C113.502 48.9071 112.296 48.6981 111.647 46.9099C111.6 46.7706 110.812 46.7241 110.58 46.9099C109.025 48.0943 108.051 49.6967 107.982 51.6939C107.889 54.5271 107.912 57.3371 107.912 60.1703C107.912 72.5947 107.912 85.0191 107.912 97.4436C107.912 99.9284 107.726 100.114 104.873 100.184H104.85L104.757 100.091ZM80.7484 80.9086C80.7484 66.7889 80.9108 52.5996 80.5629 38.3638C80.0293 38.6657 79.7974 39.0372 79.4958 39.3159C77.6865 41.0112 75.9235 42.7762 74.0213 44.3553C73.2327 44.9824 72.8615 45.5629 72.8615 46.5615C72.8847 54.1787 72.9311 61.796 72.8615 69.4132C72.8383 72.4322 73.9981 74.708 76.2946 76.5891C77.8488 77.8432 79.1943 79.3759 80.7484 80.9086ZM133.034 37.9922C132.57 38.5263 132.362 38.805 132.106 39.0372C130.251 40.8022 128.464 42.66 126.493 44.3089C125.681 44.9824 125.286 45.5862 125.286 46.6312C125.31 52.1816 125.286 57.7551 125.286 63.3055C125.286 66.7657 125.263 70.2027 125.31 73.663C125.31 74.1275 125.681 74.9171 126.029 74.9867C128.279 75.5673 130.575 75.9853 133.011 76.4962V37.9922H133.034Z" fill="#121212"/>
<path d="M147.277 46.2838C146.952 46.8643 146.767 47.2591 146.558 47.6307C146.048 48.5364 145.143 48.7919 144.401 48.3274C143.844 47.979 143.403 47.0966 143.31 46.3999C143.171 45.5174 143.821 44.8671 144.749 44.8207C146.256 44.751 147.764 44.751 149.272 44.7975C150.362 44.8207 150.78 44.4027 150.78 43.288C150.756 35.5314 150.803 27.7749 150.733 20.0183C150.733 17.9282 150.432 15.8382 149.272 13.9571C148.599 12.8656 148.924 12.4243 150.2 12.3547C155.512 12.0992 160.174 16.2562 160.29 21.6207C160.43 28.6109 160.337 35.6243 160.337 42.6145C160.337 44.751 160.337 44.7975 162.494 44.7743C166.229 44.751 170.01 45.0994 173.582 43.8453C180.17 41.5462 184.531 37.0642 185.459 29.8882C185.83 26.9621 185.645 23.9198 185.436 20.9473C185.32 19.1358 184.021 17.8121 182.652 16.6742C182.397 16.4652 182.049 16.4187 181.492 16.1865C181.608 17.0922 181.724 17.7889 181.794 18.4856C182.119 21.9459 180.101 24.9184 176.83 25.8009C173.652 26.6602 170.335 24.9881 168.92 21.853C167.644 18.9733 168.711 15.2576 171.448 13.5855C172.376 13.0281 173.489 12.5637 174.533 12.4476C181.168 11.8205 187.036 13.4462 191.537 18.7643C194.529 22.2942 195.503 26.4976 195.55 31.0029C195.573 36.1584 195.503 41.314 195.503 46.4695C195.503 63.9566 195.48 81.4437 195.48 98.954C195.48 100.626 195.41 102.298 195.642 103.924C195.874 105.48 196.362 107.059 196.965 108.522C197.498 109.799 197.405 110.24 195.967 110.264C191.931 110.333 187.964 108.174 186.572 103.924C186.039 102.298 185.923 100.487 185.9 98.7682C185.83 94.6344 186.085 90.5007 185.9 86.3902C185.83 84.6717 185.297 82.8138 184.462 81.3276C183.186 79.0285 180.889 78.0299 178.291 77.9834C174.997 77.937 171.703 77.9834 168.433 77.9834C166.484 77.9834 166.345 77.6351 167.203 75.8701C167.69 74.8947 168.131 73.78 168.177 72.7118C168.363 67.9278 168.409 63.1206 168.433 58.3366C168.433 55.4801 168.317 52.6005 168.177 49.744C168.154 49.1634 167.876 48.6061 167.713 48.0255C165.371 48.7454 165.115 48.6293 163.84 46.3534C163.352 46.725 162.819 47.0269 162.425 47.4449C160.917 49.0705 160.383 51.0445 160.406 53.2507C160.43 63.8869 160.453 74.4999 160.453 85.1362C160.453 87.1566 160.383 89.177 160.43 91.1974C160.43 92.196 160.082 92.5211 159.107 92.5444C157.46 92.5676 155.953 93.1017 154.793 94.3325C153.726 95.4473 152.751 94.3558 151.731 94.1932C150.78 94.0306 150.826 93.2643 150.826 92.5211C150.826 79.4697 150.826 66.4183 150.826 53.3668C150.826 51.3 150.432 49.3492 149.017 47.7468C148.553 47.2359 147.973 46.8411 147.347 46.2838H147.277ZM185.807 38.5272L185.204 38.1324C185.041 38.4575 184.972 38.8291 184.74 39.1078C183.047 41.314 181.144 43.288 178.709 44.7046C178.291 44.9368 177.99 45.7264 177.99 46.2605C177.943 55.4105 177.943 64.5604 177.897 73.7104C177.897 74.6625 178.291 75.0108 179.219 75.1734C180.866 75.4521 182.513 75.8237 184.114 76.3114C185.761 76.799 185.853 76.799 185.853 75.0805V39.8277C185.853 39.3865 185.807 38.9685 185.784 38.5272H185.807Z" fill="#121212"/>
<path d="M213.133 60.6588C213.133 73.9889 213.133 87.2958 213.133 100.626C213.133 103.436 212.994 106.292 214.641 108.824C215.104 109.544 214.757 110.194 213.875 110.194C210.233 110.217 206.591 110.264 202.949 110.171C201.627 110.147 201.627 109.776 202.068 108.545C202.648 106.919 203.135 105.247 203.39 103.552C203.622 102.019 203.506 100.417 203.506 98.861C203.506 72.8974 203.506 46.9107 203.506 20.9472C203.506 18.5087 203.297 16.1167 201.998 13.957C201.418 12.9816 201.72 12.3778 202.741 12.401C207.496 12.4939 212.274 12.2849 216.96 12.8887C223.27 13.7015 229.115 19.9254 230.136 26.2653C230.438 28.0767 230.6 29.9113 230.6 31.746C230.623 55.062 230.6 78.4013 230.6 101.717C230.6 104.202 230.762 106.641 232.108 108.847C232.781 109.938 231.969 110.147 231.11 110.217C226.216 110.612 221.692 106.873 221.112 101.903C220.927 100.347 220.881 98.7681 220.881 97.2121C220.881 73.2226 220.95 49.2098 220.95 25.2202C220.95 23.7572 220.857 22.2477 220.556 20.8311C219.929 17.9746 217.169 15.6755 214.316 15.3039C213.504 15.1878 213.133 15.4433 213.133 16.2793C213.133 16.8599 213.133 17.4405 213.133 18.021V60.682V60.6588Z" fill="#121212"/>
<path d="M169.593 97.1656C168.294 95.6096 167.18 95.5864 165.835 97.0727C164.559 98.4893 163.329 99.9291 162.077 101.346C162.03 101.021 162.146 100.788 162.262 100.579C163.121 99.0931 162.982 98.4893 161.474 97.6765C160.987 97.3978 160.407 97.2585 159.85 97.0959C158.737 96.7708 157.878 96.9566 157.275 98.0713C156.486 99.4647 155.559 100.788 154.77 102.205C152.357 106.594 150.038 111.03 146.79 114.885C146.094 115.721 145.375 116.51 144.656 117.323L144.285 117.114C144.401 116.627 144.424 116.116 144.633 115.674C146.952 110.937 149.249 106.199 151.638 101.508C152.566 99.6969 152.543 99.4182 150.618 98.7448C150.362 98.6519 150.107 98.559 149.852 98.4893C148.483 98.141 147.347 98.3267 146.558 99.7201C145.723 101.183 144.702 102.577 143.798 103.993C140.689 108.893 137.558 113.793 134.426 118.693C134.148 119.135 133.684 119.46 133.313 119.831L132.826 119.622C132.988 118.508 132.988 117.347 133.313 116.278C134.844 111.332 137.094 106.734 140.318 102.646C140.597 102.321 140.805 101.578 140.643 101.299C139.599 99.6737 136.189 99.6737 135.122 101.276C133.985 102.995 132.965 104.783 131.851 106.501C131.109 107.639 130.274 108.684 128.627 109.265C128.627 107.988 128.673 107.012 128.627 106.06C128.441 103.111 124.428 100.603 121.853 101.95C120.16 102.832 118.467 103.97 117.191 105.363C114.338 108.475 112.18 112.098 110.696 116.092C109.559 119.204 107.309 121.387 105.105 123.686C104.943 123.849 104.665 123.919 104.108 124.197C104.247 123.315 104.247 122.641 104.456 122.061C105.244 120.11 105.917 118.066 107.007 116.301C108.84 113.352 110.881 110.542 112.969 107.755C113.688 106.78 113.642 106.176 112.946 105.317C111.577 103.622 109.884 103.691 107.982 104.016C105.013 104.551 102.02 104.969 99.0277 105.27C97.0328 105.456 96.708 105.851 97.5895 107.709C97.7055 107.964 97.9143 108.173 97.9375 108.429C98.0071 109.126 98.2854 109.985 97.9839 110.496C95.409 114.838 92.7414 119.135 90.0737 123.431C89.8418 123.803 89.4938 124.104 89.1922 124.43L88.8675 124.221C89.0995 123.617 89.285 122.99 89.5634 122.409C90.4913 120.482 91.4655 118.577 92.4166 116.65C92.579 116.348 92.811 115.767 92.7182 115.698C91.8831 115.071 91.0712 114.374 90.1201 114.026C89.401 113.747 88.6123 113.909 87.9164 114.746C84.9704 118.322 81.9548 121.829 78.8464 125.266C78.0577 126.148 76.9443 127.263 75.6221 126.496C74.3462 125.753 74.7638 124.244 74.9262 123.036C75.4597 118.972 77.0603 115.28 79.032 111.75C82.1636 106.153 85.8519 101.021 91.164 97.3281C92.5094 96.3992 94.2028 95.9115 95.757 95.3542C96.7776 94.9826 97.056 95.5864 96.7312 96.5153C96.6616 96.7708 96.5457 97.0262 96.4297 97.2585C94.3188 101.508 91.5583 105.294 88.0788 108.498C87.0581 109.427 85.5271 109.776 84.2281 110.38C83.9961 110.496 83.7642 110.565 83.1611 110.821C83.9265 111.657 84.4601 112.516 85.2024 112.981C87.2205 114.235 89.0067 113.259 90.5377 111.959C93.7852 109.172 96.4297 105.851 98.3782 102.042C99.2133 100.44 99.886 98.6519 100.164 96.8869C100.675 93.7053 98.9581 91.8475 95.7338 91.7778C93.4141 91.7314 91.2568 92.3584 89.2618 93.5428C81.1429 98.35 75.6453 105.479 71.9106 114.049C70.5188 117.254 69.6605 120.644 69.8228 124.244C69.9156 126.241 70.5188 128.029 71.957 129.446C74.4622 131.907 76.6659 131.861 79.0552 129.306C79.9367 128.354 80.795 127.402 81.6997 126.45C81.9316 126.195 82.2564 125.986 82.5347 125.753C82.6275 126.241 82.5579 126.589 82.4188 126.891C81.3053 129.632 80.0991 132.325 79.0784 135.089C77.9186 138.247 79.3568 140.941 82.5347 141.847C83.3466 142.079 83.7178 141.917 83.9034 140.988C84.3905 138.526 84.9472 136.088 85.5503 133.672C85.6663 133.231 86.0143 132.836 86.339 132.488C87.8236 130.955 89.6098 129.632 90.7464 127.89C94.6899 121.829 98.4246 115.628 102.206 109.451C103.134 107.941 104.781 107.221 106.729 107.662C105.5 109.404 104.224 111.053 103.11 112.795C101.162 115.837 99.2829 118.926 98.355 122.502C97.2648 126.682 99.0741 129.655 103.064 130.143C104.038 130.259 104.665 129.957 105.129 129.097C105.848 127.774 106.636 126.473 107.448 125.173C107.819 124.569 108.306 124.012 108.863 123.292C109.142 123.872 109.327 124.174 109.397 124.522C110.023 126.984 111.856 128.006 114.082 128.517C116.82 129.144 118.397 127.356 119.928 125.591C122.596 122.549 124.614 119.088 126.4 115.442C126.818 114.583 127.421 113.84 127.931 113.05C128.093 113.143 128.256 113.213 128.395 113.306C128.325 113.724 128.256 114.142 128.163 114.56C127.769 115.883 127.305 117.184 126.98 118.554C126.214 121.666 127.977 124.917 130.947 126.032C132.617 126.659 132.826 126.566 133.73 125.033C135.238 122.456 136.746 119.855 138.254 117.277C138.439 116.975 138.694 116.72 138.903 116.441C139.066 116.859 138.973 117.161 138.926 117.439C138.694 119.019 138.346 120.598 138.277 122.2C138.207 123.756 139.158 124.871 140.481 125.173C141.942 125.521 142.754 125.057 143.659 123.431C144.146 122.549 144.702 121.689 145.236 120.83L145.561 121.016C145.491 121.294 145.445 121.596 145.329 121.875C144.494 123.988 143.612 126.102 142.777 128.215C142.128 129.864 142.568 130.839 144.099 131.42C146.233 132.209 146.628 132.093 147.324 130.166C150.548 121.062 155.28 112.888 161.636 105.642C162.75 104.388 163.886 103.157 165 101.903L165.487 102.135C165.394 102.762 165.44 103.459 165.208 104.04C164.327 106.13 163.538 108.289 162.402 110.24C160.291 113.933 157.646 117.207 153.888 119.297C152.775 119.924 152.844 120.435 153.448 121.271C155.141 123.57 157.878 123.756 160.012 121.527C164.791 116.534 168.294 110.705 170.636 104.156C171.541 101.624 171.147 99.3021 169.407 97.2585H169.453L169.593 97.1656ZM121.111 116.301C119.464 118.601 117.771 120.876 115.985 123.083C115.66 123.501 114.802 123.477 114.198 123.64C114.152 123.013 113.897 122.316 114.106 121.782C115.196 119.065 116.402 116.371 117.585 113.7C117.748 113.352 118.049 113.073 118.235 112.818C119.279 113.677 120.183 114.351 120.972 115.14C121.181 115.349 121.274 116.046 121.088 116.278L121.111 116.301ZM123.5 110.774C123.268 111.564 122.758 111.634 122.248 111.03C121.459 110.124 122.132 107.012 123.268 106.641C123.5 106.571 123.988 107.268 124.243 107.523C123.941 108.87 123.779 109.845 123.524 110.774H123.5Z" fill="#121212"/>
<path d="M20.2743 64.653V105.433C20.2743 107.384 20.7614 107.686 22.6172 107.105C25.7488 106.13 27.9525 103.389 28.0684 100.068C28.1844 96.2133 28.1148 92.3582 28.1612 88.5032C28.1844 85.2055 29.1587 82.349 31.8031 80.1893C33.6357 78.6798 35.7466 77.9598 38.0663 77.9134C39.5741 77.8902 39.6901 78.4708 39.2029 79.8409C38.5534 81.6756 37.9967 83.5799 37.8343 85.5074C37.556 88.7586 37.8343 92.0563 37.5328 95.3076C36.8369 102.809 30.2026 109.404 22.7564 109.938C18.7201 110.24 14.6838 110.217 10.6476 110.263C8.93101 110.287 8.83823 109.799 9.46454 108.173C10.0909 106.548 10.6708 104.759 10.6708 103.041C10.7404 80.7466 10.694 58.4524 10.7172 36.1581C10.7172 32.9765 10.7636 29.7717 11.1579 26.6366C12.0162 19.9251 17.7226 13.7942 24.3569 12.9117C29.0427 12.2847 33.8213 12.4937 38.5766 12.3776C39.5741 12.3543 39.8988 13.0046 39.4117 13.8174C37.9271 16.2326 37.8111 18.9265 37.7647 21.5972C37.6951 26.265 37.8343 30.9329 37.6488 35.5775C37.4864 40.0364 34.8883 42.8232 30.8289 44.1933C29.7386 44.5649 28.4628 44.4952 27.2797 44.5185C26.5374 44.5185 26.1895 43.9611 26.607 43.3341C28.3468 40.5937 28.2076 37.5051 28.2308 34.4628C28.2308 28.5873 28.1844 22.7119 28.1612 16.8364C28.1612 15.1876 28.0684 15.1179 26.4911 15.4198C23.7074 15.9307 21.2254 18.2762 20.715 21.0863C20.4367 22.619 20.2975 24.1982 20.2975 25.7541C20.2743 38.7127 20.2975 51.6944 20.2975 64.653H20.3207H20.2743Z" fill="#121212"/>
<path d="M55.4404 71.807C57.6673 70.9942 58.804 71.2497 59.2447 72.527C59.6391 73.6184 59.0128 74.3384 56.8323 75.1976C57.3658 75.8943 57.7369 76.6839 58.3632 77.1019C60.0334 78.2631 61.7964 79.3313 63.5594 80.3532C66.5054 82.0717 69.289 83.9528 71.0056 87.0647C72.3974 89.6192 72.7685 92.3828 72.9077 95.2392C72.9541 96.1217 72.9773 97.0274 72.9773 97.9331C72.9773 101.866 71.918 105.442 69.7993 108.662C69.173 109.614 68.5467 109.336 67.8972 108.871C64.9744 106.828 63.3506 103.994 63.2578 100.395C63.1882 97.7473 63.2578 95.0999 63.2578 92.4525C63.2578 90.8733 63.2578 89.3173 63.0954 87.7381C62.933 85.8571 62.3763 84.1618 60.7293 82.9774C58.7576 81.5376 56.7163 80.1674 55.858 77.6361L55.4868 77.7754C55.4636 78.2166 55.394 78.6811 55.394 79.1456C55.394 86.7163 55.394 94.3103 55.394 101.881C55.394 104.32 55.6724 106.711 57.041 108.848C57.5282 109.614 57.1106 110.032 56.4147 110.218C55.9508 110.334 55.4404 110.381 54.9533 110.381C51.8913 110.381 48.8293 110.358 45.7673 110.288C43.8188 110.241 43.7956 109.893 44.5379 108.175C45.2106 106.572 45.7441 104.761 45.7441 103.019C45.8369 85.5319 45.8137 68.0217 45.8137 50.5346C45.8137 41.2918 45.8137 32.0489 45.8137 22.8061C45.8137 18.9743 47.136 15.9088 50.4299 13.842C52.1465 12.7737 54.0022 12.2628 56.0204 12.3324C57.2962 12.3789 57.5514 12.7969 56.925 13.9348C55.8348 15.9088 55.4404 18.0454 55.4404 20.2748C55.4404 36.9723 55.4404 53.6465 55.4404 70.344V71.807Z" fill="#121212"/>
<path d="M25.2847 80.0738C25.2151 79.3539 25.1455 78.9591 25.1455 78.5876C25.1455 69.3215 25.1455 60.0322 25.0991 50.7662C25.0991 49.6282 25.4935 49.2567 26.5837 49.3496C32.3365 49.8605 36.9063 47.7936 40.2003 42.94C40.3163 42.7542 40.4323 42.5452 40.5482 42.3594L40.8962 42.4987C40.9426 42.8703 41.0586 43.2186 41.0586 43.5902C41.0586 53.042 41.0586 62.4939 41.0586 71.9689C41.0586 72.8514 40.9658 73.4552 39.8291 73.2927C34.4011 72.5495 30.0169 74.5235 26.5605 78.7269C26.2358 79.1217 25.8646 79.47 25.3079 80.0971L25.2847 80.0738Z" fill="#121212"/>
<path d="M115.892 100.557C115.822 99.8371 115.752 99.3958 115.752 98.9778C115.752 95.5176 115.706 92.0805 115.776 88.6203C115.892 82.9538 120.044 78.8433 125.634 78.7272C127.119 78.704 127.513 79.3078 126.748 80.5851C125.542 82.5823 125.356 84.8349 125.286 87.0643C125.194 89.9208 125.286 92.8005 125.356 95.6801C125.379 96.8645 125.031 97.3986 123.755 97.329C121.784 97.2129 120.021 97.747 118.49 99.1404C117.84 99.7442 116.912 100.023 115.915 100.58L115.892 100.557Z" fill="#121212"/>
<path d="M175.044 106.78C175.322 105.758 175.577 104.76 175.856 103.738C176.876 99.7203 175.021 94.6576 171.727 92.5907C171.17 92.2424 170.544 91.9173 169.917 91.7779C168.572 91.5225 168.294 90.7097 168.317 89.4788C168.386 84.1839 170.984 80.3754 175.577 79.1445C176.621 78.8658 177.781 78.9123 178.871 78.8658C179.776 78.8426 179.985 79.4929 179.614 80.1431C177.364 84.0214 177.99 88.2945 177.92 92.4746C177.874 95.8652 177.897 99.279 177.688 102.67C177.595 104.342 176.76 105.805 175.485 106.896L175.09 106.757L175.044 106.78Z" fill="#121212"/>
<path d="M165.487 25.8945C167.366 28.1704 169.546 29.7728 172.353 30.5159C175.137 31.2359 177.781 30.7482 180.379 29.6567L180.773 30.0515C180.333 31.1662 180.031 32.3506 179.405 33.3492C176.436 38.226 171.935 40.1071 166.414 39.8981C165.719 39.8749 165.185 39.6659 165.185 38.8298C165.185 34.6961 165.185 30.5856 165.208 26.4519C165.208 26.3358 165.301 26.2197 165.463 25.8945H165.487Z" fill="#121212"/>
<path d="M60.5441 26.0332C64.6036 30.9333 69.5909 32.0248 75.7844 29.4702C75.4133 30.6778 75.2741 31.5371 74.8798 32.257C72.5137 36.5998 69.1501 39.5027 64.0004 39.7117C63.0726 39.7349 62.1447 39.9439 61.2168 39.8974C60.8921 39.8974 60.2657 39.433 60.2657 39.1775C60.2193 34.9741 60.2657 30.7475 60.2657 26.5441C60.2657 26.428 60.3817 26.3119 60.5209 26.0564L60.5441 26.0332Z" fill="#121212"/>
<path d="M112.992 25.9629C117.052 30.863 122.016 32.1635 127.931 29.6089L128.163 30.0037C127.653 31.1881 127.281 32.4654 126.632 33.5569C123.64 38.4105 119.139 40.1523 113.688 39.8271C113.317 39.8039 112.691 39.2466 112.691 38.9214C112.644 34.7645 112.691 30.5843 112.737 26.4274C112.737 26.3112 112.853 26.1951 113.015 25.9629H112.992Z" fill="#121212"/>
</svg>
