<svg width="58" height="36" viewBox="0 0 58 36" fill="none" xmlns="http://www.w3.org/2000/svg">
<path d="M51.9399 14.6556V4.34825C51.9399 4.20797 51.9399 4.0677 51.9399 3.92742C51.9399 3.73104 52.0304 3.66932 52.2282 3.69176C52.9236 3.78154 53.5963 4.33702 53.7489 5.02717C53.828 5.36944 53.845 5.73416 53.845 6.08765C53.845 11.8838 53.828 17.6855 53.828 23.4817C53.828 23.8576 53.8393 24.2391 53.8846 24.6151C54.0202 25.8158 55.1226 26.7136 56.321 26.6238C56.5302 26.607 56.7224 26.5565 56.5641 26.2928C56.2362 25.7597 56.1967 25.1762 56.1967 24.5702C56.2023 18.9368 56.2023 13.2977 56.1967 7.66433C56.1967 7.22106 56.1571 6.7778 56.0836 6.34014C55.8349 4.80835 54.416 3.30461 52.8727 3.10822C51.7308 2.96234 50.5662 3.01283 49.4074 2.99039C49.1586 2.98478 49.0852 3.13066 49.2265 3.36633C49.5431 3.89376 49.5939 4.46608 49.5939 5.05523C49.5939 11.3283 49.5939 17.607 49.5939 23.88C49.5939 24.2616 49.6222 24.6431 49.5657 25.0135C49.5035 25.4231 49.3848 25.8327 49.2434 26.2198C49.136 26.5172 49.1304 26.607 49.4583 26.6126C50.3458 26.635 51.2333 26.6238 52.1208 26.6182C52.3413 26.6182 52.4261 26.4611 52.3074 26.2871C51.906 25.6756 51.9399 24.9854 51.9399 24.3065C51.9343 21.0858 51.9399 17.8707 51.9399 14.65V14.6556Z" fill="#EFEFEF"/>
<path d="M4.94054 15.6207H4.93489C4.93489 12.4898 4.93489 9.35322 4.93489 6.2223C4.93489 5.84636 4.96881 5.46481 5.03665 5.09449C5.16101 4.41556 5.76589 3.85446 6.44425 3.72541C6.82865 3.65247 6.85127 3.6693 6.85127 4.06768C6.86257 5.48726 6.87388 6.90683 6.86823 8.32641C6.86823 9.06145 6.89649 9.80209 6.47251 10.4698C6.37076 10.6269 6.46121 10.7616 6.63645 10.756C6.92476 10.756 7.23002 10.7672 7.50136 10.6774C8.49064 10.3407 9.12378 9.67304 9.16335 8.59574C9.20858 7.46793 9.16901 6.34574 9.19162 5.21793C9.20292 4.56706 9.23119 3.91619 9.59298 3.33826C9.71169 3.14748 9.63255 2.98476 9.38947 2.99038C8.23626 3.01843 7.06608 2.96793 5.92417 3.11943C4.30741 3.33264 2.91676 4.81394 2.7076 6.43551C2.6115 7.19299 2.60019 7.96731 2.60019 8.73601C2.59454 14.1225 2.60019 19.5091 2.58889 24.8956C2.58889 25.3108 2.44756 25.7429 2.29493 26.1356C2.1423 26.5228 2.16491 26.6462 2.58323 26.6406C3.56686 26.6294 4.55614 26.635 5.53411 26.5621C7.34873 26.4274 8.97115 24.8395 9.13509 23.0272C9.20858 22.2416 9.14639 21.4449 9.20858 20.6593C9.24815 20.1936 9.38382 19.7279 9.5421 19.2903C9.66082 18.9536 9.63255 18.8189 9.26511 18.8245C8.6998 18.8358 8.18538 19.0097 7.73879 19.3744C7.09435 19.8962 6.86257 20.5864 6.85127 21.3831C6.83996 22.3146 6.85692 23.246 6.82865 24.1774C6.80039 24.9854 6.26335 25.6475 5.50019 25.8775C5.0423 26.0178 4.92924 25.9393 4.92924 25.4735C4.92924 22.1911 4.92924 18.9087 4.92924 15.6207H4.94054Z" fill="#EFEFEF"/>
<path d="M13.5109 17.3497V16.9962C13.5109 12.962 13.5109 8.93327 13.5109 4.89899C13.5109 4.36033 13.607 3.84412 13.8727 3.36719C14.0253 3.09225 13.9575 2.99125 13.6522 2.98003C13.1604 2.9632 12.7082 3.08664 12.2898 3.33914C11.4871 3.8329 11.1592 4.57916 11.1649 5.50497C11.1705 7.73814 11.1649 9.9713 11.1649 12.2045C11.1649 16.4295 11.1705 20.6602 11.1479 24.8853C11.1479 25.3005 11.0179 25.7381 10.854 26.1309C10.6787 26.5461 10.6844 26.6303 11.1536 26.6415C11.8998 26.6583 12.646 26.6639 13.3922 26.6639C13.5109 26.6639 13.6353 26.6527 13.7483 26.6247C13.9236 26.5798 14.0253 26.4788 13.901 26.2936C13.5731 25.7774 13.4996 25.2051 13.4996 24.6103C13.4996 22.7812 13.4996 20.9464 13.4996 19.1172C13.4996 19.0106 13.5109 18.8984 13.5222 18.7861L13.6126 18.7525C13.8162 19.3697 14.3193 19.6951 14.7998 20.043C15.1955 20.3292 15.3312 20.7444 15.3764 21.1932C15.4103 21.5692 15.4103 21.9507 15.416 22.3323C15.4216 22.9719 15.4047 23.6116 15.416 24.2512C15.4386 25.1209 15.8343 25.8055 16.5466 26.2992C16.7049 26.4115 16.8575 26.4788 17.0101 26.2487C17.5264 25.4707 17.7846 24.6066 17.7846 23.6565C17.7846 23.4376 17.7846 23.2244 17.7676 23.0056C17.7337 22.3211 17.6489 21.6477 17.3041 21.0305C16.8857 20.2787 16.2074 19.8242 15.4895 19.409C15.0598 19.1621 14.6302 18.904 14.2232 18.6234C14.0705 18.5168 13.9801 18.326 13.8501 18.1633C14.3815 17.9557 14.5284 17.7762 14.438 17.5181C14.3249 17.2095 14.0536 17.1421 13.5109 17.3441V17.3497Z" fill="#EFEFEF"/>
<path d="M6.16172 19.3463C6.29739 19.2005 6.38784 19.1107 6.46698 19.0153C7.30928 17.9997 8.3777 17.5228 9.70051 17.7023C9.98316 17.7416 10.0001 17.5901 10.0001 17.3825C10.0001 15.0988 10.0001 12.8096 10.0001 10.5259C10.0001 10.4361 9.97751 10.352 9.96055 10.2622L9.87575 10.2285C9.84749 10.2734 9.82487 10.3239 9.79096 10.3688C8.98823 11.5359 7.87458 12.0409 6.47263 11.9174C6.20694 11.895 6.11084 11.9791 6.11084 12.2597C6.12215 14.4985 6.11649 16.7429 6.12215 18.9816C6.12215 19.0714 6.1391 19.1668 6.15606 19.3407L6.16172 19.3463Z" fill="#EFEFEF"/>
<path d="M28.2425 24.2957C28.4856 24.1667 28.7117 24.0937 28.87 23.9478C29.2431 23.6112 29.6727 23.4877 30.1532 23.5102C30.4641 23.527 30.5489 23.3979 30.5433 23.1118C30.5263 22.416 30.5037 21.7259 30.5263 21.0301C30.5433 20.4915 30.5828 19.9472 30.8824 19.4647C31.0746 19.1561 30.9729 19.0102 30.6111 19.0158C29.2487 19.0438 28.2368 20.037 28.2086 21.4061C28.1916 22.2421 28.2029 23.0725 28.2029 23.9085C28.2029 24.0095 28.2199 24.1162 28.2368 24.2901L28.2425 24.2957Z" fill="#EFEFEF"/>
<path d="M42.6575 25.7995L42.7536 25.8331C43.0702 25.5638 43.268 25.2103 43.2907 24.8119C43.3415 23.9927 43.3302 23.1679 43.3472 22.3487C43.3641 21.3387 43.2115 20.3063 43.7599 19.3693C43.8503 19.2178 43.7994 19.0551 43.579 19.0607C43.3076 19.0663 43.0306 19.0607 42.7762 19.128C41.6569 19.431 41.0238 20.3512 41.0068 21.6249C41.0068 21.9223 41.0747 22.1187 41.3969 22.1804C41.5495 22.2084 41.7022 22.287 41.8378 22.3768C42.6406 22.8761 43.0928 24.0993 42.8441 25.07C42.7819 25.3169 42.714 25.5582 42.6462 25.8051L42.6575 25.7995Z" fill="#EFEFEF"/>
<path d="M40.3286 6.25586C40.289 6.33441 40.2664 6.36247 40.2664 6.39052C40.2664 7.38928 40.2607 8.38242 40.2607 9.38117C40.2607 9.58317 40.3851 9.63366 40.5604 9.63928C41.9058 9.69539 43.0025 9.23529 43.726 8.05698C43.8787 7.81571 43.9522 7.52394 44.0596 7.26022L43.9635 7.16484C43.3247 7.43416 42.6802 7.55199 42.0075 7.37244C41.3292 7.19289 40.7921 6.80573 40.3342 6.25586H40.3286Z" fill="#EFEFEF"/>
<path d="M14.7543 6.29077C14.7203 6.3581 14.6921 6.38615 14.6921 6.4086C14.6864 7.42418 14.6808 8.44538 14.6921 9.46097C14.6921 9.52269 14.8391 9.63491 14.9238 9.63491C15.15 9.64052 15.3761 9.59563 15.6022 9.59002C16.8628 9.54513 17.6769 8.83815 18.2535 7.7889C18.3496 7.61496 18.3835 7.40735 18.4739 7.11558C16.9646 7.7384 15.7492 7.46907 14.7599 6.28516L14.7543 6.29077Z" fill="#EFEFEF"/>
<path d="M27.5358 6.27344C27.4962 6.33516 27.4679 6.36321 27.4679 6.38566C27.4623 7.39002 27.451 8.4 27.4566 9.40436C27.4566 9.48291 27.6093 9.61758 27.6997 9.62319C29.0282 9.70174 30.1305 9.28092 30.8541 8.10823C31.018 7.84451 31.1085 7.53591 31.2272 7.24975L31.1707 7.15436C29.7291 7.77157 28.5194 7.45735 27.5301 6.27344H27.5358Z" fill="#EFEFEF"/>
<path d="M25.5292 24.1834C25.5462 24.0207 25.5575 23.886 25.5858 23.7569C25.8797 22.5001 25.3879 21.5855 24.1669 21.1647C23.9238 21.0805 23.9238 20.9234 23.9238 20.7382C23.9238 19.0606 23.9238 17.3773 23.9125 15.6996C23.9068 14.583 23.9068 13.4664 23.8559 12.3554C23.8333 11.8617 23.5563 11.4689 23.0984 11.2389C22.7762 11.6148 22.4314 11.7158 22.0526 11.5362V11.9683C22.0526 14.9589 22.0413 17.9496 22.0526 20.9402C22.0526 21.2601 21.9339 21.4003 21.6569 21.5518C21.1255 21.838 20.6337 22.1915 20.1249 22.5225C20.0175 22.5899 19.9214 22.6684 19.8197 22.7357L19.7123 22.7077V21.131C19.4183 21.131 19.2035 21.1535 18.9943 21.1198C18.9152 21.1086 18.8304 20.9795 18.7908 20.8897C18.6778 20.626 18.8021 20.4577 19.2883 20.2052C19.2092 19.8461 18.9322 19.6553 18.6552 19.4814C18.2425 19.2289 17.8016 19.0101 17.3776 18.7688C16.0661 18.0281 15.4612 16.8779 15.4329 15.4022C15.416 14.353 15.4329 13.2981 15.3934 12.2488C15.3821 11.9458 15.2803 11.6316 15.1503 11.3511C14.9355 10.8798 14.9524 10.8236 15.4782 10.8068C16.9819 10.7563 18.152 10.0998 19.0056 8.87103C19.3674 8.35482 19.5936 7.77689 19.6275 7.14846C19.6614 6.49198 19.6727 5.82988 19.6275 5.1734C19.5936 4.70208 19.2883 4.33737 18.9265 4.0456C18.853 3.98387 18.7456 3.97265 18.593 3.91093C18.6212 4.06243 18.6325 4.14659 18.6495 4.22515C18.8813 5.11168 18.4177 5.93649 17.5302 6.21143C16.7331 6.45831 15.8117 6.00944 15.5403 5.23512C15.2351 4.36542 15.6195 3.37789 16.4787 3.13101C17.044 2.96829 17.6828 2.95146 18.2708 3.0244C19.944 3.232 21.1368 4.1522 21.7417 5.72889C21.9565 6.30121 22.0074 6.95769 22.03 7.5749C22.0696 8.56243 22.03 9.54435 22.0244 10.5319C22.0244 10.6778 22.047 10.8293 22.0639 11.02C22.5331 10.7002 23.0193 10.8236 23.4828 10.8293C23.7938 10.8293 23.9407 10.7395 23.9407 10.4084C23.9351 8.56804 23.9464 6.72203 23.9294 4.88163C23.9294 4.3542 23.8277 3.82677 23.545 3.35545C23.4094 3.1254 23.4772 3.00757 23.7429 2.99073C24.8509 2.9234 26.0437 3.72016 26.185 4.87602C26.2415 5.3249 26.2698 5.77939 26.2698 6.23387C26.2811 7.61978 26.2754 9.00569 26.2641 10.3972C26.2641 10.7114 26.3489 10.8405 26.6825 10.8349C27.6039 10.8236 28.5253 10.8629 29.4242 10.616C31.0635 10.1728 32.2959 8.7027 32.4146 7.00258C32.4542 6.41904 32.4485 5.82988 32.4146 5.25195C32.3807 4.72452 32.0641 4.33175 31.6571 4.01754C31.5949 3.97265 31.5101 3.96143 31.4027 3.92215C31.4366 4.20831 31.4875 4.44959 31.4875 4.69086C31.4875 5.34734 31.0353 5.97577 30.4361 6.18338C29.6955 6.43026 29.0058 6.22265 28.5536 5.62228C28.1353 5.06679 28.1127 4.34298 28.4745 3.76505C28.7628 3.31056 29.1754 3.05245 29.7012 3.00757C31.4706 2.84485 32.9799 3.30495 34.0653 4.80869C34.5628 5.49884 34.7945 6.28998 34.8171 7.12041C34.8511 8.29871 34.8341 9.48263 34.8341 10.6609C34.8341 14.7008 34.8341 18.7407 34.8398 22.7806C34.8398 22.8704 34.8341 22.9546 34.8398 23.0387C34.8454 23.28 34.738 23.353 34.5175 23.2688C33.9183 23.0387 33.3191 23.0051 32.7199 23.2744C32.5164 23.3698 32.4768 23.2295 32.4768 23.0668C32.4768 22.5225 32.4768 21.9839 32.4768 21.4396C32.4768 21.1478 32.4768 20.8561 32.4598 20.5643C32.3863 19.5599 31.6628 18.8642 30.6509 18.8417C29.8368 18.8305 29.0285 18.8417 28.2144 18.8417C27.7735 18.8417 27.7622 18.7744 27.9092 18.3648C28.0618 17.944 28.2144 17.4951 28.2257 17.0574C28.254 15.4976 28.2257 13.9377 28.2144 12.3779C28.2144 12.131 28.1466 11.8785 28.1014 11.5755C27.6604 11.8168 27.3665 11.7663 27.2082 11.3342C27.1969 11.3006 27.0047 11.2894 26.9481 11.3342C26.5694 11.6204 26.332 12.0076 26.315 12.4901C26.2924 13.1746 26.298 13.8536 26.298 14.5381C26.298 17.54 26.298 20.5419 26.298 23.5437C26.298 24.1441 26.2528 24.189 25.5575 24.2058H25.5518L25.5292 24.1834ZM19.6784 19.5487C19.6784 16.1372 19.7179 12.7089 19.6331 9.26941C19.5031 9.34235 19.4466 9.43213 19.3731 9.49946C18.9322 9.90906 18.5025 10.3355 18.039 10.717C17.8468 10.8685 17.7563 11.0088 17.7563 11.2501C17.762 13.0905 17.7733 14.9309 17.7563 16.7713C17.7507 17.5007 18.0333 18.0506 18.593 18.5051C18.9717 18.8081 19.2996 19.1784 19.6784 19.5487ZM32.4203 9.17964C32.3072 9.30869 32.2563 9.37602 32.1941 9.43213C31.7419 9.85856 31.3066 10.3074 30.8261 10.7058C30.6283 10.8685 30.5322 11.0144 30.5322 11.2669C30.5378 12.6079 30.5322 13.9546 30.5322 15.2956C30.5322 16.1316 30.5265 16.9621 30.5378 17.7981C30.5378 17.9103 30.6283 18.1011 30.7131 18.1179C31.2614 18.2582 31.821 18.3592 32.4146 18.4826V9.17964H32.4203Z" fill="#EFEFEF"/>
<path d="M35.8912 11.1825C35.812 11.3228 35.7668 11.4182 35.7159 11.5079C35.5916 11.7268 35.3711 11.7885 35.1902 11.6763C35.0545 11.5921 34.9471 11.3789 34.9245 11.2106C34.8906 10.9973 35.0489 10.8402 35.275 10.829C35.6424 10.8122 36.0099 10.8122 36.3773 10.8234C36.643 10.829 36.7448 10.728 36.7448 10.4587C36.7391 8.58462 36.7504 6.71055 36.7335 4.83649C36.7335 4.3315 36.66 3.82651 36.3773 3.37202C36.2134 3.10831 36.2925 3.0017 36.6034 2.98487C37.898 2.92314 39.0342 3.92751 39.0625 5.22364C39.0964 6.91255 39.0738 8.60706 39.0738 10.296C39.0738 10.8122 39.0738 10.8234 39.5996 10.8178C40.5097 10.8122 41.4311 10.8963 42.3017 10.5933C43.9072 10.0379 44.9699 8.95494 45.196 7.22115C45.2865 6.51417 45.2413 5.77913 45.1904 5.06093C45.1621 4.62327 44.8456 4.30344 44.512 4.02851C44.4498 3.97801 44.365 3.96679 44.2294 3.91068C44.2576 4.1295 44.2859 4.29783 44.3029 4.46616C44.382 5.3022 43.8902 6.0204 43.0931 6.23362C42.3187 6.44122 41.5103 6.03723 41.1654 5.27975C40.8545 4.58399 41.1146 3.68624 41.7816 3.28225C42.0077 3.14758 42.2791 3.03536 42.5335 3.00731C44.1502 2.85581 45.5804 3.24858 46.6771 4.53349C47.4064 5.38636 47.6438 6.40195 47.6551 7.49048C47.6608 8.73611 47.6438 9.98175 47.6438 11.2274C47.6438 15.4524 47.6381 19.6775 47.6381 23.9082C47.6381 24.3122 47.6212 24.7162 47.6777 25.1089C47.7342 25.4849 47.853 25.8664 47.9999 26.2199C48.13 26.5285 48.1073 26.6351 47.7569 26.6407C46.7732 26.6576 45.8066 26.1357 45.4674 25.1089C45.3374 24.7162 45.3091 24.2785 45.3034 23.8633C45.2865 22.8645 45.3487 21.8658 45.3034 20.8726C45.2865 20.4574 45.1565 20.0086 44.953 19.6495C44.642 19.094 44.0824 18.8527 43.4493 18.8415C42.6465 18.8303 41.8438 18.8415 41.0467 18.8415C40.5719 18.8415 40.538 18.7573 40.7471 18.3309C40.8658 18.0952 40.9732 17.8259 40.9845 17.5678C41.0298 16.4119 41.0411 15.2505 41.0467 14.0946C41.0467 13.4044 41.0185 12.7087 40.9845 12.0185C40.9789 11.8783 40.9111 11.7436 40.8715 11.6033C40.3005 11.7773 40.2383 11.7492 39.9274 11.1993C39.8087 11.2891 39.6787 11.362 39.5826 11.463C39.2151 11.8558 39.0851 12.3327 39.0908 12.8658C39.0964 15.4356 39.1021 17.9998 39.1021 20.5697C39.1021 21.0578 39.0851 21.546 39.0964 22.0341C39.0964 22.2754 39.0116 22.3539 38.7742 22.3596C38.3728 22.3652 38.0054 22.4942 37.7227 22.7916C37.4627 23.0609 37.2253 22.7972 36.9765 22.7579C36.7448 22.7187 36.7561 22.5335 36.7561 22.3539C36.7561 19.2006 36.7561 16.0472 36.7561 12.8938C36.7561 12.3945 36.66 11.9231 36.3151 11.536C36.2021 11.4125 36.0608 11.3172 35.9081 11.1825H35.8912ZM45.2808 9.30843L45.1339 9.21304C45.0943 9.2916 45.0773 9.38137 45.0208 9.44871C44.6081 9.98175 44.1446 10.4587 43.551 10.8009C43.4493 10.8571 43.3758 11.0478 43.3758 11.1769C43.3645 13.3876 43.3645 15.5983 43.3532 17.8091C43.3532 18.0391 43.4493 18.1233 43.6754 18.1625C44.0767 18.2299 44.4781 18.3197 44.8682 18.4375C45.2695 18.5553 45.2921 18.5553 45.2921 18.1401V9.62265C45.2921 9.51604 45.2808 9.41504 45.2752 9.30843H45.2808Z" fill="#EFEFEF"/>
<path d="M51.9399 14.6558C51.9399 17.8765 51.9399 21.0916 51.9399 24.3123C51.9399 24.9913 51.906 25.6814 52.3074 26.293C52.4204 26.4669 52.3356 26.6241 52.1208 26.6241C51.2333 26.6297 50.3458 26.6409 49.4583 26.6184C49.136 26.6128 49.136 26.5231 49.2434 26.2257C49.3848 25.8329 49.5035 25.4289 49.5657 25.0193C49.6222 24.649 49.5939 24.2618 49.5939 23.8859C49.5939 17.6128 49.5939 11.3342 49.5939 5.06109C49.5939 4.47194 49.5431 3.89401 49.2265 3.37219C49.0852 3.13652 49.1586 2.99064 49.4074 2.99625C50.5662 3.01869 51.7308 2.9682 52.8727 3.11408C54.4103 3.31046 55.8349 4.8142 56.0836 6.346C56.1571 6.78366 56.1967 7.22692 56.1967 7.67019C56.2023 13.3036 56.1967 18.9426 56.1967 24.576C56.1967 25.1764 56.2362 25.7656 56.5641 26.2986C56.728 26.5623 56.5302 26.6128 56.321 26.6297C55.1282 26.725 54.0259 25.8217 53.8846 24.6209C53.8393 24.245 53.828 23.8635 53.828 23.4875C53.828 17.6914 53.845 11.8896 53.845 6.09351C53.845 5.74001 53.8224 5.3753 53.7489 5.03303C53.5963 4.34288 52.9236 3.7874 52.2282 3.69762C52.0304 3.66957 51.9399 3.73129 51.9399 3.93328C51.9399 4.07356 51.9399 4.21383 51.9399 4.35411V14.6615V14.6558Z" fill="#EFEFEF"/>
<path d="M41.3292 23.4762C41.0126 23.1002 40.7413 23.0946 40.4134 23.4537C40.1025 23.796 39.8029 24.1439 39.4976 24.4861C39.4863 24.4076 39.5146 24.3515 39.5428 24.301C39.752 23.9419 39.7181 23.796 39.3506 23.5996C39.2319 23.5323 39.0906 23.4986 38.9549 23.4593C38.6836 23.3808 38.4744 23.4257 38.3274 23.695C38.1352 24.0316 37.9091 24.3515 37.7169 24.6937C37.129 25.7542 36.5637 26.8259 35.7723 27.7573C35.6027 27.9593 35.4274 28.1501 35.2522 28.3465L35.1617 28.296C35.19 28.1781 35.1956 28.0547 35.2465 27.9481C35.8118 26.8035 36.3715 25.6588 36.9537 24.5254C37.1799 24.0878 37.1742 24.0204 36.705 23.8577C36.6428 23.8353 36.5806 23.8128 36.5185 23.796C36.1849 23.7118 35.9079 23.7567 35.7157 24.0934C35.5122 24.4469 35.2635 24.7835 35.043 25.1258C34.2855 26.3097 33.5224 27.4936 32.7592 28.6775C32.6914 28.7841 32.5783 28.8627 32.4878 28.9525L32.3691 28.902C32.4087 28.6326 32.4087 28.3521 32.4878 28.094C32.8609 26.8988 33.4093 25.7879 34.1951 24.8003C34.2629 24.7218 34.3138 24.5422 34.2742 24.4749C34.0198 24.0821 33.1888 24.0821 32.9288 24.4693C32.6518 24.8845 32.4031 25.3166 32.1317 25.7318C31.9508 26.0067 31.7473 26.2592 31.3459 26.3995C31.3459 26.0909 31.3572 25.8552 31.3459 25.6252C31.3007 24.9126 30.3227 24.3066 29.6953 24.632C29.2826 24.8452 28.8699 25.1202 28.559 25.4568C27.8637 26.2087 27.3379 27.084 26.9762 28.0491C26.6992 28.801 26.1508 29.3284 25.6138 29.8839C25.5742 29.9232 25.5064 29.94 25.3707 30.0073C25.4046 29.7941 25.4046 29.6314 25.4555 29.4911C25.6477 29.0198 25.8116 28.526 26.0773 28.0996C26.5239 27.387 27.0214 26.7081 27.5301 26.0348C27.7054 25.7991 27.6941 25.6532 27.5245 25.4456C27.191 25.036 26.7783 25.0528 26.3147 25.1314C25.5912 25.2604 24.8619 25.3614 24.1327 25.4344C23.6465 25.4793 23.5674 25.5747 23.7822 26.0235C23.8105 26.0853 23.8613 26.1358 23.867 26.1975C23.8839 26.3658 23.9518 26.5734 23.8783 26.6969C23.2508 27.7461 22.6007 28.7841 21.9506 29.8222C21.8941 29.9119 21.8093 29.9849 21.7358 30.0634L21.6567 30.0129C21.7132 29.8671 21.7584 29.7156 21.8262 29.5753C22.0524 29.1096 22.2898 28.6495 22.5216 28.1838C22.5611 28.1108 22.6177 27.9705 22.5951 27.9537C22.3915 27.8022 22.1937 27.6339 21.9619 27.5497C21.7867 27.4824 21.5945 27.5217 21.4249 27.7237C20.7069 28.5878 19.9721 29.435 19.2146 30.2654C19.0223 30.4786 18.751 30.748 18.4288 30.5628C18.1179 30.3833 18.2196 30.0185 18.2592 29.7268C18.3892 28.7449 18.7793 27.8527 19.2598 26.9998C20.0229 25.6476 20.9218 24.4076 22.2163 23.5154C22.5442 23.291 22.9569 23.1732 23.3356 23.0385C23.5843 22.9487 23.6522 23.0946 23.573 23.319C23.5561 23.3808 23.5278 23.4425 23.4995 23.4986C22.9851 24.5254 22.3124 25.44 21.4645 26.2143C21.2157 26.4387 20.8426 26.5229 20.5261 26.6688C20.4695 26.6969 20.413 26.7137 20.266 26.7754C20.4526 26.9774 20.5826 27.185 20.7635 27.2972C21.2553 27.6002 21.6906 27.3646 22.0637 27.0503C22.8551 26.377 23.4995 25.5747 23.9744 24.6545C24.1779 24.2673 24.3418 23.8353 24.4097 23.4088C24.534 22.6401 24.1157 22.1912 23.33 22.1744C22.7646 22.1632 22.2389 22.3147 21.7528 22.6008C19.7742 23.7623 18.4344 25.4849 17.5243 27.5553C17.1851 28.3296 16.976 29.1488 17.0155 30.0185C17.0381 30.5011 17.1851 30.9331 17.5356 31.2754C18.1461 31.8702 18.6832 31.8589 19.2654 31.2417C19.4802 31.0117 19.6894 30.7816 19.9099 30.5516C19.9664 30.4899 20.0455 30.4394 20.1134 30.3833C20.136 30.5011 20.119 30.5853 20.0851 30.6582C19.8138 31.3203 19.5198 31.9712 19.2711 32.6389C18.9884 33.402 19.3389 34.0528 20.1134 34.2717C20.3112 34.3278 20.4017 34.2885 20.4469 34.0641C20.5656 33.4693 20.7013 32.8801 20.8483 32.2966C20.8765 32.19 20.9613 32.0946 21.0405 32.0104C21.4023 31.6401 21.8376 31.3203 22.1146 30.8995C23.0756 29.435 23.9857 27.9369 24.9071 26.4444C25.1333 26.0796 25.5346 25.9057 26.0095 26.0123C25.7099 26.4331 25.399 26.8315 25.1276 27.2523C24.6528 27.9874 24.1949 28.7336 23.9687 29.5977C23.7031 30.6077 24.144 31.3259 25.1163 31.4437C25.3537 31.4718 25.5064 31.3988 25.6194 31.1912C25.7947 30.8714 25.9869 30.5572 26.1847 30.243C26.2752 30.0971 26.3939 29.9624 26.5296 29.7885C26.5974 29.9288 26.6426 30.0017 26.6596 30.0859C26.8122 30.6806 27.2588 30.9275 27.8015 31.051C28.4685 31.2025 28.853 30.7704 29.2261 30.344C29.8762 29.6089 30.368 28.7729 30.8032 27.892C30.905 27.6844 31.052 27.5048 31.1763 27.3141C31.2159 27.3365 31.2555 27.3533 31.2894 27.3758C31.2724 27.4768 31.2555 27.5778 31.2329 27.6788C31.1368 27.9986 31.0237 28.3128 30.9446 28.6439C30.758 29.3957 31.1877 30.1813 31.9112 30.4506C32.3183 30.6021 32.3691 30.5796 32.5896 30.2093C32.957 29.5865 33.3245 28.9581 33.6919 28.3353C33.7372 28.2623 33.7993 28.2006 33.8502 28.1333C33.8898 28.2343 33.8672 28.3072 33.8559 28.3745C33.7993 28.7561 33.7146 29.1376 33.6976 29.5248C33.6806 29.9007 33.9124 30.17 34.2346 30.243C34.5908 30.3272 34.7886 30.2149 35.0091 29.8222C35.1278 29.6089 35.2635 29.4013 35.3935 29.1937L35.4726 29.2386C35.4557 29.306 35.4444 29.3789 35.4161 29.4462C35.2126 29.9568 34.9978 30.4674 34.7943 30.978C34.636 31.3764 34.7434 31.6121 35.1165 31.7523C35.6366 31.9431 35.7327 31.9151 35.9023 31.4493C36.688 29.2498 37.8413 27.2748 39.3902 25.5242C39.6615 25.2212 39.9385 24.9238 40.2099 24.6208L40.3286 24.6769C40.306 24.8284 40.3173 24.9967 40.2608 25.137C40.0459 25.642 39.8537 26.1638 39.5767 26.6351C39.0623 27.5273 38.4179 28.3184 37.5021 28.8234C37.2307 28.9749 37.2477 29.0983 37.3947 29.3003C37.8073 29.8558 38.4744 29.9007 38.9945 29.3621C40.159 28.1557 41.0126 26.7474 41.5836 25.1651C41.804 24.5535 41.7079 23.9924 41.2839 23.4986H41.2953L41.3292 23.4762ZM29.5144 28.0996C29.113 28.6551 28.7003 29.205 28.265 29.738C28.1859 29.839 27.9767 29.8334 27.8298 29.8727C27.8184 29.7212 27.7563 29.5528 27.8071 29.4238C28.0728 28.7673 28.3668 28.1164 28.6551 27.4712C28.6947 27.387 28.7682 27.3197 28.8134 27.258C29.0678 27.4656 29.2882 27.6283 29.4804 27.819C29.5313 27.8695 29.5539 28.0379 29.5087 28.094L29.5144 28.0996ZM30.0966 26.7642C30.0401 26.955 29.9157 26.9718 29.7914 26.8259C29.5992 26.6071 29.7631 25.8552 30.0401 25.7654C30.0966 25.7486 30.2153 25.9169 30.2775 25.9786C30.204 26.3041 30.1645 26.5397 30.1023 26.7642H30.0966Z" fill="#EFEFEF"/>
<path d="M4.94096 15.6207V25.4735C4.94096 25.9449 5.05967 26.0178 5.51191 25.8775C6.27507 25.6419 6.81211 24.9798 6.84037 24.1774C6.86864 23.246 6.85168 22.3146 6.86299 21.3832C6.86864 20.5864 7.10607 19.8962 7.75051 19.3744C8.1971 19.0097 8.71152 18.8358 9.27683 18.8245C9.64427 18.8189 9.67254 18.9592 9.55382 19.2903C9.39554 19.7335 9.25987 20.1936 9.22029 20.6593C9.15246 21.4449 9.2203 22.2416 9.14681 23.0272C8.97722 24.8395 7.36045 26.433 5.54583 26.5621C4.56221 26.635 3.57858 26.6294 2.59495 26.6406C2.17663 26.6462 2.15402 26.5284 2.30665 26.1356C2.45928 25.7429 2.60061 25.3108 2.60061 24.8956C2.61757 19.5091 2.60626 14.1226 2.61191 8.73602C2.61191 7.96731 2.62322 7.193 2.71932 6.43552C2.92848 4.81395 4.31912 3.33265 5.93589 3.11943C7.0778 2.96794 8.24232 3.01843 9.40119 2.99038C9.64427 2.98477 9.72341 3.14188 9.6047 3.33826C9.24291 3.9218 9.21464 4.57267 9.20334 5.21794C9.18638 6.34574 9.22029 7.47355 9.17507 8.59574C9.1355 9.67305 8.50236 10.3464 7.51308 10.6774C7.24739 10.7672 6.93647 10.7504 6.64817 10.756C6.46727 10.756 6.38248 10.6213 6.48423 10.4698C6.90821 9.80771 6.87429 9.06145 6.87994 8.32642C6.87994 6.90684 6.86864 5.48726 6.86299 4.06769C6.86299 3.66931 6.84037 3.65247 6.45597 3.72542C5.7776 3.84886 5.17273 4.41557 5.04836 5.09449C4.98053 5.46482 4.94661 5.84637 4.94661 6.2223C4.94096 9.35322 4.94661 12.4898 4.94661 15.6207H4.95226H4.94096Z" fill="#EFEFEF"/>
<path d="M13.5105 17.3497C14.0532 17.1533 14.3302 17.2151 14.4376 17.5237C14.5337 17.7874 14.381 17.9613 13.8497 18.1689C13.9797 18.3373 14.0701 18.528 14.2228 18.629C14.6298 18.9096 15.0594 19.1677 15.489 19.4146C16.207 19.8298 16.8853 20.2843 17.3037 21.0361C17.6428 21.6534 17.7333 22.3211 17.7672 23.0112C17.7785 23.2244 17.7842 23.4432 17.7842 23.6621C17.7842 24.6122 17.526 25.4763 17.0097 26.2543C16.8571 26.4844 16.7044 26.4171 16.5462 26.3048C15.8339 25.8111 15.4382 25.1265 15.4155 24.2568C15.3986 23.6172 15.4155 22.9775 15.4155 22.3379C15.4155 21.9563 15.4155 21.5804 15.376 21.1989C15.3364 20.7444 15.2007 20.3348 14.7994 20.0486C14.3189 19.7007 13.8214 19.3697 13.6122 18.7581L13.5218 18.7918C13.5161 18.8984 13.4992 19.0106 13.4992 19.1228C13.4992 20.952 13.4992 22.7868 13.4992 24.6159C13.4992 25.2051 13.567 25.783 13.9005 26.2992C14.0193 26.4844 13.9175 26.5854 13.7479 26.6303C13.6348 26.6583 13.5105 26.6696 13.3918 26.6696C12.6456 26.6696 11.8994 26.6639 11.1532 26.6471C10.6783 26.6359 10.6727 26.5517 10.8536 26.1365C11.0175 25.7494 11.1475 25.3117 11.1475 24.8909C11.1701 20.6658 11.1645 16.4351 11.1645 12.2101C11.1645 9.97691 11.1645 7.74375 11.1645 5.51058C11.1645 4.58477 11.4867 3.84412 12.2894 3.34475C12.7077 3.08664 13.16 2.9632 13.6518 2.98003C13.9627 2.99125 14.0249 3.09225 13.8723 3.36719C13.6066 3.84412 13.5105 4.36033 13.5105 4.89898C13.5105 8.93327 13.5105 12.962 13.5105 16.9962V17.3497Z" fill="#EFEFEF"/>
<path d="M6.16192 19.3466C6.14496 19.1727 6.12801 19.0773 6.12801 18.9875C6.12801 16.7487 6.12801 14.5043 6.1167 12.2655C6.1167 11.9906 6.2128 11.9008 6.47849 11.9233C7.88044 12.0467 8.99409 11.5473 9.79682 10.3746C9.82508 10.3298 9.85335 10.2793 9.88161 10.2344L9.96641 10.268C9.97771 10.3578 10.006 10.442 10.006 10.5318C10.006 12.8154 10.006 15.0991 10.006 17.3884C10.006 17.6016 9.98337 17.7475 9.70637 17.7082C8.38356 17.5286 7.31514 18.0056 6.47284 19.0212C6.3937 19.1165 6.30325 19.2007 6.16758 19.3522L6.16192 19.3466Z" fill="#EFEFEF"/>
<path d="M28.2427 24.296C28.2257 24.122 28.2088 24.0154 28.2088 23.9144C28.2088 23.0784 28.1975 22.2479 28.2144 21.4119C28.2427 20.0428 29.2546 19.0497 30.617 19.0216C30.9787 19.016 31.0749 19.1619 30.8883 19.4705C30.5943 19.9531 30.5491 20.4973 30.5322 21.036C30.5095 21.7261 30.5322 22.4219 30.5491 23.1176C30.5548 23.4038 30.47 23.5329 30.1591 23.516C29.6786 23.488 29.2489 23.617 28.8758 23.9537C28.7175 24.0996 28.4914 24.1669 28.2483 24.3016L28.2427 24.296Z" fill="#EFEFEF"/>
<path d="M42.6578 25.7992C42.7256 25.5523 42.7878 25.3111 42.8556 25.0642C43.1043 24.0935 42.6521 22.8703 41.8494 22.3709C41.7137 22.2868 41.5611 22.2082 41.4084 22.1745C41.0806 22.1128 41.0127 21.9164 41.0184 21.619C41.0353 20.3397 41.6685 19.4195 42.7878 19.1222C43.0422 19.0548 43.3248 19.0661 43.5905 19.0548C43.811 19.0492 43.8619 19.2063 43.7714 19.3634C43.2231 20.3005 43.3757 21.3329 43.3587 22.3429C43.3474 23.1621 43.3531 23.9869 43.3022 24.8061C43.2796 25.2101 43.0761 25.5636 42.7652 25.8273L42.6691 25.7936L42.6578 25.7992Z" fill="#EFEFEF"/>
<path d="M40.3289 6.25586C40.7868 6.80573 41.3181 7.19289 42.0022 7.37244C42.6805 7.54638 43.325 7.42855 43.9581 7.16484L44.0542 7.26022C43.9468 7.52955 43.8733 7.81571 43.7207 8.05698C42.9971 9.23529 41.9004 9.68977 40.555 9.63928C40.3854 9.63367 40.2554 9.58317 40.2554 9.38117C40.2554 8.38242 40.2554 7.38928 40.261 6.39052C40.261 6.36247 40.2836 6.33441 40.3232 6.25586H40.3289Z" fill="#EFEFEF"/>
<path d="M14.7545 6.28906C15.7438 7.47298 16.9592 7.73669 18.4685 7.11949C18.3781 7.41126 18.3442 7.61886 18.2481 7.7928C17.6715 8.84205 16.8518 9.54343 15.5968 9.59393C15.3707 9.59954 15.1446 9.65003 14.9184 9.63881C14.8393 9.63881 14.6867 9.52659 14.6867 9.46487C14.6754 8.44929 14.6867 7.42809 14.6867 6.4125C14.6867 6.38445 14.7149 6.35639 14.7488 6.29467L14.7545 6.28906Z" fill="#EFEFEF"/>
<path d="M27.5357 6.27344C28.525 7.45735 29.7347 7.77157 31.1762 7.15436L31.2328 7.24975C31.1084 7.53591 31.018 7.84451 30.8597 8.10823C30.1304 9.28092 29.0337 9.70174 27.7053 9.62319C27.6148 9.61758 27.4622 9.48291 27.4622 9.40436C27.4509 8.4 27.4622 7.39002 27.4735 6.38566C27.4735 6.3576 27.5018 6.32955 27.5413 6.27344H27.5357Z" fill="#EFEFEF"/>
</svg>
