<svg width="122" height="76" viewBox="0 0 122 76" fill="none" xmlns="http://www.w3.org/2000/svg">
<path d="M109.253 30.9394V9.17941C109.253 8.88328 109.253 8.58714 109.253 8.29101C109.253 7.87642 109.443 7.74612 109.859 7.7935C111.322 7.98303 112.737 9.15572 113.058 10.6127C113.224 11.3353 113.26 12.1052 113.26 12.8515C113.26 25.0878 113.224 37.3359 113.224 49.5722C113.224 50.3658 113.248 51.1713 113.343 51.965C113.629 54.4999 115.947 56.3951 118.468 56.2056C118.908 56.1701 119.313 56.0635 118.98 55.5067C118.29 54.3814 118.207 53.1495 118.207 51.8702C118.219 39.9774 118.219 28.0728 118.207 16.18C118.207 15.2443 118.123 14.3085 117.969 13.3845C117.446 10.1507 114.461 6.97617 111.215 6.56158C108.813 6.2536 106.363 6.36021 103.926 6.31283C103.403 6.30098 103.248 6.60896 103.545 7.10647C104.211 8.21994 104.318 9.42817 104.318 10.6719C104.318 23.9151 104.318 37.1701 104.318 50.4132C104.318 51.2187 104.378 52.0242 104.259 52.806C104.128 53.6707 103.878 54.5354 103.581 55.3527C103.355 55.9805 103.343 56.1701 104.033 56.1819C105.9 56.2293 107.767 56.2056 109.633 56.1938C110.097 56.1938 110.276 55.8621 110.026 55.4949C109.182 54.2037 109.253 52.7467 109.253 51.3135C109.241 44.5142 109.253 37.7268 109.253 30.9275V30.9394Z" fill="#EFEFEF"/>
<path d="M10.3927 32.9768H10.3808C10.3808 26.367 10.3808 19.7455 10.3808 13.1357C10.3808 12.3421 10.4522 11.5366 10.5949 10.7548C10.8565 9.32153 12.1288 8.13699 13.5557 7.86454C14.3643 7.71055 14.4118 7.74609 14.4118 8.58711C14.4356 11.584 14.4594 14.5809 14.4475 17.5778C14.4475 19.1295 14.5069 20.6931 13.6151 22.1027C13.4011 22.4344 13.5914 22.7187 13.96 22.7068C14.5664 22.7068 15.2085 22.7305 15.7793 22.541C17.8602 21.8303 19.1919 20.4207 19.2752 18.1463C19.3703 15.7654 19.2871 13.3963 19.3346 11.0154C19.3584 9.64135 19.4179 8.26729 20.1789 7.04721C20.4286 6.64447 20.2621 6.30095 19.7508 6.3128C17.3251 6.37202 14.8637 6.26542 12.4617 6.58524C9.06094 7.03537 6.1358 10.1625 5.69584 13.5859C5.49369 15.185 5.46991 16.8197 5.46991 18.4425C5.45802 29.814 5.46991 41.1856 5.44613 52.5572C5.44613 53.4337 5.14886 54.3458 4.82781 55.175C4.50675 55.9923 4.55432 56.2529 5.43424 56.2411C7.50325 56.2174 9.58414 56.2292 11.6413 56.0753C15.4582 55.791 18.8709 52.4387 19.2157 48.6127C19.3703 46.9543 19.2395 45.2723 19.3703 43.6139C19.4535 42.6307 19.7389 41.6476 20.0719 40.7236C20.3216 40.0129 20.2621 39.7286 19.4892 39.7405C18.3001 39.7642 17.2181 40.1314 16.2787 40.9013C14.9231 42.0029 14.4356 43.4599 14.4118 45.142C14.388 47.1083 14.4237 49.0746 14.3643 51.041C14.3048 52.7467 13.1752 54.1445 11.5699 54.6301C10.6068 54.9263 10.3689 54.7604 10.3689 53.7773C10.3689 46.8477 10.3689 39.9182 10.3689 32.9768H10.3927Z" fill="#EFEFEF"/>
<path d="M28.4189 36.6263V35.8801C28.4189 27.3633 28.4189 18.8583 28.4189 10.3414C28.4189 9.20428 28.6211 8.1145 29.1799 7.10764C29.501 6.52722 29.3583 6.314 28.7162 6.29031C27.6817 6.25478 26.7304 6.51537 25.8505 7.04842C24.162 8.09081 23.4723 9.66625 23.4842 11.6207C23.4961 16.3352 23.4842 21.0497 23.4842 25.7641C23.4842 34.6837 23.4961 43.6151 23.4486 52.5347C23.4486 53.4113 23.1751 54.3352 22.8302 55.1644C22.4616 56.0409 22.4735 56.2186 23.4604 56.2423C25.03 56.2778 26.5996 56.2897 28.1692 56.2897C28.4189 56.2897 28.6805 56.266 28.9183 56.2068C29.287 56.112 29.501 55.8988 29.2394 55.5079C28.5497 54.4181 28.3951 53.2099 28.3951 51.9543C28.3951 48.0927 28.3951 44.2192 28.3951 40.3576C28.3951 40.1326 28.4189 39.8957 28.4427 39.6588L28.633 39.5877C29.061 40.8907 30.1193 41.5777 31.13 42.3121C31.9624 42.9162 32.2478 43.7928 32.3429 44.7404C32.4143 45.5341 32.4143 46.3396 32.4261 47.145C32.438 48.4954 32.4024 49.8458 32.4261 51.1962C32.4737 53.0322 33.3061 54.4773 34.8043 55.5197C35.1373 55.7566 35.4583 55.8988 35.7794 55.4131C36.8654 53.7706 37.4084 51.9464 37.4084 49.9406C37.4084 49.4786 37.4084 49.0285 37.3727 48.5665C37.3014 47.1214 37.123 45.6999 36.3977 44.3969C35.5178 42.8096 34.0909 41.8502 32.5807 40.9736C31.677 40.4524 30.7733 39.9075 29.9172 39.3152C29.5961 39.0902 29.4059 38.6874 29.1324 38.3439C30.2501 37.9056 30.5593 37.5266 30.369 36.9817C30.1312 36.3302 29.5604 36.1881 28.4189 36.6145V36.6263Z" fill="#EFEFEF"/>
<path d="M12.961 40.8425C13.2464 40.5345 13.4367 40.345 13.6031 40.1436C15.3749 37.9996 17.6222 36.9928 20.4047 37.3718C20.9992 37.4547 21.0349 37.1349 21.0349 36.6966C21.0349 31.8755 21.0349 27.0426 21.0349 22.2216C21.0349 22.032 20.9873 21.8544 20.9517 21.6648L20.7733 21.5938C20.7138 21.6885 20.6663 21.7951 20.5949 21.8899C18.9064 24.3537 16.5639 25.4198 13.615 25.1592C13.0561 25.1118 12.854 25.2895 12.854 25.8818C12.8778 30.6081 12.8659 35.3462 12.8778 40.0726C12.8778 40.2621 12.9135 40.4634 12.9491 40.8307L12.961 40.8425Z" fill="#EFEFEF"/>
<path d="M59.4064 51.2914C59.9177 51.0189 60.3934 50.8649 60.7263 50.557C61.5111 49.8462 62.4148 49.5856 63.4255 49.633C64.0795 49.6686 64.2579 49.3961 64.246 48.792C64.2103 47.3232 64.1628 45.8662 64.2103 44.3974C64.246 43.2602 64.3292 42.1112 64.9595 41.0925C65.3637 40.441 65.1497 40.133 64.3887 40.1449C61.523 40.2041 59.3945 42.3007 59.3351 45.191C59.2994 46.956 59.3232 48.7091 59.3232 50.474C59.3232 50.6873 59.3589 50.9123 59.3945 51.2795L59.4064 51.2914Z" fill="#EFEFEF"/>
<path d="M89.7285 54.4649L89.9306 54.536C90.5965 53.9674 91.0127 53.2211 91.0602 52.3801C91.1673 50.6507 91.1435 48.9094 91.1792 47.18C91.2148 45.0478 90.8938 42.8683 92.0472 40.8901C92.2374 40.5702 92.1304 40.2267 91.6667 40.2386C91.0959 40.2504 90.5133 40.2386 89.9782 40.3807C87.6238 41.0204 86.292 42.963 86.2563 45.6519C86.2563 46.2797 86.399 46.6943 87.0768 46.8246C87.3979 46.8838 87.7189 47.0497 88.0043 47.2392C89.6928 48.2934 90.6441 50.8757 90.1209 52.925C89.9901 53.4462 89.8474 53.9555 89.7047 54.4767L89.7285 54.4649Z" fill="#EFEFEF"/>
<path d="M84.8292 13.207C84.746 13.3729 84.6984 13.4321 84.6984 13.4913C84.6984 15.5998 84.6865 17.6964 84.6865 19.8049C84.6865 20.2313 84.9481 20.338 85.3167 20.3498C88.1468 20.4683 90.4536 19.4969 91.9756 17.0094C92.2967 16.5 92.4512 15.8841 92.6772 15.3274L92.475 15.126C91.1314 15.6946 89.7758 15.9433 88.3608 15.5643C86.9339 15.1852 85.8043 14.3679 84.8411 13.207H84.8292Z" fill="#EFEFEF"/>
<path d="M31.0352 13.2794C30.9638 13.4216 30.9044 13.4808 30.9044 13.5282C30.8925 15.6722 30.8806 17.8281 30.9044 19.9721C30.9044 20.1024 31.2135 20.3393 31.3919 20.3393C31.8675 20.3511 32.3431 20.2564 32.8188 20.2445C35.4704 20.1497 37.1827 18.6572 38.3956 16.4421C38.5977 16.0749 38.6691 15.6367 38.8593 15.0207C35.6845 16.3355 33.1279 15.767 31.047 13.2676L31.0352 13.2794Z" fill="#EFEFEF"/>
<path d="M57.9202 13.2422C57.837 13.3725 57.7775 13.4317 57.7775 13.4791C57.7656 15.5994 57.7418 17.7316 57.7537 19.8519C57.7537 20.0177 58.0748 20.302 58.265 20.3139C61.0594 20.4797 63.3781 19.5913 64.9001 17.1156C65.245 16.5589 65.4352 15.9074 65.6849 15.3033L65.566 15.1019C62.5338 16.4049 59.9892 15.7416 57.9083 13.2422H57.9202Z" fill="#EFEFEF"/>
<path d="M53.6992 51.0531C53.7349 50.7096 53.7587 50.4253 53.8181 50.1529C54.4365 47.4995 53.402 45.5687 50.8335 44.6803C50.3222 44.5026 50.3222 44.171 50.3222 43.7801C50.3222 40.2383 50.3222 36.6847 50.2985 33.1429C50.2866 30.7857 50.2866 28.4285 50.1796 26.0831C50.132 25.0407 49.5493 24.2115 48.5862 23.7258C47.9084 24.5195 47.1831 24.7327 46.3864 24.3536V25.2657C46.3864 31.5793 46.3626 37.8929 46.3864 44.2065C46.3864 44.8817 46.1367 45.1778 45.554 45.4977C44.4363 46.1018 43.4018 46.848 42.3316 47.5469C42.1057 47.6891 41.9035 47.8549 41.6895 47.997L41.4636 47.9378V44.6093C40.8452 44.6093 40.3934 44.6566 39.9534 44.5856C39.787 44.5619 39.6086 44.2894 39.5254 44.0999C39.2875 43.5432 39.5491 43.1878 40.5717 42.6548C40.4053 41.8967 39.8226 41.4939 39.24 41.1267C38.3719 40.5937 37.4445 40.1317 36.5526 39.6223C33.794 38.0588 32.5217 35.6304 32.4622 32.5151C32.4265 30.3 32.4622 28.0731 32.379 25.858C32.3552 25.2184 32.1411 24.555 31.8677 23.9627C31.4158 22.9677 31.4515 22.8493 32.5573 22.8137C35.7203 22.7071 38.1817 21.3212 39.9772 18.7271C40.7382 17.6373 41.2139 16.4172 41.2852 15.0905C41.3565 13.7046 41.3803 12.3069 41.2852 10.921C41.2139 9.92596 40.5718 9.15601 39.8107 8.54005C39.6562 8.40975 39.4302 8.38606 39.1092 8.25576C39.1686 8.57559 39.1924 8.75327 39.2281 8.9191C39.7156 10.7907 38.7406 12.5319 36.8737 13.1124C35.1971 13.6336 33.2589 12.6859 32.6881 11.0513C32.046 9.21524 32.8546 7.13045 34.662 6.60925C35.8511 6.26574 37.1948 6.2302 38.4314 6.38419C41.9511 6.82247 44.4601 8.76511 45.7324 12.0937C46.1842 13.3019 46.2912 14.6878 46.3388 15.9908C46.422 18.0756 46.3388 20.1485 46.3269 22.2333C46.3269 22.5413 46.3745 22.8611 46.4102 23.2639C47.3971 22.5887 48.4197 22.8493 49.3948 22.8611C50.0487 22.8611 50.3579 22.6716 50.3579 21.9727C50.346 18.0874 50.3698 14.1903 50.3341 10.305C50.3341 9.19155 50.1201 8.07808 49.5256 7.08307C49.2402 6.59741 49.3829 6.34865 49.9417 6.31312C52.2723 6.17097 54.7813 7.85302 55.0786 10.2932C55.1975 11.2408 55.2569 12.2003 55.2569 13.1598C55.2807 16.0856 55.2688 19.0114 55.245 21.949C55.245 22.6124 55.4234 22.8848 56.125 22.873C58.0632 22.8493 60.0014 22.9322 61.892 22.411C65.3404 21.4752 67.9326 18.3717 68.1823 14.7826C68.2655 13.5506 68.2536 12.3069 68.1823 11.0868C68.1109 9.97334 67.445 9.14416 66.5889 8.48082C66.4581 8.38606 66.2797 8.36237 66.0538 8.27945C66.1252 8.88357 66.2322 9.39292 66.2322 9.90227C66.2322 11.2882 65.2809 12.6149 64.0205 13.0531C62.4628 13.5743 61.0121 13.1361 60.0608 11.8686C59.1809 10.6959 59.1334 9.16786 59.8944 7.94778C60.5008 6.9883 61.3688 6.44342 62.4747 6.34865C66.1965 6.00514 69.3714 6.97646 71.6544 10.151C72.7008 11.608 73.1883 13.2782 73.2359 15.0313C73.3072 17.5189 73.2716 20.0182 73.2716 22.5058C73.2716 31.0344 73.2716 39.5631 73.2835 48.0918C73.2835 48.2813 73.2716 48.459 73.2835 48.6367C73.2953 49.146 73.0694 49.3 72.6057 49.1223C71.3452 48.6367 70.0848 48.5656 68.8244 49.1342C68.3963 49.3356 68.3131 49.0394 68.3131 48.6959C68.3131 47.5469 68.3131 46.4097 68.3131 45.2607C68.3131 44.6448 68.3131 44.0288 68.2774 43.4129C68.1228 41.2925 66.6008 39.8237 64.4723 39.7763C62.7601 39.7526 61.0597 39.7763 59.3474 39.7763C58.4199 39.7763 58.3961 39.6342 58.7053 38.7695C59.0263 37.8811 59.3474 36.9334 59.3712 36.0095C59.4306 32.7165 59.3712 29.4235 59.3474 26.1304C59.3474 25.6092 59.2047 25.0762 59.1096 24.4366C58.1821 24.9459 57.5638 24.8393 57.2308 23.9272C57.207 23.8561 56.8027 23.8324 56.6838 23.9272C55.8871 24.5313 55.3877 25.3487 55.3521 26.3674C55.3045 27.8125 55.3164 29.2458 55.3164 30.6909C55.3164 37.0282 55.3164 43.3655 55.3164 49.7028C55.3164 50.9702 55.2213 51.065 53.7587 51.1005H53.7468L53.6992 51.0531ZM41.3922 41.2689C41.3922 34.0669 41.4755 26.8293 41.2971 19.5681C41.0236 19.7221 40.9047 19.9116 40.7501 20.0538C39.8226 20.9185 38.9189 21.8187 37.9439 22.6242C37.5396 22.944 37.3493 23.2402 37.3493 23.7495C37.3612 27.6348 37.385 31.5201 37.3493 35.4054C37.3374 36.9453 37.932 38.1061 39.1092 39.0656C39.9059 39.7053 40.5955 40.4871 41.3922 41.2689ZM68.1942 19.3786C67.9564 19.651 67.8493 19.7932 67.7185 19.9116C66.7673 20.8119 65.8517 21.7595 64.841 22.6005C64.4248 22.944 64.2226 23.252 64.2226 23.7851C64.2345 26.6161 64.2226 29.459 64.2226 32.29C64.2226 34.055 64.2107 35.8081 64.2345 37.5731C64.2345 37.81 64.4248 38.2127 64.6031 38.2483C65.7565 38.5444 66.9337 38.7576 68.1823 39.0182V19.3786H68.1942Z" fill="#EFEFEF"/>
<path d="M75.4951 23.6088C75.3286 23.9049 75.2335 24.1063 75.1265 24.2958C74.8649 24.7578 74.4012 24.8881 74.0206 24.6512C73.7353 24.4735 73.5093 24.0234 73.4618 23.668C73.3904 23.2179 73.7234 22.8862 74.199 22.8625C74.9719 22.827 75.7448 22.827 76.5177 22.8507C77.0766 22.8625 77.2906 22.6493 77.2906 22.0807C77.2787 18.1244 77.3025 14.168 77.2669 10.2117C77.2669 9.14558 77.1123 8.07949 76.5177 7.12002C76.1729 6.56328 76.3394 6.33822 76.9934 6.30268C79.7164 6.17238 82.1064 8.29271 82.1659 11.029C82.2372 14.5945 82.1897 18.1718 82.1897 21.7372C82.1897 22.827 82.1897 22.8507 83.2955 22.8388C85.2099 22.827 87.1481 23.0047 88.9793 22.365C92.3563 21.1923 94.5918 18.9062 95.0674 15.246C95.2577 13.7534 95.1626 12.2017 95.0555 10.6855C94.9961 9.76154 94.3302 9.08635 93.6286 8.50593C93.4978 8.39932 93.3195 8.37563 93.0341 8.25717C93.0936 8.71914 93.153 9.0745 93.1887 9.42987C93.3552 11.1948 92.3207 12.711 90.644 13.1612C89.015 13.5994 87.3146 12.7466 86.5893 11.1474C85.9353 9.67862 86.4823 7.78336 87.8854 6.93049C88.361 6.6462 88.9318 6.40929 89.4668 6.35007C92.8676 6.03024 95.876 6.85942 98.1828 9.57201C99.7168 11.3725 100.216 13.5165 100.24 15.8145C100.252 18.4442 100.216 21.0739 100.216 23.7036C100.216 32.6231 100.204 41.5427 100.204 50.4741C100.204 51.327 100.169 52.1799 100.288 53.009C100.406 53.8027 100.656 54.6082 100.965 55.3544C101.239 56.0059 101.191 56.231 100.454 56.2428C98.385 56.2784 96.3516 55.1768 95.6382 53.009C95.3647 52.1799 95.3053 51.2559 95.2934 50.3794C95.2577 48.2709 95.3885 46.1624 95.2934 44.0658C95.2577 43.1892 94.9842 42.2416 94.5561 41.4835C93.9021 40.3108 92.7249 39.8014 91.3932 39.7778C89.7047 39.7541 88.0162 39.7778 86.3396 39.7778C85.3407 39.7778 85.2694 39.6001 85.7093 38.6998C85.9591 38.2023 86.185 37.6337 86.2088 37.0888C86.3039 34.6487 86.3277 32.1967 86.3396 29.7566C86.3396 28.2996 86.2801 26.8307 86.2088 25.3738C86.1969 25.0776 86.0542 24.7933 85.9709 24.4972C84.77 24.8644 84.6392 24.8052 83.9852 23.6443C83.7355 23.8339 83.462 23.9878 83.2598 24.2011C82.4869 25.0302 82.2134 26.0371 82.2253 27.1624C82.2372 32.5876 82.2491 38.0009 82.2491 43.4261C82.2491 44.4567 82.2134 45.4872 82.2372 46.5178C82.2372 47.0271 82.0589 47.193 81.5594 47.2048C80.7152 47.2167 79.9423 47.4891 79.3477 48.1169C78.8008 48.6855 78.3014 48.1287 77.7782 48.0458C77.2906 47.9629 77.3144 47.572 77.3144 47.193C77.3144 40.5359 77.3144 33.8787 77.3144 27.2216C77.3144 26.1674 77.1123 25.1724 76.3869 24.3551C76.1491 24.0945 75.8518 23.8931 75.5308 23.6088H75.4951ZM95.2458 19.6524L94.9366 19.4511C94.8534 19.6169 94.8177 19.8064 94.6988 19.9486C93.8308 21.0739 92.8557 22.0807 91.6072 22.8033C91.3932 22.9218 91.2386 23.3245 91.2386 23.5969C91.2148 28.264 91.2148 32.9311 91.191 37.5982C91.191 38.0839 91.3932 38.2615 91.8688 38.3445C92.7131 38.4866 93.5573 38.6761 94.3778 38.9249C95.222 39.1736 95.2696 39.1736 95.2696 38.2971V20.3158C95.2696 20.0907 95.2458 19.8775 95.2339 19.6524H95.2458Z" fill="#EFEFEF"/>
<path d="M109.253 30.9393C109.253 37.7385 109.253 44.5259 109.253 51.3252C109.253 52.7585 109.182 54.2154 110.026 55.5066C110.264 55.8738 110.085 56.2055 109.633 56.2055C107.767 56.2173 105.9 56.241 104.033 56.1936C103.355 56.1818 103.355 55.9923 103.581 55.3644C103.878 54.5353 104.128 53.6824 104.259 52.8177C104.378 52.0359 104.318 51.2186 104.318 50.4249C104.318 37.1818 104.318 23.9268 104.318 10.6837C104.318 9.43989 104.211 8.21981 103.545 7.11819C103.248 6.62068 103.403 6.3127 103.926 6.32455C106.363 6.37193 108.813 6.26532 111.215 6.5733C114.449 6.98789 117.446 10.1625 117.969 13.3962C118.123 14.3202 118.207 15.256 118.207 16.1918C118.219 28.0845 118.207 39.9891 118.207 51.8819C118.207 53.1494 118.29 54.3931 118.98 55.5184C119.324 56.0752 118.908 56.1818 118.468 56.2173C115.959 56.4187 113.641 54.5116 113.343 51.9767C113.248 51.183 113.224 50.3775 113.224 49.5839C113.224 37.3476 113.26 25.0995 113.26 12.8632C113.26 12.1169 113.213 11.347 113.058 10.6244C112.737 9.16744 111.322 7.99475 109.859 7.80522C109.443 7.74599 109.253 7.87629 109.253 8.30273C109.253 8.59886 109.253 8.895 109.253 9.19113V30.9511V30.9393Z" fill="#EFEFEF"/>
<path d="M86.9338 49.5619C86.2679 48.7682 85.6972 48.7564 85.0075 49.5145C84.3535 50.237 83.7233 50.9715 83.0812 51.694C83.0574 51.5282 83.1168 51.4097 83.1763 51.3031C83.6163 50.545 83.5449 50.237 82.772 49.8225C82.5223 49.6803 82.225 49.6092 81.9397 49.5263C81.3689 49.3605 80.9289 49.4552 80.6198 50.0238C80.2155 50.7345 79.7399 51.4097 79.3356 52.1323C78.0989 54.3711 76.9098 56.6336 75.2451 58.5999C74.8884 59.0263 74.5198 59.4291 74.1512 59.8437L73.9609 59.737C74.0204 59.4883 74.0322 59.2277 74.1393 59.0026C75.3283 56.5862 76.5055 54.1697 77.7303 51.7769C78.2059 50.853 78.194 50.7109 77.2071 50.3673C77.0763 50.32 76.9455 50.2726 76.8147 50.237C76.1131 50.0594 75.5305 50.1541 75.1262 50.8648C74.6981 51.6111 74.1749 52.3218 73.7112 53.0444C72.1178 55.5438 70.5126 58.0432 68.9073 60.5425C68.7646 60.7676 68.5268 60.9334 68.3365 61.123L68.0868 61.0163C68.1701 60.4478 68.1701 59.8555 68.3365 59.3106C69.1213 56.7875 70.2747 54.4422 71.9276 52.3574C72.0703 52.1915 72.1773 51.8125 72.094 51.6703C71.559 50.8412 69.811 50.8412 69.264 51.6585C68.6814 52.535 68.1582 53.4471 67.5874 54.3237C67.2069 54.9041 66.7788 55.4372 65.9346 55.7333C65.9346 55.0818 65.9584 54.5843 65.9346 54.0986C65.8395 52.5943 63.7823 51.315 62.4625 52.002C61.5944 52.4521 60.7264 53.0326 60.0724 53.7433C58.6098 55.3306 57.504 57.1784 56.743 59.2158C56.1603 60.8031 55.0069 61.9166 53.8773 63.0893C53.794 63.1722 53.6514 63.2077 53.366 63.3499C53.4373 62.8998 53.4373 62.5562 53.5443 62.2601C53.9486 61.2651 54.2935 60.2227 54.8523 59.3225C55.7917 57.8181 56.8381 56.3848 57.9083 54.9634C58.2769 54.4658 58.2531 54.1579 57.8964 53.7196C57.1948 52.8549 56.3268 52.8904 55.3517 53.0562C53.8297 53.3287 52.2958 53.5419 50.7619 53.6959C49.7393 53.7907 49.5728 53.992 50.0246 54.9397C50.0841 55.07 50.1911 55.1766 50.203 55.3069C50.2387 55.6622 50.3814 56.1005 50.2268 56.3611C48.9069 58.5762 47.5395 60.7676 46.172 62.959C46.0531 63.1485 45.8747 63.3025 45.7202 63.4683L45.5537 63.3617C45.6726 63.0538 45.7677 62.7339 45.9104 62.4378C46.386 61.4546 46.8855 60.4833 47.373 59.5001C47.4562 59.3461 47.5751 59.05 47.5276 59.0145C47.0995 58.6946 46.6833 58.3393 46.1958 58.1616C45.8272 58.0195 45.4229 58.1024 45.0662 58.5288C43.556 60.353 42.0102 62.1417 40.4168 63.8948C40.0126 64.3449 39.4418 64.9135 38.764 64.5226C38.11 64.1435 38.3241 63.3736 38.4073 62.7576C38.6808 60.6847 39.5013 58.8013 40.512 57.0008C42.1172 54.146 44.0079 51.5282 46.7309 49.6448C47.4205 49.171 48.2886 48.9222 49.0853 48.6379C49.6085 48.4484 49.7512 48.7564 49.5847 49.2302C49.549 49.3605 49.4896 49.4908 49.4301 49.6092C48.348 51.7769 46.933 53.7077 45.1494 55.3424C44.6262 55.8162 43.8414 55.9939 43.1755 56.3019C43.0566 56.3611 42.9377 56.3966 42.6285 56.5269C43.0209 56.9534 43.2944 57.3917 43.6749 57.6286C44.7094 58.2682 45.625 57.7707 46.4098 57.1074C48.0745 55.6859 49.4301 53.992 50.4289 52.0494C50.857 51.2321 51.2018 50.32 51.3445 49.4197C51.6061 47.7969 50.7262 46.8493 49.0734 46.8137C47.8843 46.79 46.7784 47.1099 45.7558 47.714C41.594 50.166 38.7759 53.8025 36.8615 58.1735C36.148 59.8081 35.7081 61.5375 35.7913 63.3736C35.8389 64.3923 36.148 65.3044 36.8853 66.0269C38.1695 67.2826 39.2991 67.2589 40.5239 65.9559C40.9757 65.4702 41.4157 64.9846 41.8794 64.4989C41.9983 64.3686 42.1648 64.262 42.3075 64.1435C42.3551 64.3923 42.3194 64.57 42.248 64.7239C41.6773 66.1217 41.059 67.4958 40.5358 68.9054C39.9412 70.5163 40.6784 71.8904 42.3075 72.3524C42.7237 72.4708 42.9139 72.3879 43.009 71.9141C43.2588 70.6585 43.5441 69.4147 43.8533 68.1828C43.9128 67.9577 44.0911 67.7564 44.2576 67.5787C45.0186 66.7969 45.9342 66.1217 46.5168 65.2333C48.5383 62.1417 50.4527 58.9789 52.3909 55.8281C52.8666 55.0581 53.7108 54.6909 54.7096 54.916C54.0794 55.8044 53.4254 56.6454 52.8547 57.5338C51.8558 59.0855 50.8927 60.661 50.417 62.4852C49.8582 64.6173 50.7857 66.1336 52.8309 66.3823C53.3303 66.4415 53.6513 66.2875 53.8892 65.8493C54.2578 65.1741 54.6621 64.5107 55.0782 63.8474C55.2685 63.5394 55.5182 63.2551 55.8036 62.8879C55.9463 63.1841 56.0414 63.338 56.0771 63.5157C56.3981 64.7713 57.3375 65.2925 58.479 65.5531C59.8821 65.873 60.6907 64.9609 61.4755 64.0606C62.843 62.5089 63.8775 60.7439 64.7931 58.8842C65.0071 58.4459 65.3163 58.0668 65.5779 57.6641C65.6611 57.7115 65.7443 57.747 65.8157 57.7944C65.78 58.0076 65.7443 58.2208 65.6968 58.4341C65.4946 59.1092 65.2568 59.7726 65.0903 60.4715C64.6979 62.0587 65.6016 63.7171 67.1237 64.2857C67.9798 64.6055 68.0868 64.5581 68.5506 63.7763C69.3235 62.4615 70.0964 61.1348 70.8693 59.82C70.9644 59.666 71.0952 59.5357 71.2022 59.3935C71.2855 59.6067 71.2379 59.7607 71.2141 59.9029C71.0952 60.7084 70.9168 61.5139 70.8812 62.3312C70.8455 63.1248 71.333 63.6934 72.0108 63.8474C72.7599 64.0251 73.1761 63.7882 73.6398 62.959C73.8896 62.5089 74.1749 62.0706 74.4484 61.6323L74.6149 61.7271C74.5792 61.8692 74.5554 62.0232 74.496 62.1653C74.0679 63.2433 73.6161 64.3212 73.188 65.3991C72.8551 66.2402 73.081 66.7377 73.8658 67.0338C74.9597 67.4365 75.1619 67.3773 75.5186 66.3941C77.1714 61.7508 79.5972 57.5812 82.8553 53.8854C83.426 53.2458 84.0087 52.618 84.5794 51.9783L84.8291 52.0968C84.7816 52.4166 84.8053 52.772 84.6864 53.0681C84.2346 54.1342 83.8303 55.2358 83.2477 56.2308C82.1656 58.1142 80.81 59.7844 78.8837 60.8505C78.3129 61.1703 78.3486 61.4309 78.6578 61.8574C79.5258 63.0301 80.9289 63.1248 82.0229 61.9877C84.4724 59.4409 86.2679 56.4677 87.4689 53.1273C87.9326 51.8362 87.7305 50.6516 86.8387 49.6092H86.8625L86.9338 49.5619ZM62.082 59.3225C61.2377 60.4952 60.3697 61.656 59.4541 62.7813C59.2876 62.9945 58.8476 62.9827 58.5385 63.0656C58.5147 62.7458 58.3839 62.3904 58.4909 62.118C59.0498 60.7321 59.6681 59.358 60.2745 57.9958C60.3578 57.8181 60.5124 57.6759 60.6075 57.5456C61.1426 57.9839 61.6063 58.3274 62.0106 58.7302C62.1176 58.8368 62.1652 59.1922 62.0701 59.3106L62.082 59.3225ZM63.3067 56.5033C63.1878 56.906 62.9262 56.9415 62.6646 56.6336C62.2603 56.1716 62.6052 54.5843 63.1878 54.3948C63.3067 54.3592 63.5564 54.7146 63.6872 54.8449C63.5326 55.5319 63.4494 56.0294 63.3186 56.5033H63.3067Z" fill="#EFEFEF"/>
<path d="M10.3924 32.9768V53.7773C10.3924 54.7723 10.6421 54.9263 11.5933 54.6301C13.1986 54.1326 14.3282 52.7349 14.3877 51.041C14.4472 49.0746 14.4115 47.1083 14.4353 45.142C14.4472 43.4599 14.9466 42.0029 16.3021 40.9013C17.2415 40.1314 18.3236 39.7642 19.5126 39.7405C20.2856 39.7286 20.345 40.0248 20.0953 40.7237C19.7624 41.6594 19.477 42.6308 19.3937 43.6139C19.251 45.2723 19.3937 46.9543 19.2392 48.6127C18.8824 52.4387 15.4817 55.8028 11.6647 56.0753C9.59569 56.2293 7.52668 56.2174 5.45768 56.2411C4.57775 56.253 4.53019 56.0042 4.85124 55.175C5.1723 54.3458 5.46957 53.4338 5.46957 52.5572C5.50524 41.1856 5.48146 29.8141 5.49335 18.4425C5.49335 16.8197 5.51713 15.185 5.71927 13.5859C6.15924 10.1626 9.08438 7.03538 12.4852 6.58525C14.8871 6.26543 17.3366 6.37203 19.7742 6.31281C20.2856 6.30096 20.452 6.63263 20.2023 7.04722C19.4413 8.27914 19.3818 9.65321 19.3581 11.0154C19.3224 13.3963 19.3937 15.7773 19.2986 18.1463C19.2154 20.4207 17.8836 21.8421 15.8027 22.541C15.2438 22.7305 14.5898 22.695 13.9834 22.7068C13.6029 22.7068 13.4245 22.4225 13.6386 22.1027C14.5304 20.7049 14.459 19.1295 14.4709 17.5778C14.4709 14.5809 14.4472 11.584 14.4353 8.58712C14.4353 7.7461 14.3877 7.71056 13.5791 7.86455C12.1522 8.12515 10.8799 9.32154 10.6183 10.7548C10.4756 11.5366 10.4043 12.3421 10.4043 13.1357C10.3924 19.7455 10.4043 26.367 10.4043 32.9768H10.4162H10.3924Z" fill="#EFEFEF"/>
<path d="M28.419 36.6263C29.5605 36.2118 30.1432 36.3421 30.3691 36.9935C30.5712 37.5503 30.2502 37.9175 29.1324 38.3558C29.4059 38.7111 29.5962 39.1139 29.9172 39.3271C30.7734 39.9194 31.6771 40.4642 32.5808 40.9854C34.0909 41.862 35.5178 42.8215 36.3978 44.4088C37.1112 45.7118 37.3015 47.1214 37.3728 48.5783C37.3966 49.0285 37.4085 49.4904 37.4085 49.9524C37.4085 51.9582 36.8655 53.7824 35.7794 55.425C35.4584 55.9106 35.1373 55.7685 34.8044 55.5316C33.3061 54.4892 32.4738 53.044 32.4262 51.208C32.3905 49.8576 32.4262 48.5073 32.4262 47.1569C32.4262 46.3514 32.4262 45.5578 32.343 44.7523C32.2597 43.7928 31.9744 42.9281 31.1301 42.324C30.1194 41.5896 29.073 40.8907 28.633 39.5995L28.4428 39.6706C28.4309 39.8957 28.3952 40.1326 28.3952 40.3695C28.3952 44.2311 28.3952 48.1045 28.3952 51.9661C28.3952 53.2099 28.5379 54.43 29.2395 55.5197C29.4892 55.9106 29.2751 56.1238 28.9184 56.2186C28.6806 56.2778 28.419 56.3015 28.1693 56.3015C26.5997 56.3015 25.0301 56.2897 23.4605 56.2542C22.4617 56.2305 22.4498 56.0528 22.8303 55.1762C23.1751 54.3589 23.4486 53.4349 23.4486 52.5465C23.4962 43.627 23.4843 34.6955 23.4843 25.776C23.4843 21.0615 23.4843 16.347 23.4843 11.6326C23.4843 9.67809 24.1621 8.1145 25.8506 7.06026C26.7305 6.51537 27.6818 6.25477 28.7163 6.29031C29.3703 6.314 29.5011 6.52722 29.18 7.10764C28.6211 8.1145 28.419 9.20427 28.419 10.3414C28.419 18.8583 28.419 27.3633 28.419 35.8801V36.6263Z" fill="#EFEFEF"/>
<path d="M12.9608 40.8424C12.9252 40.4752 12.8895 40.2738 12.8895 40.0843C12.8895 35.358 12.8895 30.6198 12.8657 25.8935C12.8657 25.3131 13.0679 25.1235 13.6267 25.1709C16.5757 25.4315 18.9182 24.3773 20.6067 21.9016C20.6661 21.8068 20.7256 21.7002 20.785 21.6055L20.9634 21.6765C20.9872 21.8661 21.0466 22.0437 21.0466 22.2333C21.0466 27.0543 21.0466 31.8754 21.0466 36.7083C21.0466 37.1585 20.9991 37.4664 20.4164 37.3835C17.6339 37.0045 15.3866 38.0113 13.6148 40.1553C13.4484 40.3567 13.2581 40.5344 12.9727 40.8542L12.9608 40.8424Z" fill="#EFEFEF"/>
<path d="M59.4067 51.2912C59.3711 50.924 59.3354 50.699 59.3354 50.4858C59.3354 48.7208 59.3116 46.9677 59.3473 45.2027C59.4067 42.3124 61.5352 40.2158 64.4009 40.1566C65.1619 40.1447 65.3641 40.4527 64.9717 41.1042C64.3533 42.1229 64.2582 43.2719 64.2225 44.4091C64.175 45.8661 64.2225 47.3349 64.2582 48.8037C64.2701 49.4078 64.0917 49.6803 63.4377 49.6447C62.427 49.5855 61.5233 49.8579 60.7385 50.5687C60.4056 50.8766 59.9299 51.0188 59.4186 51.3031L59.4067 51.2912Z" fill="#EFEFEF"/>
<path d="M89.7283 54.465C89.871 53.9438 90.0018 53.4345 90.1445 52.9133C90.6677 50.864 89.7164 48.2817 88.0279 47.2275C87.7425 47.0498 87.4215 46.884 87.1004 46.8129C86.4108 46.6826 86.2681 46.268 86.28 45.6402C86.3156 42.9395 87.6474 40.9968 90.0018 40.369C90.5369 40.2269 91.1314 40.2506 91.6903 40.2269C92.154 40.215 92.2611 40.5467 92.0708 40.8784C90.9174 42.8565 91.2384 45.0361 91.2028 47.1683C91.179 48.8977 91.1909 50.639 91.0839 52.3684C91.0363 53.2213 90.6082 53.9675 89.9542 54.5243L89.7521 54.4532L89.7283 54.465Z" fill="#EFEFEF"/>
<path d="M84.8294 13.207C85.7925 14.3679 86.9103 15.1852 88.3491 15.5643C89.776 15.9315 91.1315 15.6827 92.4633 15.126L92.6654 15.3274C92.4395 15.8959 92.2849 16.5 91.9639 17.0094C90.4419 19.4969 88.135 20.4564 85.305 20.3498C84.9483 20.338 84.6748 20.2313 84.6748 19.8049C84.6748 17.6964 84.6748 15.5998 84.6867 13.4913C84.6867 13.4321 84.7343 13.3729 84.8175 13.207H84.8294Z" fill="#EFEFEF"/>
<path d="M31.0351 13.2793C33.116 15.7787 35.6725 16.3354 38.8474 15.0324C38.6571 15.6484 38.5858 16.0867 38.3836 16.4539C37.1708 18.6689 35.4466 20.1496 32.8068 20.2562C32.3312 20.2681 31.8556 20.3747 31.3799 20.351C31.2135 20.351 30.8924 20.1141 30.8924 19.9838C30.8686 17.8398 30.8924 15.6839 30.8924 13.5399C30.8924 13.4807 30.9519 13.4214 31.0232 13.2911L31.0351 13.2793Z" fill="#EFEFEF"/>
<path d="M57.9203 13.2422C60.0012 15.7416 62.5458 16.4049 65.578 15.1019L65.6969 15.3033C65.4353 15.9074 65.245 16.5589 64.9121 17.1156C63.3782 19.5913 61.0714 20.4797 58.277 20.3139C58.0868 20.302 57.7657 20.0177 57.7657 19.8519C57.7419 17.7316 57.7657 15.5994 57.7895 13.4791C57.7895 13.4199 57.8489 13.3606 57.9322 13.2422H57.9203Z" fill="#EFEFEF"/>
</svg>
