<svg width="21" height="25" viewBox="0 0 21 25" fill="none" xmlns="http://www.w3.org/2000/svg">
<path d="M10.4072 0C10.5794 0.0196375 10.8627 0.0813555 11.1072 0.291758C11.1461 0.325422 11.2197 0.388543 11.2891 0.490939C11.4183 0.680301 11.4724 0.906133 11.4738 1.1502C11.4752 1.49526 11.4738 1.84032 11.4738 2.1433C12.0822 2.33967 12.6766 2.50799 13.2544 2.7212C13.9016 2.95966 14.4738 3.33979 15.0058 3.78023C15.6391 4.30343 16.1877 4.90097 16.6155 5.60652C17.103 6.41026 17.4447 7.2701 17.5933 8.20569C17.8155 9.61258 17.7197 11.0293 17.7197 12.4418C17.7197 13.6621 18.021 14.7885 18.6002 15.8461C19.0016 16.5797 19.5141 17.2193 20.1516 17.7664C21.203 18.6683 21.0447 20.3389 19.6322 20.9448C19.4363 21.029 19.2002 21.05 18.9822 21.0514C13.2683 21.0571 7.55439 21.0486 1.84051 21.0627C0.876618 21.0655 -0.016437 20.2169 0.000229656 19.2378C0.0113408 18.5491 0.315507 18.0651 0.822451 17.6373C1.32106 17.2165 1.71273 16.6891 2.06412 16.1322C2.56412 15.3383 2.86689 14.4715 3.02801 13.5541C3.10162 13.1333 3.12106 12.6999 3.12662 12.2721C3.14051 11.2453 3.13078 10.2171 3.13078 9.18897C3.13078 8.28564 3.36689 7.43842 3.69745 6.60803C4.12662 5.52657 4.82106 4.63727 5.67661 3.87982C6.50995 3.14201 7.478 2.63564 8.56272 2.37193C8.77661 2.32004 8.9905 2.26814 9.20578 2.22325C9.33356 2.1966 9.39467 2.1433 9.38633 1.99882C9.37383 1.75335 9.40022 1.50367 9.37939 1.25961C9.37106 1.16002 9.36133 0.767267 9.54606 0.474106C9.77244 0.11502 10.2169 0.0252483 10.4044 0H10.4072Z" fill="white"/>
<path d="M13.7014 21.6836C13.7014 23.5155 12.232 24.9995 10.4181 24.9995C8.60421 24.9995 7.13477 23.5155 7.13477 21.6836" fill="white"/>
</svg>
