<svg width="44" height="53" viewBox="0 0 44 53" fill="none" xmlns="http://www.w3.org/2000/svg">
<path d="M22.4135 25.0841C16.8101 25.0841 11.2067 25.0813 5.60329 25.0899C4.92662 25.0899 4.37089 24.9381 4.04263 24.2853C3.56753 23.3348 4.3277 22.2469 5.21745 22.2555C5.36142 22.2555 5.50827 22.2469 5.65224 22.2469C16.859 22.2469 28.0658 22.2497 39.2726 22.2383C40.0443 22.2383 40.7642 22.6821 40.9196 23.2976C41.1097 24.062 40.6202 24.9267 39.8312 25.0498C39.6181 25.0841 39.3993 25.087 39.1833 25.087C33.5943 25.087 28.0053 25.087 22.4163 25.087L22.4135 25.0841Z" fill="white"/>
<path d="M12.684 7.0332C13.5191 7.07615 14.3483 7.11909 15.1776 7.16204C15.6383 7.18494 15.9435 7.5056 16.0904 7.85203C16.5223 8.87126 15.9176 9.91054 14.7716 9.92199C13.5277 9.93344 12.2838 9.91626 11.0399 9.92772C9.8852 9.93917 9.08759 10.5977 8.74494 11.6283C8.65568 11.8917 8.67583 12.1981 8.67295 12.4844C8.66431 13.621 8.65856 14.7576 8.67295 15.8942C8.68447 16.6358 8.27847 17.3315 7.34553 17.529C6.72933 17.6607 5.83094 16.9478 5.82806 16.3151C5.8223 14.938 5.8367 13.5609 5.82806 12.1838C5.81367 9.81033 7.5183 7.68597 9.93127 7.19067C10.821 7.00744 11.7597 7.07901 12.6783 7.03607L12.684 7.0332Z" fill="white"/>
<path d="M39.0912 14.1194C39.0912 14.7807 39.1171 15.445 39.0854 16.1063C39.0365 17.0912 38.0258 17.7869 37.1418 17.4319C36.635 17.2258 36.2751 16.8278 36.2665 16.238C36.2521 14.9726 36.2751 13.7042 36.2463 12.4388C36.2233 11.3737 35.7798 10.5292 34.7403 10.1169C34.4207 9.99091 34.055 9.93937 33.7066 9.93364C32.4915 9.91074 31.2764 9.92506 30.0584 9.92219C29.2579 9.92219 28.6618 9.32955 28.6215 8.57085C28.5841 7.83505 29.0995 7.0878 30.0469 7.07921C31.3196 7.06776 32.5952 7.03627 33.8679 7.08494C36.373 7.17942 38.3915 8.67964 38.9443 11.2163C39.1488 12.1525 39.0854 13.1488 39.143 14.1194C39.1229 14.1194 39.1056 14.1194 39.0854 14.1222L39.0912 14.1194Z" fill="white"/>
<path d="M32.0394 40.2557C31.403 40.2557 30.7667 40.2557 30.1303 40.2557C29.2463 40.2557 28.6589 39.7002 28.6272 38.8871C28.5956 38.0597 29.1657 37.4213 30.113 37.4098C31.2994 37.3955 32.4857 37.3955 33.672 37.4098C35.201 37.4299 36.2434 36.3534 36.252 34.8474C36.2578 33.6822 36.2721 32.514 36.2462 31.3488C36.2347 30.7619 36.442 30.258 36.9258 30.0146C37.447 29.7512 38.0948 29.7398 38.5584 30.1778C38.8233 30.4269 39.0566 30.8449 39.0681 31.1942C39.117 32.6314 39.1574 34.0773 39.0451 35.5059C38.8493 37.9423 37.0093 39.8176 34.7086 40.1554C33.8333 40.2843 32.932 40.2528 32.0451 40.2929C32.0451 40.2786 32.0451 40.2671 32.0451 40.2528L32.0394 40.2557Z" fill="white"/>
<path d="M12.6754 40.2569C11.9671 40.2569 11.253 40.3084 10.5475 40.2454C9.10781 40.1195 7.90708 39.481 6.99718 38.3587C6.36082 37.5742 5.92603 36.6838 5.85692 35.6531C5.83964 35.3955 5.82812 35.1378 5.82812 34.8773C5.831 33.6118 5.83964 32.3435 5.84828 31.078C5.85116 30.5341 6.33491 29.9643 6.86184 29.8842C7.9186 29.7238 8.65574 30.3537 8.66725 31.4187C8.68165 32.7271 8.71621 34.0355 8.71045 35.3439C8.70469 36.3775 9.8651 37.3967 10.8067 37.4024C12.1082 37.4082 13.4126 37.3767 14.7141 37.4168C15.886 37.454 16.4763 38.3072 16.1106 39.4094C15.958 39.8732 15.3677 40.2512 14.8437 40.254C14.1209 40.2597 13.3953 40.254 12.6726 40.254L12.6754 40.2569Z" fill="white"/>
</svg>
