<svg width="7" height="7" viewBox="0 0 7 7" fill="none" xmlns="http://www.w3.org/2000/svg">
<path d="M6.99781 2.50057C7.01307 2.62781 6.94721 2.73656 6.842 2.8318C6.49666 3.14526 6.16015 3.46725 5.80195 3.76863C5.61161 3.92856 5.5835 4.11337 5.61803 4.31452C5.69353 4.75237 5.78508 5.18738 5.8662 5.62451C5.90475 5.83349 5.82444 6.00621 5.62124 6.11781C5.43251 6.22087 5.23815 6.19599 5.04861 6.10217C4.61251 5.88751 4.17641 5.67285 3.73549 5.46601C3.56282 5.38498 3.39175 5.40488 3.21747 5.49302C2.77897 5.71336 2.33724 5.92802 1.8899 6.13273C1.71642 6.21163 1.52608 6.21234 1.35662 6.10359C1.1711 5.98489 1.10203 5.81927 1.13897 5.62309C1.22089 5.18169 1.31325 4.74242 1.38955 4.30031C1.42489 4.09702 1.38072 3.91648 1.19118 3.75797C0.83539 3.46086 0.505304 3.13958 0.160761 2.8318C-0.0030781 2.68538 -0.0303847 2.50839 0.0282439 2.32572C0.0957068 2.11461 0.282836 2.02292 0.522169 1.99307C0.94301 1.94047 1.36144 1.87579 1.78228 1.82674C1.97744 1.804 2.16537 1.7777 2.28665 1.62416C2.34367 1.55237 2.38543 1.47063 2.4288 1.39102C2.6328 1.01644 2.83358 0.639715 3.03838 0.265126C3.13154 0.0952467 3.2753 0 3.50339 0C3.73228 0 3.87524 0.096668 3.9676 0.266548C4.18685 0.672411 4.40049 1.08041 4.61813 1.48698C4.72174 1.68103 4.88879 1.7912 5.13856 1.8175C5.48953 1.85375 5.83729 1.90706 6.18665 1.95539C6.328 1.97459 6.47256 1.98738 6.60909 2.02221C6.88457 2.09187 6.99781 2.23687 6.99701 2.50128L6.99781 2.50057Z" fill="white"/>
</svg>
