<svg width="23" height="22" viewBox="0 0 23 22" fill="none" xmlns="http://www.w3.org/2000/svg">
<path d="M0.00336813 5.625C0.0202084 5.66542 0.0370488 5.70583 0.0538891 5.74793C0.0353648 5.80687 0.0185243 5.86582 0 5.92476C0 5.8254 0.0016841 5.72604 0.00336813 5.62668V5.625Z" fill="#F1C92E"/>
<path d="M1.08148 4.00299C1.06962 3.97419 1.05776 3.94539 1.0459 3.91829C1.06115 3.91659 1.073 3.92168 1.08317 3.93353C1.08317 3.95725 1.08317 3.98097 1.08148 4.00299Z" fill="#F8E599"/>
<path d="M2.47239 5.80738C2.75531 5.36448 2.99444 4.88454 3.33124 4.48879C3.79435 3.94653 4.33324 3.46659 4.84013 2.95969C5.14831 3.15336 5.42112 3.1281 5.72761 2.90581C7.25165 1.79603 8.97273 1.17968 10.847 1.04496C12.3273 0.937179 13.7773 1.146 15.1649 1.70004C17.5023 2.63131 19.2739 4.19914 20.4342 6.43215C21.2206 7.94609 21.5457 9.55771 21.5052 11.2737C21.4716 12.722 21.155 14.0743 20.5167 15.3592C20.3551 15.6859 20.3786 15.9536 20.6447 16.2012C20.3618 16.634 20.1142 17.0971 19.7875 17.4928C19.3379 18.0368 18.826 18.5319 18.341 19.0472C18.0159 18.8384 17.7212 18.8131 17.3811 19.0674C15.7796 20.2647 13.9406 20.8222 11.9686 20.972C10.9902 21.0461 10.0219 20.8845 9.07714 20.6386C6.97716 20.0947 5.22072 18.9899 3.85161 17.3042C2.12211 15.179 1.38451 12.7456 1.62701 10.0158C1.7331 8.83358 2.05644 7.71033 2.57848 6.64771C2.7351 6.32775 2.75194 6.05999 2.47576 5.80907L2.47239 5.80738ZM18.8849 9.0626C18.8849 8.43615 18.6491 8.0926 18.0715 7.92757C17.7852 7.84505 17.4821 7.81642 17.1857 7.76927C16.4532 7.65644 15.724 7.53014 14.9881 7.44257C14.4643 7.38026 14.1141 7.11924 13.8968 6.6595C13.4404 5.69624 12.9925 4.7296 12.5328 3.76803C12.3408 3.36554 12.0393 3.1382 11.5594 3.13652C11.0811 3.13652 10.7797 3.36218 10.5843 3.76466C10.1549 4.65214 9.73391 5.54299 9.30617 6.43215C9.21523 6.62077 9.12766 6.81443 9.00809 6.98452C8.75381 7.34827 8.35974 7.41057 7.95052 7.46446C7.0681 7.58066 6.18903 7.73391 5.30829 7.85852C4.80645 7.92925 4.41407 8.14649 4.27261 8.64665C4.14968 9.07944 4.20694 9.49708 4.55048 9.84568C5.27292 10.5749 5.96506 11.336 6.71108 12.04C7.10851 12.4155 7.19945 12.8416 7.12704 13.3249C6.96705 14.3723 6.77339 15.4131 6.60162 16.4588C6.52584 16.9253 6.67067 17.316 7.05799 17.5972C7.41164 17.8549 7.81244 17.8532 8.17619 17.6663C9.11419 17.1813 10.0404 16.6727 10.9599 16.1507C11.3253 15.9435 11.6857 15.8947 12.0461 16.0867C12.9706 16.5784 13.885 17.0853 14.7995 17.5939C15.1986 17.8162 15.6061 17.8751 16.0002 17.6309C16.4262 17.3665 16.5946 16.9573 16.5138 16.4622C16.3437 15.4265 16.1517 14.3959 15.9934 13.3586C15.921 12.8803 15.98 12.4441 16.3791 12.0652C17.1301 11.3512 17.8358 10.5883 18.5599 9.84568C18.7805 9.62002 18.9169 9.36236 18.8866 9.06092L18.8849 9.0626Z" fill="#FF8A39"/>
<path d="M20.6425 16.1978C20.3764 15.9502 20.3529 15.6824 20.5145 15.3557C21.1528 14.0691 21.4694 12.7186 21.5031 11.2703C21.5435 9.55427 21.2185 7.94266 20.432 6.42872C19.2717 4.1957 17.5018 2.62787 15.1627 1.69661C13.7751 1.14425 12.3234 0.935427 10.8449 1.04152C8.97053 1.17793 7.24946 1.7926 5.72542 2.90237C5.42061 3.12466 5.1478 3.14992 4.83793 2.95626C4.64596 2.43084 4.64596 2.39211 5.10569 2.05699C6.51017 1.0331 8.06958 0.357807 9.79402 0.132147C10.6866 0.0159496 11.601 -0.0261514 12.4986 0.0159492C13.6336 0.069838 14.7316 0.371279 15.7875 0.809126C16.8467 1.24697 17.8235 1.82628 18.684 2.5723C19.6456 3.40589 20.4741 4.36074 21.1124 5.47219C21.754 6.5887 22.1834 7.78099 22.4141 9.04401C22.6027 10.0763 22.6246 11.112 22.5202 12.1561C22.3905 13.4477 22.0234 14.667 21.4559 15.829C21.2437 16.2634 21.1039 16.3224 20.6408 16.191L20.6425 16.1978Z" fill="#F93B11"/>
<path d="M2.47242 5.80569C2.7486 6.05661 2.73344 6.32268 2.57514 6.64433C2.05478 7.70695 1.72976 8.8302 1.62367 10.0124C1.38117 12.7405 2.11877 15.1739 3.84827 17.3008C5.21907 18.9866 6.97382 20.0913 9.0738 20.6352C10.0185 20.8794 10.9852 21.0428 11.9653 20.9687C13.9356 20.8205 15.7762 20.263 17.3777 19.064C17.7179 18.8097 18.0126 18.8333 18.3376 19.0438C18.501 19.4935 18.2585 19.7444 17.9183 19.9869C16.5239 20.9788 14.9763 21.5934 13.2973 21.8662C12.1135 22.0599 10.9262 22.033 9.73394 21.8393C7.7771 21.521 6.05097 20.7161 4.5303 19.4749C3.15445 18.3517 2.12888 16.9539 1.41822 15.3204C0.702508 13.6735 0.43138 11.9541 0.544209 10.1791C0.635147 8.7561 1.01574 7.39709 1.65398 6.11723C1.84259 5.73833 2.05478 5.66591 2.47073 5.80737L2.47242 5.80569Z" fill="#F93B11"/>
<path d="M18.8841 9.06307C18.9161 9.36452 18.778 9.62217 18.5574 9.84783C17.8333 10.5905 17.1277 11.3534 16.3766 12.0674C15.9775 12.4463 15.9186 12.8841 15.991 13.3607C16.1493 14.3981 16.3413 15.4287 16.5113 16.4644C16.5922 16.9595 16.4238 17.3687 15.9977 17.6331C15.602 17.8773 15.1944 17.8183 14.797 17.596C13.8826 17.0875 12.9682 16.5789 12.0436 16.0888C11.6816 15.8969 11.3229 15.944 10.9574 16.1528C10.0379 16.6749 9.11173 17.1834 8.17373 17.6684C7.80998 17.8554 7.41087 17.8571 7.05554 17.5994C6.66653 17.3182 6.5217 16.9258 6.59917 16.461C6.77094 15.4152 6.9646 14.3745 7.12458 13.327C7.19868 12.8454 7.10606 12.4177 6.70863 12.0421C5.96261 11.3382 5.27047 10.577 4.54802 9.84783C4.20448 9.50092 4.14723 9.0816 4.27016 8.6488C4.41162 8.14865 4.804 7.93141 5.30584 7.86068C6.18827 7.73606 7.06564 7.58282 7.94807 7.46662C8.35729 7.41273 8.75135 7.35042 9.00564 6.98667C9.12521 6.81658 9.21278 6.62292 9.30371 6.43431C9.73146 5.54683 10.1525 4.6543 10.5819 3.76681C10.7772 3.36433 11.0787 3.13867 11.5569 3.13867C12.0369 3.13867 12.3366 3.3677 12.5303 3.77018C12.99 4.73176 13.438 5.69839 13.8944 6.66165C14.1116 7.12139 14.4619 7.38242 14.9856 7.44473C15.7215 7.53061 16.4507 7.65691 17.1833 7.77143C17.4797 7.8169 17.7828 7.84721 18.0691 7.92973C18.6467 8.09476 18.8841 8.4383 18.8825 9.06476L18.8841 9.06307Z" fill="white"/>
</svg>
