<svg width="39" height="39" viewBox="0 0 39 39" fill="none" xmlns="http://www.w3.org/2000/svg">
<path d="M10.041 18.3174C10.1445 18.2004 10.2351 18.0834 10.3386 17.9794C13.483 14.8204 16.6273 11.6484 19.7845 8.50242C19.9139 8.37242 20.1339 8.33342 20.2763 8.21642C20.4703 8.06042 20.6515 7.89142 20.8068 7.69642C20.9491 7.51442 21.0138 7.26742 21.182 7.11142C22.7348 5.53842 24.2875 3.97842 25.8532 2.40542C26.539 1.71642 27.3672 1.71642 28.0659 2.40542C29.0105 3.35442 29.9421 4.30342 30.9126 5.26542C30.4209 5.78542 30.188 6.39642 30.2398 7.09842C30.3045 8.07342 30.8091 8.78842 31.6761 9.19142C32.4913 9.56842 33.3194 9.47742 34.044 8.94442C34.2899 8.76242 34.4322 8.78842 34.6263 8.98342C35.5191 9.89342 36.4378 10.8034 37.3307 11.7134C37.8483 12.2464 37.8612 13.0784 37.3307 13.5984C35.7909 15.1454 34.251 16.6924 32.7112 18.2394C32.4783 18.4734 31.9737 18.4734 31.7408 18.2394C31.6243 18.1224 31.5078 18.0184 31.3914 17.8884C31.1714 17.6284 30.8997 17.4854 30.5632 17.6024C30.2398 17.7194 30.1104 18.0054 30.1362 18.3564C30.0327 18.3564 29.9421 18.3824 29.8516 18.3824C23.3171 18.3824 16.7955 18.3824 10.261 18.3824C10.1963 18.3824 10.1316 18.3824 10.054 18.3824C10.054 18.3564 10.054 18.3434 10.054 18.3174H10.041ZM26.3708 13.1044C26.3708 12.8444 25.8144 12.2074 25.5168 12.0904C25.2321 11.9734 24.9475 11.9864 24.7534 12.2204C24.5463 12.4674 24.4687 12.7794 24.7275 13.0524C24.9475 13.2864 25.1545 13.5464 25.4262 13.7024C25.8273 13.9494 26.3838 13.5724 26.3708 13.1044ZM23.3818 10.2054C22.8512 10.2054 22.5536 10.6474 22.8254 11.1024C22.9936 11.3754 23.2006 11.6484 23.4594 11.8044C23.6406 11.9214 23.977 11.8824 24.197 11.8044C24.4816 11.7004 24.5334 11.4014 24.4816 11.1154C24.4299 10.7644 23.7311 10.2054 23.3688 10.2054H23.3818ZM28.894 15.7824C28.4023 15.7824 28.1047 16.2244 28.3506 16.6404C28.5317 16.9264 28.7646 17.2124 29.0493 17.3944C29.1916 17.4984 29.5022 17.4594 29.6963 17.3944C29.981 17.2904 30.0974 17.0174 30.0457 16.7054C29.981 16.3284 29.2952 15.7824 28.907 15.7824H28.894ZM27.0825 13.8974C26.5908 13.8974 26.2673 14.3784 26.5261 14.8074C26.6943 15.0934 26.966 15.3664 27.2507 15.5354C27.7036 15.8084 28.1824 15.4834 28.1694 14.9504C28.1694 14.5214 27.5224 13.8974 27.0825 13.8844V13.8974ZM21.9843 10.0364C22.4372 10.0364 22.6183 9.85442 22.6183 9.41242C22.6183 8.87942 22.2043 8.64542 21.8549 8.41142C21.6996 8.30742 21.3632 8.33342 21.2079 8.43742C21.0526 8.54142 20.9362 8.82742 20.9232 9.04842C20.8974 9.42542 21.609 10.0364 21.9843 10.0494V10.0364Z" fill="#6D2100"/>
<path d="M10.0413 18.3164C10.0413 18.3164 10.0542 18.3554 10.0413 18.3814C10.0154 18.3814 10.0024 18.3814 9.97656 18.3814C10.0024 18.3684 10.0154 18.3424 10.0413 18.3294V18.3164Z" fill="#333333"/>
<path d="M13.1335 24.7139C13.237 26.0529 11.9948 27.0279 10.8432 27.0019C9.6398 26.9759 8.66933 26.0139 8.65639 24.7269C8.64345 23.5699 9.51041 22.5039 10.675 22.5039C12.2018 22.5039 13.1206 23.3359 13.1206 24.7009L13.1335 24.7139ZM11.8266 24.7269C11.8266 24.1029 11.5031 23.8169 10.8432 23.8169C10.3385 23.8169 9.8986 24.2459 9.95035 24.7399C10.0151 25.2859 10.3644 25.6629 10.8691 25.6369C11.5031 25.5979 11.8266 25.3249 11.8137 24.7269H11.8266Z" fill="#FEFEFE"/>
<path d="M27.0829 22.2172C27.0182 22.4512 27.0182 22.7372 26.8759 22.9192C26.5136 23.3872 25.9442 23.2702 25.789 22.6982C25.7113 22.3992 25.7501 22.0482 25.789 21.7232C25.8407 21.2812 26.1901 21.2162 26.5395 21.2812C26.85 21.3462 27.0441 21.5542 27.0182 21.9182C27.0182 22.0092 27.0182 22.1132 27.0182 22.2042C27.0441 22.2042 27.057 22.2042 27.0829 22.2172Z" fill="#FEFEFE"/>
<path d="M27.057 24.8556C27.0311 25.0636 27.0311 25.2976 26.9535 25.4796C26.8112 25.7916 26.4877 25.8826 26.203 25.7786C26.0219 25.7006 25.8148 25.4796 25.7631 25.2846C25.6984 24.9986 25.7242 24.6736 25.7889 24.3746C25.8925 23.9326 26.1383 23.8026 26.5653 23.9196C26.8629 23.9976 27.057 24.2186 27.0311 24.5696C27.0311 24.6606 27.0311 24.7646 27.0311 24.8556H27.057Z" fill="#FEFEFE"/>
<path d="M27.0441 27.4816C27.0183 27.6896 27.0312 27.9236 26.9406 28.1056C26.7983 28.4176 26.4877 28.5086 26.1901 28.4046C26.009 28.3396 25.8149 28.1316 25.7761 27.9496C25.7114 27.6506 25.7114 27.3126 25.7761 27.0136C25.8796 26.5716 26.1254 26.4416 26.5524 26.5456C26.8501 26.6236 27.0571 26.8446 27.0183 27.1956C27.0183 27.2866 27.0183 27.3906 27.0183 27.4816H27.0441Z" fill="#FEFEFE"/>
<path d="M27.0436 30.0948C27.0177 30.3028 27.0436 30.5368 26.953 30.7188C26.8107 31.0178 26.5001 31.1348 26.2025 31.0178C26.0213 30.9528 25.8272 30.7448 25.7884 30.5628C25.7237 30.2508 25.7496 29.9128 25.7884 29.5878C25.8402 29.1328 26.2025 29.0808 26.5519 29.1588C26.8624 29.2238 27.0565 29.4448 27.0306 29.7958C27.0306 29.8868 27.0306 29.9908 27.0306 30.0818H27.0565L27.0436 30.0948Z" fill="#FEFEFE"/>
<path d="M27.0571 32.7479C27.0183 32.9559 27.0312 33.1769 26.9406 33.3589C26.7854 33.6709 26.4748 33.7489 26.1772 33.6449C26.009 33.5799 25.8149 33.3589 25.7761 33.1769C25.7114 32.8909 25.7114 32.5659 25.7761 32.2669C25.8666 31.8379 26.1125 31.6949 26.5395 31.7859C26.8759 31.8509 27.0571 32.0849 27.0312 32.4619C27.0312 32.5529 27.0312 32.6569 27.0312 32.7479H27.07H27.0571Z" fill="#FEFEFE"/>
<path d="M26.3707 13.1038C26.3836 13.5718 25.8143 13.9618 25.4261 13.7018C25.1673 13.5328 24.9473 13.2728 24.7273 13.0518C24.4686 12.7788 24.5462 12.4668 24.7532 12.2198C24.9473 11.9858 25.232 11.9728 25.5167 12.0898C25.8143 12.2198 26.3707 12.8438 26.3707 13.1038Z" fill="#FEFEFE"/>
<path d="M23.3822 10.2051C23.7316 10.2051 24.4303 10.7771 24.495 11.1151C24.5338 11.4011 24.495 11.7001 24.2103 11.8041C23.9904 11.8821 23.6669 11.9081 23.4728 11.8041C23.214 11.6481 22.994 11.3621 22.8387 11.1021C22.567 10.6471 22.8646 10.2051 23.3951 10.2051H23.3822Z" fill="#FEFEFE"/>
<path d="M28.8944 15.7812C29.2955 15.7812 29.9813 16.3273 30.0331 16.7043C30.0848 17.0163 29.9813 17.2892 29.6837 17.3932C29.4896 17.4582 29.192 17.4972 29.0367 17.3932C28.765 17.1982 28.5191 16.9252 28.338 16.6392C28.0921 16.2362 28.3897 15.7812 28.8814 15.7812H28.8944Z" fill="#FEFEFE"/>
<path d="M27.0697 13.8965C27.5097 13.8965 28.1567 14.5205 28.1567 14.9625C28.1567 15.4825 27.6779 15.8205 27.2379 15.5475C26.9533 15.3785 26.6945 15.1055 26.5133 14.8195C26.2545 14.3905 26.578 13.8965 27.0697 13.9095V13.8965Z" fill="#FEFEFE"/>
<path d="M21.9719 10.0362C21.5966 10.0362 20.885 9.41224 20.9108 9.03524C20.9108 8.82724 21.0273 8.54124 21.1955 8.42424C21.3508 8.32024 21.6872 8.29424 21.8425 8.39824C22.1919 8.63224 22.6059 8.86624 22.6059 9.39924C22.6059 9.84124 22.4118 10.0232 21.9719 10.0232V10.0362Z" fill="#FEFEFE"/>
<path d="M16.1231 31.6936C15.6055 31.6936 15.1914 31.2906 15.1914 30.7706C15.1914 30.2116 15.5796 29.8086 16.1231 29.8086C16.6665 29.8086 17.0677 30.2116 17.0677 30.7706C17.0677 31.2776 16.6277 31.6936 16.1231 31.6936Z" fill="#010101"/>
<path d="M27.0953 35.7237C27.0176 35.3207 27.2247 34.8137 26.7718 34.5277C26.6424 34.4367 26.4483 34.4107 26.2801 34.4107C25.8401 34.4107 25.7366 34.6707 25.6978 35.7497C25.5425 35.7497 25.3873 35.7497 25.219 35.7497C18.0246 35.7497 10.8302 35.7497 3.63576 35.7497C3.10523 35.7497 2.44531 35.1127 2.44531 34.5667C2.44531 33.2017 2.44531 31.8367 2.44531 30.4717C2.44531 30.2247 2.53589 30.1597 2.7688 30.1337C4.03689 29.9517 5.08499 28.6387 4.7615 27.2477C4.48977 26.0387 3.67458 25.4927 2.53589 25.2977C2.51001 25.2977 2.48413 25.2847 2.44531 25.2717C2.44531 23.8157 2.44531 22.3597 2.44531 20.8907C2.44531 20.3057 3.01466 19.7857 3.62282 19.7207C3.73927 19.7207 3.86867 19.7207 3.98513 19.7207C11.1278 19.7207 18.2705 19.7207 25.4131 19.7207C25.4908 19.7207 25.5684 19.7207 25.6072 19.7207C25.7496 19.9937 25.8401 20.2667 26.0084 20.4617C26.0989 20.5657 26.3318 20.5527 26.5001 20.5527C26.8235 20.5527 27.0047 20.2537 27.0306 19.7337H27.4188C29.6185 19.7337 31.8312 19.7337 34.0309 19.7337C35.079 19.7337 35.6354 20.2927 35.6354 21.3457C35.6354 22.5287 35.6354 23.7247 35.6354 24.9077C35.6354 25.0247 35.6225 25.1417 35.6096 25.2977C34.9238 25.3497 34.3156 25.5577 33.8627 26.0517C33.5133 26.4287 33.2545 26.8967 33.2416 27.4297C33.1769 29.0547 33.7333 29.7177 35.6354 30.2897C35.6354 31.6417 35.6613 33.0067 35.6354 34.3717C35.6096 35.1777 35.0273 35.7497 34.2509 35.7627C31.9088 35.7757 29.5667 35.7627 27.2376 35.7627C27.1988 35.7627 27.16 35.7497 27.1082 35.7367L27.0953 35.7237ZM17.7529 22.3987C17.52 22.5287 17.3518 22.5937 17.2482 22.6977C16.446 23.5427 15.6567 24.4007 14.8673 25.2457C14.5568 25.5837 14.2462 25.9217 13.9357 26.2597C12.9652 27.3387 12.0077 28.4177 11.0502 29.4837C10.3385 30.2637 9.61386 31.0307 8.91512 31.8237C8.74691 32.0187 8.55281 32.2527 8.74691 32.5777C9.03158 33.0717 9.45858 33.1757 9.84677 32.7597C10.5973 31.9667 11.309 31.1347 12.0465 30.3287C13.2111 29.0417 14.3756 27.7677 15.5402 26.4937C16.4201 25.5187 17.3129 24.5697 18.1799 23.5817C18.3222 23.4127 18.4257 23.0877 18.3481 22.9057C18.2834 22.7107 17.9858 22.5807 17.7788 22.4117L17.7529 22.3987ZM13.1464 24.7127C13.1464 23.3347 12.2277 22.5027 10.7008 22.5157C9.53622 22.5157 8.65633 23.5817 8.68221 24.7387C8.69515 26.0257 9.66562 26.9877 10.869 27.0137C12.0077 27.0397 13.2628 26.0647 13.1593 24.7257L13.1464 24.7127ZM16.0837 33.0067C17.3 33.0717 18.4387 31.9147 18.3869 30.6667C18.3352 29.5617 17.4035 28.4827 16.0966 28.4957C14.8803 28.4957 13.9098 29.4707 13.8839 30.7837C13.871 31.9277 15.0356 33.1107 16.0837 33.0067ZM27.0953 22.2167C27.0953 22.2167 27.0565 22.2167 27.0306 22.2037C27.0306 22.1127 27.0306 22.0087 27.0306 21.9177C27.0565 21.5667 26.8624 21.3457 26.5518 21.2807C26.2024 21.2157 25.8531 21.2807 25.8013 21.7227C25.7625 22.0477 25.7237 22.3857 25.8013 22.6977C25.9437 23.2697 26.5259 23.3867 26.8883 22.9187C27.0306 22.7367 27.0306 22.4507 27.0953 22.2167ZM27.0694 24.8557H27.0435C27.0435 24.7647 27.0435 24.6607 27.0435 24.5697C27.0823 24.2187 26.8883 23.9977 26.5777 23.9197C26.1507 23.8027 25.9048 23.9327 25.8013 24.3747C25.7366 24.6607 25.7107 24.9987 25.7754 25.2847C25.8143 25.4797 26.0213 25.7007 26.2154 25.7787C26.5001 25.8957 26.8236 25.7917 26.9659 25.4797C27.0565 25.2977 27.0435 25.0637 27.0694 24.8557ZM27.0694 27.4817H27.0435C27.0435 27.3907 27.0435 27.2867 27.0435 27.1957C27.0823 26.8447 26.8753 26.6237 26.5777 26.5457C26.1507 26.4287 25.9048 26.5717 25.8013 27.0137C25.7366 27.3127 25.7366 27.6507 25.8013 27.9497C25.8401 28.1317 26.0342 28.3397 26.2154 28.4047C26.513 28.5217 26.8236 28.4047 26.9659 28.1057C27.0565 27.9237 27.0435 27.6897 27.0694 27.4817ZM27.0694 30.0947H27.0435C27.0435 29.9907 27.0435 29.8997 27.0435 29.8087C27.0694 29.4577 26.8753 29.2367 26.5648 29.1717C26.2283 29.1067 25.866 29.1457 25.8013 29.6007C25.7625 29.9257 25.7366 30.2637 25.8013 30.5757C25.8401 30.7577 26.0342 30.9657 26.2154 31.0307C26.513 31.1477 26.8236 31.0307 26.9659 30.7317C27.0565 30.5497 27.0306 30.3157 27.0565 30.1077L27.0694 30.0947ZM27.0694 32.7467H27.0306C27.0306 32.6427 27.0306 32.5517 27.0306 32.4607C27.0694 32.0967 26.8753 31.8627 26.5389 31.7847C26.0989 31.6937 25.866 31.8367 25.7754 32.2657C25.7107 32.5517 25.7107 32.8897 25.7754 33.1757C25.8143 33.3577 26.0084 33.5787 26.1766 33.6437C26.4612 33.7477 26.7847 33.6697 26.94 33.3577C27.0306 33.1757 27.0176 32.9547 27.0565 32.7467H27.0694Z" fill="#F64D04"/>
<path d="M20.9098 20.9434H7.06445V34.5284H20.9098V20.9434Z" fill="#F64D04"/>
</svg>
