<svg width="25" height="26" viewBox="0 0 25 26" fill="none" xmlns="http://www.w3.org/2000/svg">
<path d="M11.0844 0.000182834C14.9065 -0.0156648 17.5571 0.998587 19.8227 3.09501C22.3917 5.47216 23.808 8.52397 24.013 12.1644C24.2201 15.8569 23.1637 19.1306 20.8185 21.836C18.3081 24.7339 15.1555 26.1307 11.4966 25.9904C8.38366 25.8704 5.68916 24.5415 3.49047 22.1507C1.48633 19.9683 0.316898 17.3104 0.0574893 14.2427C-0.262587 10.4619 0.754126 7.11806 3.10135 4.28132C5.44858 1.44459 8.42341 0.0816852 11.0865 0.000182834H11.0844ZM14.7203 9.43182C14.6764 9.43182 14.5823 9.43182 14.4881 9.43182C11.8501 9.43182 9.21 9.43182 6.57199 9.43182C5.98204 9.43182 5.50716 9.94121 5.47159 10.5298C5.42766 11.2769 5.98413 11.8022 6.55316 11.8022C10.1912 11.7977 13.8291 11.8067 17.4671 11.7886C17.7098 11.7886 17.9818 11.6505 18.1847 11.4943C18.6638 11.1253 18.6951 10.2084 18.2203 9.70802C17.5487 8.9994 16.8772 8.28626 16.2266 7.55274C15.9002 7.18371 15.5237 7.05467 15.0718 7.09995C14.5572 7.14975 14.0488 7.91497 14.2287 8.43794C14.348 8.78886 14.5572 9.10355 14.7224 9.42956L14.7203 9.43182ZM9.27904 16.5293C9.32715 16.5293 9.41083 16.5293 9.49242 16.5293C12.1304 16.5293 14.7685 16.5293 17.4086 16.5271C17.5571 16.5271 17.7119 16.5089 17.85 16.4569C18.6512 16.149 18.8207 15.0306 18.2035 14.4714C17.9546 14.245 17.6659 14.159 17.3479 14.159C15.0258 14.159 12.7036 14.159 10.3794 14.159C9.14097 14.159 7.9025 14.159 6.66613 14.159C6.16614 14.159 5.76029 14.3559 5.55318 14.8721C5.38791 15.2841 5.45067 15.8388 5.85443 16.2599C6.59291 17.0274 7.30628 17.8243 8.0343 18.6054C8.38366 18.9789 8.88156 19.0151 9.3146 18.7254C9.80831 18.3971 9.93383 17.813 9.78949 17.4191C9.67443 17.1021 9.45477 16.8282 9.27904 16.5293Z" fill="#222222"/>
</svg>
