<svg width="12" height="12" viewBox="0 0 12 12" fill="none" xmlns="http://www.w3.org/2000/svg">
<g clip-path="url(#clip0_250_1154)">
<path d="M5.98093 0.0938008C9.24894 0.107181 11.8764 2.74634 11.863 6.00265C11.8496 9.25729 9.20044 11.8914 5.95751 11.8747C2.69619 11.858 0.0653858 9.2138 0.0821106 5.97255C0.0988353 2.70955 2.73633 0.0804211 5.98093 0.0938008ZM5.96922 0.916658C3.16782 0.921675 0.908313 3.18119 0.903295 5.98091C0.89995 8.7823 3.17619 11.0569 5.97591 11.0519C8.7773 11.0468 11.0368 8.78732 11.0402 5.98593C11.0435 3.18621 8.76894 0.911641 5.96922 0.916658Z" fill="black"/>
<path d="M6.65766 3.57488C6.62254 4.00303 6.58909 4.42617 6.55397 4.84763C6.49878 5.51662 6.44024 6.18561 6.38505 6.8546C6.36498 7.11216 6.20108 7.28777 5.97027 7.28777C5.74115 7.2861 5.58059 7.10882 5.55885 6.85126C5.47857 5.87453 5.39494 4.89948 5.31466 3.92275C5.30296 3.77892 5.28456 3.63174 5.29961 3.48791C5.34477 3.0999 5.63745 2.87579 6.03717 2.90254C6.39676 2.9293 6.65432 3.21028 6.65766 3.57488Z" fill="black"/>
<path d="M5.42676 8.51927C5.42676 8.21488 5.67094 7.9707 5.97198 7.9707C6.2747 7.9707 6.51721 8.21488 6.51721 8.51927C6.51721 8.82366 6.2747 9.06785 5.97198 9.06785C5.66927 9.06617 5.42676 8.82199 5.42676 8.51927Z" fill="black"/>
</g>
<defs>
<clipPath id="clip0_250_1154">
<rect width="11.9448" height="12" fill="white"/>
</clipPath>
</defs>
</svg>
