<svg width="49" height="51" viewBox="0 0 49 51" fill="none" xmlns="http://www.w3.org/2000/svg">
<path d="M23.9894 50.9097C17.6371 50.741 11.8737 48.2666 7.14243 43.3493C3.09822 39.1455 0.695379 34.0455 0.136973 28.1335C-0.617722 20.1337 1.74789 13.1672 7.1932 7.45562C11.9718 2.44344 17.8638 -0.0450752 24.6493 0.00061791C31.313 0.046311 37.1001 2.51725 41.8279 7.42398C46.6573 12.4362 49.05 18.5766 48.9992 25.6344C48.9484 32.6009 46.5151 38.6429 41.7162 43.5461C36.9106 48.4528 31.0693 50.8359 23.9961 50.9132L23.9894 50.9097ZM12.3136 38.1438C12.6182 38.0665 12.828 38.0137 13.0378 37.9575C14.7672 37.49 16.4898 37.0015 18.2259 36.5691C18.5475 36.4883 18.9671 36.5305 19.2615 36.6781C20.6491 37.3811 22.1179 37.7853 23.634 37.9329C25.1434 38.0805 26.6393 37.8485 28.0945 37.3846C32.7276 35.9083 36.2371 31.7432 36.6635 26.2601C36.826 24.1547 36.5247 22.0844 35.6516 20.1548C34.0272 16.5731 31.4111 14.183 27.6918 13.1532C25.6984 12.6014 23.7017 12.5662 21.6982 13.0688C18.9671 13.7542 16.7301 15.2656 15.0075 17.5608C12.9566 20.2919 12.0801 23.406 12.4727 26.8506C12.6453 28.3725 13.1021 29.8312 13.8162 31.1914C13.911 31.3707 14.0159 31.6097 13.9719 31.7854C13.7012 32.9102 13.3864 34.0279 13.092 35.1491C12.8348 36.1192 12.5877 37.0928 12.3136 38.1508V38.1438Z" fill="#66D44A"/>
<path d="M15.2574 35.135C15.5467 33.9837 15.8461 32.8885 16.0883 31.7827C16.1455 31.5168 16.1051 31.1563 15.9705 30.9254C14.8402 28.9658 14.2919 26.8453 14.487 24.5743C14.736 21.7014 15.9504 19.3044 18.0697 17.4323C19.3716 16.281 20.8652 15.5007 22.5506 15.1928C27.3544 14.3145 31.9698 16.6975 33.8671 21.6594C34.375 22.9891 34.6139 24.3993 34.5365 25.834C34.2708 30.8099 31.0783 34.5016 26.7791 35.6004C24.2124 36.2582 21.8004 35.8173 19.5229 34.4701C19.2034 34.2811 18.9141 34.2077 18.5407 34.3196C17.6055 34.6031 16.6568 34.834 15.7115 35.079C15.5669 35.1175 15.4155 35.1175 15.254 35.1385L15.2574 35.135ZM20.4783 19.6088C20.1722 19.7033 19.7921 19.7138 19.57 19.9098C18.322 21.0365 18.0125 22.5657 18.6382 24.0389C19.6878 26.5058 21.3631 28.4829 23.5598 29.9176C24.8784 30.7784 26.288 31.5028 27.9229 31.4678C29.0969 31.4433 30.2911 30.551 30.5132 29.4347C30.5939 29.0358 30.8058 28.4829 30.2979 28.196C29.5746 27.7866 28.8244 27.4366 28.0743 27.0797C27.7278 26.9152 27.4115 26.9537 27.166 27.3247C26.9406 27.6606 26.6647 27.9615 26.4259 28.2904C26.2106 28.5844 25.9751 28.6334 25.6421 28.4829C24.098 27.8006 22.8466 26.7648 21.908 25.3126C21.2722 24.3293 21.4404 24.3888 21.9921 23.7729C22.0796 23.6784 22.1502 23.5665 22.2276 23.4615C22.4934 23.1081 22.5539 22.7406 22.3622 22.3137C22.0964 21.7189 21.8643 21.103 21.6254 20.4941C21.4146 19.9599 21.0311 19.6648 20.475 19.6088H20.4783Z" fill="#66D44A"/>
</svg>
